<svg xmlns="http://www.w3.org/2000/svg" id="svg2457" viewBox="-14920 -9768 60 60">
    <defs id="defs2446">
        <style id="style2444">.cls-3{fill:#015f5f}</style>
    </defs>
    <circle r="30" cy="-9738" cx="-14890" data-name="Ellipse 48" id="Ellipse_48" fill="#e1f3f3" />
    <path d="M-14881.4-9741.2a8.43 8.43 0 0 0-8.6-8.4h-.1a8.5 8.5 0 0 0-8.6 8.4c0 4.6 4.3 10 7.6 13.2a1.85 1.85 0 0 0 2.5.1c2.8-2.7 7.2-7.7 7.2-13.3z" data-name="Path 534" id="Path_534" fill="#fcb61a" />
    <path d="M-14890-9753a11.87 11.87 0 0 0-12 11.8c0 8.7 10.4 17.4 10.9 17.8a1.66 1.66 0 0 0 2 .1c.6-.3 11.1-7.9 11.1-17.9a11.87 11.87 0 0 0-12-11.8zm1.4 25.1a1.75 1.75 0 0 1-2.5-.1c-3.2-3.2-7.6-8.5-7.6-13.2a8.43 8.43 0 0 1 8.6-8.4h.1a8.56 8.56 0 0 1 8.6 8.4c0 5.6-4.4 10.6-7.2 13.3z" class="cls-3" id="Path_71_1_" />
    <path id="Path_534-2" data-name="Path 534" class="cls-3" d="M-14888.06-9744.74a.82.82 0 0 0-.83-.81h-2.4a.82.82 0 0 0-.83.81v2.28h-2.4a.82.82 0 0 0-.83.81v2.36a.82.82 0 0 0 .83.82h2.4v2.36a.82.82 0 0 0 .83.82h2.4a.82.82 0 0 0 .83-.82v-2.36h2.3a.82.82 0 0 0 .84-.81v-2.37a.82.82 0 0 0-.83-.81h-2.31zm0 0" />
</svg>
