<svg version="1.1" id="Layer_1" xmlns="http://www.w3.org/2000/svg" x="0" y="0" viewBox="0 0 60 60" xml:space="preserve"><style>.st1{stroke:#015f5f;stroke-miterlimit:10}.st1,.st3{fill-rule:evenodd;clip-rule:evenodd;fill:#015f5f}</style><circle cx="30" cy="30" r="30" fill="#e1f3f3"/><path id="Fill-6" class="st1" d="M27.6 23.7h-.8a.4.4 0 01-.3-.6l.3-.6a.3.3 0 00-.3-.3l-1.2.1a.3.3 0 01-.3-.3l-.1-.6-.2-.2h-.3L9.1 38l-.1.3s0 .2.2.3l2.4 2.2c.1.2.3.2.4.2h.2L27.7 24s.1-.1 0-.2l-.1-.2"/><path id="Fill-8" class="st1" d="M40.1 26.8L33.9 21h-.3l-.1.2v.5c0 .2 0 .4-.2.5-.1.2-.3.2-.5.2l-.8-.1a.3.3 0 00-.3.3l.1.4v.6l-.5.2H31s-.2 0-.2.2v.3l6.2 5.7h.4l2.6-2.8c.1-.2.1-.3 0-.4"/><path id="Fill-10" class="st1" d="M42.8 29.3l-1.1-1h-.2-.2l-2.6 2.8v.4l1.1 1 .2.1h.2l2.6-2.9c.1-.1.1-.3 0-.4"/><path id="Fill-12" d="M53.6 39.4l-8.8-8.2s0 0 0 0l-.4-.4h-.2-.2l-2.6 2.9V34l9.2 8.6.4.1s0 0 0 0l.5-.2 2-2.2c.3-.3.3-.7 0-1h0z" fill-rule="evenodd" clip-rule="evenodd" fill="#fcb61a" stroke="#015f5f" stroke-miterlimit="10"/><path id="Fill-14" class="st3" d="M28.9 18.7c-.2-.5-.3-.8-.2-1.2v-.4l-.4-.4c-.4 0-.7.2-.8.5-.3.7 0 1.4.1 1.9.1.3.4.4.7.4.2 0 .4 0 .5-.3v-.5"/><path id="Fill-16" class="st3" d="M31.1 19.2c0-.3-.3-.6-.6-.6H30c-.3-.2-.7 0-.8.4 0 .4.2.7.5.8h.7c.4 0 .6-.2.6-.6"/><path id="Fill-18" class="st3" d="M29.9 20.6h-.4l-.3.2-.3.3v.5c0 .3.3.4.6.4s.5-.1.7-.3c.3-.2.4-.6.2-.9a.6.6 0 00-.5-.3"/><path id="Fill-20" class="st3" d="M25.4 19h.3c.3 0 .5-.1.6-.4 0-.3 0-.6-.3-.7l-1-.7a.6.6 0 00-.5-.1c-.2 0-.5.1-.6.4 0 .2 0 .5.2.7l1.3.8"/><path id="Fill-22" class="st3" d="M32 18.5h.2c.3 0 .5-.2.6-.5v-.2c.2-.1.3-.3.3-.4l-.2-.5a.7.7 0 00-1 0l-.4.8.1.5c.1.1.2.3.4.3"/><path id="Fill-24" class="st3" d="M30 17h.2l.7-.7v-.5l-.3-.4a.7.7 0 00-.8.3h-.1v.1h-.1c-.2.1-.3.3-.3.4v.5l.6.3"/></svg>