<svg xmlns="http://www.w3.org/2000/svg" id="svg2584" viewBox="-15160 -9768 60 60">
    <defs id="defs2574">
        <style id="style2572">.cls-3{fill:#015f5f}</style>
    </defs>
    <circle r="30" cy="-9738" cx="-15130" id="Ellipse_48_1_" fill="#e1f3f3" />
    <path id="Path_543" data-name="Path 543" d="M-15145.6-9734l-1.2-1.9 5.5-8.4 8.5-2.2c.2 0 6.3 1.4 7.3 1.5 1 .2 9.6.7 10 .7.3.1 3.8 2 3.8 2.2l-.8 4.5.2 2-1.2 1.8-12 4.6c-.1 0-4.6 1.6-5.2 1.3-.5-.4-5.3-2.2-5.8-2.5-.5-.4-3.8-1.6-3.8-1.6z" fill="#fcb61a" />
    <path d="M-15146.8-9735.9h11.9l1.9-9c0-.4.4-.8.9-.6a1 1 0 0 1 .9.8l1.5 10.1.9-3.2a1.2 1.2 0 0 1 .8-.7 1 1 0 0 1 1 .5l1.3 2.5 13.3-.1a11.6 11.6 0 0 0 1.2-3.6 11.8 11.8 0 0 0-2.4-9.5 9.2 9.2 0 0 0-7.4-3.3 10.3 10.3 0 0 0-8.4 4.7 10.2 10.2 0 0 0-8.5-4.7 9.7 9.7 0 0 0-7.5 3.3 11.8 11.8 0 0 0-2.4 9.5 12.1 12.1 0 0 0 1 3.3z" class="cls-3" id="Path_67_1_" />
    <path d="M-15126.1-9733.7a1 1 0 0 1-.8-.4l-.6-1-1.5 4.9a1 1 0 0 1-1 .7.8.8 0 0 1-.8-.8l-1.4-9-1 4.6a.9.9 0 0 1-.9.7h-11.5c2.3 3.2 5.8 5.3 8.5 7 1.3.7 2.4 1.4 3.6 2.3 3.4 2.7 3.6 4.1 3.6 4.2a.5.5 0 0 0 .4.5.5.5 0 0 0 .5-.5s.3-1.4 3.6-4.2a39.2 39.2 0 0 1 3.6-2.4 27 27 0 0 0 8.3-6.7z" class="cls-3" id="Path_68_1_" />
</svg>
