<svg width="57" height="17" viewBox="0 0 57 17" fill="none" xmlns="http://www.w3.org/2000/svg">
<g clip-path="url(#clip0_237_4029)">
<path d="M7.68544 12.7344C7.97675 11.7865 8.81164 11.1621 9.82076 11.1621C10.7672 11.1621 11.6411 11.7808 11.9226 12.7344H7.68544ZM12.8105 13.9703C13.0642 13.9703 13.2454 13.7774 13.2928 13.6C13.3401 13.4183 13.3304 13.1728 13.2858 12.8706C13.0363 11.1607 11.6383 9.84521 9.80961 9.84521C7.8304 9.84521 6.27769 11.4189 6.2749 13.4283C6.27769 15.4632 7.79276 16.9986 9.79428 16.9986C9.80683 16.9986 9.81937 16.9986 9.83052 16.9986C11.0236 16.9986 12.076 16.4437 12.7227 15.4717C12.8272 15.3142 12.8384 15.1098 12.7506 14.941C12.6627 14.7721 12.4913 14.6671 12.3031 14.6671H11.6885L11.5365 14.8643C11.1323 15.3908 10.5191 15.6803 9.80961 15.6803H9.80543C9.00538 15.6874 7.921 15.1567 7.66035 13.9689H12.8105V13.9703Z" fill="#6ABF4B"/>
<path d="M5.17383 12.6094C4.89368 12.266 4.56056 12.0616 4.38494 11.9566C4.68879 11.6841 5.17105 11.2301 5.17105 10.2311C5.17105 9.97138 5.12645 9.30301 4.71666 8.7127C4.50062 8.40193 4.21489 8.15786 3.86504 7.98615C3.44969 7.78181 2.93955 7.67822 2.34858 7.67822H0.505954C0.227192 7.67822 0 7.90811 0 8.19333V16.8565H2.69982C3.28104 16.8565 3.79257 16.7614 4.21768 16.5713C4.58704 16.4081 4.89507 16.1725 5.13481 15.8731C5.64773 15.2317 5.70348 14.4754 5.70348 14.1802C5.70348 13.5672 5.52508 13.0379 5.17244 12.6065L5.17383 12.6094ZM1.35061 8.944H2.32488C2.46705 8.944 2.84477 8.944 3.18347 9.10435C3.6058 9.30443 3.82044 9.67906 3.82044 10.2197C3.82044 10.4538 3.77584 10.7859 3.56259 11.047C3.32703 11.3365 2.93537 11.4826 2.39736 11.4826H1.35061V8.94258V8.944ZM4.04206 15.0629C3.91243 15.2246 3.74796 15.3509 3.55283 15.4389C3.32564 15.5425 3.05524 15.595 2.74999 15.595H1.352V12.747H2.59249C2.84756 12.747 3.09566 12.7527 3.34376 12.8208C3.63925 12.9017 3.86783 13.0564 4.04345 13.2948C4.24416 13.5672 4.35427 13.8836 4.35427 14.1831C4.35427 14.298 4.33197 14.7024 4.04206 15.0614V15.0629Z" fill="#6ABF4B"/>
<path d="M34.914 7.68115C35.1928 7.68115 35.4199 7.91104 35.4199 8.19626V16.3443C35.4199 16.6281 35.1941 16.8594 34.914 16.8594H34.0693V7.68115H34.914Z" fill="#00AFAA"/>
<path d="M32.6308 7.68115C32.9095 7.68115 33.1367 7.91104 33.1367 8.19626V16.3443C33.1367 16.6281 32.9109 16.8594 32.6308 16.8594H31.7861V7.68115H32.6308Z" fill="#00AFAA"/>
<path d="M25.4652 12.7344C25.7565 11.7865 26.5914 11.1621 27.6005 11.1621C28.5469 11.1621 29.4209 11.7808 29.7024 12.7344H25.4652ZM30.5903 13.9703C30.844 13.9703 31.0251 13.7774 31.0725 13.6C31.1199 13.4183 31.1102 13.1728 31.0656 12.8706C30.8161 11.1607 29.4181 9.84521 27.5894 9.84521C25.6102 9.84521 24.0575 11.4189 24.0547 13.4283C24.0575 15.4632 25.5726 16.9986 27.5741 16.9986C27.5866 16.9986 27.5992 16.9986 27.6103 16.9986C28.8034 16.9986 29.8557 16.4437 30.5025 15.4717C30.607 15.3142 30.6182 15.1098 30.5303 14.941C30.4425 14.7721 30.2711 14.6671 30.0829 14.6671H29.4683L29.3163 14.8643C28.9121 15.3908 28.2988 15.6803 27.5894 15.6803H27.5852C26.7852 15.6874 25.7008 15.1567 25.4401 13.9689H30.5903V13.9703Z" fill="#00AFAA"/>
<path d="M24.5159 7.87977C24.4225 7.75348 24.2775 7.67969 24.1214 7.67969H23.4133L21.6348 14.0696L20.0194 8.05005C19.9609 7.83152 19.7657 7.67969 19.5441 7.67969H18.9392L17.2443 14.0611L15.5704 8.0458C15.5104 7.83011 15.3167 7.68111 15.0965 7.68111H14.0957L16.6659 16.8594H17.4715C17.6945 16.8594 17.8897 16.7076 17.9482 16.489L19.427 10.9264L20.924 16.4905L21.023 16.8594H21.823C22.0432 16.8594 22.237 16.7104 22.2969 16.4961L24.5967 8.32251C24.6399 8.17067 24.6092 8.00748 24.5159 7.88261V7.87977Z" fill="#00AFAA"/>
<path d="M55.9286 3.3418C56.2687 3.3418 56.546 3.62135 56.546 3.96759C56.546 4.31383 56.2701 4.59196 55.9286 4.59196C55.5871 4.59196 55.3125 4.31241 55.3125 3.96759C55.3125 3.62277 55.5871 3.3418 55.9286 3.3418ZM55.9286 4.51108C56.2254 4.51108 56.468 4.26559 56.468 3.96759C56.468 3.66959 56.2254 3.42126 55.9286 3.42126C55.6317 3.42126 55.3933 3.66676 55.3933 3.96759C55.3933 4.26842 55.6317 4.51108 55.9286 4.51108ZM55.6777 3.63554H55.9829C56.1585 3.63554 56.2241 3.73771 56.2241 3.84272C56.2241 3.9165 56.1836 3.99881 56.0805 4.03145C56.1 4.0655 56.2087 4.26559 56.2296 4.29681H56.1112L55.9773 4.0428H55.7878V4.29681H55.6791V3.63554H55.6777ZM55.9704 3.95766C56.0791 3.95766 56.1153 3.89522 56.1153 3.84272C56.1153 3.78453 56.0791 3.72352 55.9718 3.72352H55.785V3.95766H55.9704Z" fill="#00AFAA"/>
<path d="M48.1314 11.9213C49.3733 10.6569 50.1412 8.91152 50.1412 6.98306C50.1412 3.12613 47.0707 0 43.2823 0C39.4939 0 36.4233 3.12613 36.4233 6.98306C36.4233 8.91152 37.1913 10.6583 38.4332 11.9213L43.2823 16.8581V14.914L39.3866 10.9478C38.39 9.93322 37.7726 8.5298 37.7726 6.98164C37.7726 3.88389 40.2396 1.3722 43.2809 1.3722C46.3222 1.3722 48.7906 3.88389 48.7906 6.98164C48.7906 8.53122 48.1732 9.93322 47.1766 10.9478L44.6315 13.539V15.4831L48.1314 11.9199" fill="#6ABF4B"/>
<path d="M50.1413 2.89209C49.7246 2.89209 49.3148 2.9304 48.919 3.00277C49.1935 3.40436 49.4263 3.83575 49.6145 4.29267C49.7887 4.27565 49.9643 4.26713 50.1427 4.26713C53.1854 4.26713 55.6511 6.77882 55.6511 9.87656C55.6511 12.9743 53.184 15.486 50.1427 15.486H44.6344V9.87656C44.6344 7.4486 46.1508 5.37965 48.2722 4.6006C48.0757 4.17348 47.8276 3.77615 47.5363 3.41713C45.0414 4.46154 43.2852 6.96045 43.2852 9.87798V16.861H50.1441C53.9325 16.861 57.0031 13.7349 57.0031 9.87798C57.0031 6.02106 53.9325 2.89493 50.1441 2.89493L50.1413 2.89209Z" fill="#00AFAA"/>
</g>
<defs>
<clipPath id="clip0_237_4029">
<rect width="57" height="17" fill="white"/>
</clipPath>
</defs>
</svg>
