<svg fill="none" height="63" viewBox="0 0 247 63" width="247" xmlns="http://www.w3.org/2000/svg" xmlns:xlink="http://www.w3.org/1999/xlink"><clipPath id="a"><path d="m0 0h247v62.3455h-247z"/></clipPath><clipPath id="b"><path d="m0 14h143.442v36h-143.442z"/></clipPath><g clip-path="url(#a)"><path d="m226.429 60.018c3.009 0 4.837-1.5152 4.837-3.7381 0-1.9928-1.164-2.9697-3.365-3.304l-1.493-.2084c-1.06-.165-1.285-.521-1.285-.9334 0-.5384.581-1.0203 1.888-1.0203 1.081 0 2.349.2692 3.552.7685v-2.3489c-1.081-.3733-2.306-.5817-3.469-.5817-2.597 0-4.633 1.2026-4.633 3.6122 0 1.4718.851 2.657 3.113 3.0131l1.476.2257c1.081.165 1.581.4559 1.581 1.0594 0 .8292-.934 1.2026-1.976 1.2026-1.372 0-2.722-.3734-4.029-.9117v2.453c1.164.4558 2.514.7077 3.799.7077m-11.557-.2432h3.013v-5.4009c0-1.9538 1.037-3.0131 2.7-3.0131.291 0 .604.0391.912.1042l.187-2.6788c-.313-.0608-.604-.1259-.955-.1259-1.663 0-2.723.8944-2.97 2.8221h-.039c.039-.7902.039-1.1636.039-1.6629v-.9117h-2.887v10.8627zm-7.459-1.8929c-.873 0-1.455-.4559-1.455-1.1636 0-.2301.04-.4168.126-.5817.313-.6252 1.186-1.016 3.096-1.0811l.56-.0217c0 .8509-.23 1.576-.643 2.0753-.416.4775-.933.7684-1.68.7684m-.833 2.1448c1.745 0 2.804-.7685 3.343-2.4096h.06c-.043.4559-.06.7685-.06 1.1853v.9768h2.574l.061-6.8727c0-3.0739-1.745-4.2375-4.467-4.2375-1.351 0-3.113.3344-4.342.9552l-.043 2.3271c1.12-.6035 2.617-.9769 3.864-.9769 1.328 0 2.179.4559 2.179 1.7671v.4776l-1.12.0607c-2.909.165-4.277.9769-5.006 1.8886-.395.4993-.603 1.1202-.603 1.8886 0 1.8279 1.476 2.9697 3.551 2.9697m-9.977-9.3649c1.35 0 2.201.851 2.201 2.3445h-4.424c.187-1.6411 1.059-2.3445 2.223-2.3445zm-2.201 4.3373h7.58c0-3.508-1.537-6.3344-5.275-6.3344-3.404 0-5.462 2.3488-5.462 5.7309 0 3.0131 1.767 5.6268 5.961 5.6268 1.477 0 2.657-.1867 4.029-.686l.148-2.3271c-1.246.521-2.14.7467-3.53.7467-1.932 0-3.321-.9551-3.447-2.7612m-.755-9.7556h-3.052l-4.029 6.1868-3.925-6.1868h-3.552l5.731 8.7613v5.7744h3.096v-5.8351z" fill="#1db1a8"/><path d="m240.188 34.3808c.065-.8206.104-1.6455.104-2.4834.005-17.6182-14.275-31.89776621-31.893-31.89776621s-31.898 14.27956621-31.898 31.89776621c0 4.3546.877 8.5052 2.457 12.2868l2.089-.0218c-1.385-3.4298-2.154-7.1723-2.154-11.0928 0-16.3939 13.29-29.68351 29.684-29.68351s29.683 13.28961 29.683 29.68351c0 .5731-.021 1.1419-.052 1.7106l1.984-.3994z" fill="#ffcd00"/><g fill="#1db1a8"><path d="m189.27 13.9838h-.434-4.616-.117l-.1.0565-9.495 5.5225-.386.2258.234.382 2.419 3.9682.238.3951.382-.2605 4.611-3.1607.039 19.7847v.4342h.434 6.396.434v-.4385l-.035-26.4751z"/><path d="m199.477 13.5285c-2.24 0-5.553.5644-8.132 2.1447l-.2.1216-.008.2301-.226 5.1839-.039.9421.746-.5818c2.102-1.6324 4.82-2.3662 6.578-2.3662 2.596 0 3.912 1.0985 3.912 3.2693 0 1.0159-.2 2.6484-1.937 5.0753-1.78 2.4834-4.814 5.3749-9.278 8.8395l-.169.1303v4.8105h19.971v-5.5269h-10.628c8.136-6.0565 9.265-10.3981 9.265-13.8584 0-5.1926-3.777-8.4184-9.855-8.4184"/><path d="m221.458 35.9956c-2.192 0-3.382-1.2851-3.382-8.0754 0-3.3474.395-5.7569 1.172-7.1593.547-.9855 1.251-1.4457 2.21-1.4457.96 0 3.269 0 3.269 8.4531 0 5.5355-1.068 8.223-3.269 8.223m.417-22.4635c-5.171 0-11.327 2.5876-11.327 14.9221 0 8.9741 3.421 13.3331 10.459 13.3331 5.44 0 11.253-3.6817 11.253-14.0147 0-9.0523-3.786-14.2405-10.385-14.2405z"/></g><path d="m159 62.3452c4.945-2.123 13.581-5.0623 24.508-8.2968l-1.671-2.5615c-10.433 4.1505-18.448 7.7497-22.833 9.9639v.8944zm85.23-31.164c-18.191 4.5543-35.64 10.2722-50.202 15.6428l-1.255 1.8973c1.021-.7164 2.297-1.1462 3.778-1.1636 1.845-.0217 3.351.4949 4.458 1.6021 14.054-3.7295 30.005-7.5067 45.991-10.6457v-7.9538l-2.766.6209z" fill="#ffcd00"/><g clip-path="url(#b)" fill="#1db1a8"><path d="m11.8539 19.1799c-3.38683 0-6.29552 1.3148-8.4073 3.4466-2.13171 2.0918-3.4466 5.0005-3.4466 8.3873v14.4837h14.4837c3.3868 0 6.2955-1.3149 8.4073-3.4466 2.1317-2.1118 3.4466-5.0005 3.4466-8.4073v-14.4637zm9.2241 15.7985h-5.2595v5.2596h-5.2596v-5.2596h-5.25951v-5.2595h5.25951v-5.2596h5.2596v5.2596h5.2595z"/><path d="m54.9463 23.4034c0-5.6978-3.6458-9.4034-10.2402-9.4034h-12.0531v31.4975h6.3354v-11.8738h3.1876c2.8688 4.5025 6.0963 9.3835 9.1843 14.145.9363 1.4543 2.6098 2.2114 4.2833 2.2114h4.642l-11.4555-17.1533c4.5025-1.6536 6.1361-4.5025 6.1361-9.4433zm-10.2202 4.9209h-5.7377v-9.005h5.7377c2.052 0 3.6856 1.2352 3.6856 4.5025s-1.6336 4.5025-3.6856 4.5025z"/><path d="m80.7261 23.0249h-4.0244l7.2917 10.8578-8.1683 11.6547h4.2634c1.7931 0 3.2673-.7571 4.2635-2.2114l3.0481-4.3033c1.8727 2.7493 2.2313 3.347 2.8688 4.3033.9962 1.4742 2.4505 2.2114 4.2635 2.2114h4.0243s-13.3879-20.0222-13.5672-20.2812c-.9961-1.4742-2.4505-2.2114-4.2634-2.2114z"/><path d="m122.663 14h-2.251v31.5174h5.737v-28.29c0-1.9125-1.554-3.2274-3.486-3.2274z"/><path d="m131.269 14.0598h-2.251v31.4576h5.738v-28.2501c0-1.9126-1.554-3.2275-3.487-3.2275z"/><path d="m70.705 40.5966h-3.4864c-3.088 0-4.9009-1.2153-4.9009-4.5025h14.3243s.0996-1.7333.0996-2.8688c-.0996-6.9331-3.7853-10.6387-9.9214-10.6387-6.1362 0-10.6387 3.7056-10.6387 11.4555 0 7.7498 3.4865 11.4554 10.6387 11.4554h7.3713v-1.6535c0-1.9126-1.554-3.2673-3.4865-3.2673zm-3.8848-13.109c2.829 0 3.9048 1.1953 4.0841 4.1239h-8.5866c.1793-2.9286 1.6535-4.1239 4.4825-4.1239z"/><path d="m107.741 23.0249h-7.371v1.6137c0 1.9126 1.554 3.3072 3.486 3.3072h3.487c3.088 0 4.482.8168 4.482 3.6657h-6.136c-4.503 0-7.3714 2.052-7.3714 6.7537 0 4.7018 2.8684 7.1522 7.3714 7.1522h11.874v-12.6707c0-6.953-2.869-9.8218-9.822-9.8218zm4.084 17.5916h-5.319c-1.235 0-2.451-.3785-2.451-2.2513 0-1.8727 1.236-2.2512 2.451-2.2512h5.319z"/><path d="m89.8904 30.4361h4.0842c.9562 0 1.7731-.3586 2.3707-.9762.5977-.5977.9762-1.4145.9762-2.3708v-4.0841h-4.0841c-.9563 0-1.7731.3586-2.3708.9762-.5976.5977-.9762 1.4145-.9762 2.3708z"/><path d="m136.649 14.3188h-.459v-.259h1.236v.2789h-.479v1.1555h-.298z"/><path d="m137.605 14.0598h.299l.418.5977.438-.5977h.299v1.4145h-.299v-.9762l-.438.6176-.438-.6176v.9762h-.299v-1.4145z"/><path d="m140.474 14.0598h.299l.418.5977.438-.5977h.299v1.4145h-.299v-.9762l-.438.6176-.438-.6176v.9762h-.299v-1.4145z"/><path d="m142.904 14.0399c.199 0 .359.0597.518.1793l-.159.2191c-.1-.0797-.199-.1395-.339-.1395-.259 0-.438.1794-.438.4583s.159.4781.438.4781.259-.0598.359-.1395l.179.1993c-.159.1394-.339.2191-.558.2191-.438 0-.737-.3187-.737-.7371s.299-.7172.737-.7172z"/><path d="m139.657 15.4743.657-1.4145h-.279l-.657 1.4145z"/></g><path d="m150 12v39" stroke="#e3e3e3"/></g></svg>