<svg fill="none" height="90" viewBox="0 0 89 90" width="89" xmlns="http://www.w3.org/2000/svg"><path clip-rule="evenodd" d="m88.3429 44.7236c0 24.7-19.7763 44.7236-44.1712 44.7236-24.3954 0-44.1717-20.0236-44.1717-44.7236 0-24.7005 19.7763-44.7236 44.1717-44.7236 24.3949 0 44.1712 20.0231 44.1712 44.7236z" fill="#fff" fill-rule="evenodd"/><g fill="#115556"><path d="m55.0075 35.9971c-.07 0-.13 0-.2-.02-.54-.11-.89-.64-.78-1.18.16-.77 1.61-7.61 4.8-9.11.96-.45 2-.41 3.01.14.85.46 1.72 1.12 2.56 1.75 1.65 1.24 3.35 2.52 4.48 2.05.95-.4 2.27-2.25 3.14-8.77.07-.55.58-.93 1.12-.86.55.07.93.57.86 1.12-.83 6.25-2.17 9.44-4.35 10.35-2.19.92-4.46-.79-6.46-2.3-.82-.62-1.59-1.2-2.31-1.59-.57-.31-.95-.21-1.21-.08-1.73.81-3.18 5.15-3.69 7.69-.09.48-.51.8-.98.8z"/><path d="m31.0073 70.9971c-4.96 0-9-4.04-9-9v-27c0-.55.45-1 1-1h40c.55 0 1 .45 1 1v7c0 .55-.45 1-1 1s-1-.45-1-1v-6h-38v26c0 3.86 3.14 7 7 7 .55 0 1 .45 1 1s-.45 1-1 1z"/><path d="m55.0073 70.9971h-20c-.55 0-1-.45-1-1s.45-1 1-1h20c3.86 0 7-3.14 7-7v-16c0-.55.45-1 1-1s1 .45 1 1v16c0 4.96-4.04 9-9 9z"/><path d="m47.3573 63.4971c-.54 0-2.31-.22-2.31-3.12v-3.27c0-1.36-.92-2.46-2.04-2.46s-2.04 1.1-2.04 2.46v3.27c0 2.89-1.76 3.12-2.31 3.12-1.41 0-2.55-1.02-3.13-2.81-.04-.12-.75-2.51-.89-5.59-.02-.41-.17-.82-.44-1.16-.77-.99-2.07-3.08-2.19-5.93.07-3.62 3.15-6.51 6.87-6.51 1.51 0 2.95.46 4.13 1.32 1.18-.86 2.62-1.32 4.13-1.32 3.71 0 6.79 2.89 6.87 6.45-.12 2.91-1.42 5-2.19 5.99-.27.35-.42.75-.44 1.17-.14 3.08-.86 5.47-.89 5.57-.58 1.8-1.72 2.83-3.13 2.83zm-4.35-10.85c2.23 0 4.04 2 4.04 4.46v3.27c0 .54.11 1.12.31 1.12.69 0 1.08-.99 1.22-1.42 0 0 .66-2.25.8-5.07.04-.83.34-1.62.86-2.3.62-.8 1.68-2.49 1.77-4.78-.05-2.41-2.23-4.43-4.87-4.43-1.3 0-2.53.48-3.45 1.34-.38.36-.99.36-1.37 0-.92-.87-2.14-1.34-3.45-1.34-2.63 0-4.82 2.01-4.87 4.49.09 2.24 1.15 3.92 1.77 4.72.52.67.82 1.47.86 2.3.13 2.84.8 5.06.8 5.09.13.41.53 1.4 1.22 1.4.2 0 .31-.57.31-1.12v-3.27c0-2.46 1.81-4.46 4.04-4.46z"/><path d="m49.0073 35.9971c-.55 0-1-.45-1-1 0-1.65-1.35-3-3-3s-3 1.35-3 3c0 .55-.45 1-1 1s-1-.45-1-1c0-2.76 2.24-5 5-5s5 2.24 5 5c0 .55-.45 1-1 1z"/><path d="m35.0073 35.9972c-.55 0-1-.45-1-1 0-1.88.48-3.73 1.4-5.36.27-.48.88-.65 1.36-.38s.65.88.38 1.36c-.75 1.33-1.14 2.84-1.14 4.38 0 .55-.45 1-1 1z"/><path d="m55.0075 35.9968c-.55 0-1-.45-1-1 0-3.71-2.32-7.09-5.78-8.41-.52-.2-.78-.77-.58-1.29s.77-.78 1.29-.58c4.23 1.61 7.07 5.74 7.07 10.27 0 .55-.45 1-1 1z"/><path d="m21.4374 31.9973c-.42 0-.81-.26-.95-.68-1.59-4.72.83-9.75 5.52-11.45l8.91-3.24c.52-.19 1.09.08 1.28.6s-.08 1.09-.6 1.28l-8.91 3.24c-3.65 1.33-5.54 5.25-4.3 8.93.18.52-.1 1.09-.63 1.27-.11.04-.21.05-.32.05z"/><path d="m33.8871 31.9973c-.41 0-.79-.25-.94-.66-.19-.52.08-1.09.6-1.28l26.18-9.52-1.05-2.87c-1.34-3.68-5.43-5.58-9.12-4.24l-10.2 3.71c-.52.19-1.09-.08-1.28-.6s.08-1.09.6-1.28l10.2-3.71c4.72-1.71003 9.96.72 11.68 5.44l1.39 3.81c.09.25.08.52-.03.77-.11.24-.32.43-.56.52l-27.12 9.86c-.11.04-.23.06-.34.06z"/></g></svg>