<svg xmlns="http://www.w3.org/2000/svg" viewBox="-15400 -9908 60 60">
    <circle r="30" cy="-9878" cx="-15370" fill="#e1f3f3" />
    <path data-name="Path 544" d="M-15375.7-9881.3l4.6-4.5 4.9-5.7 6.3-1.3 2.2 1.7a22.3 22.3 0 0 1 2 4.1l.9 3c0 .2-2.7 3.5-2.7 3.5l-8.2 7.3s-4 1.2-4.3.8l-5.7-8.9z" fill="#fcb61a" />
    <path d="M-15361.9-9894a8.2 8.2 0 0 0-5.7 2.4l-8.1 8.1-8.1 8a8 8 0 0 0 .2 11.2 7.8 7.8 0 0 0 11 0l6.4-6.3 9.8-9.8a8 8 0 0 0 0-11.2 7 7 0 0 0-5.5-2.4zm4 11.9l-8.1 8-7.8-7.8 8.1-8a5.5 5.5 0 0 1 3.9-1.6 6 6 0 0 1 4 1.6 5.5 5.5 0 0 1-.1 7.8z" fill="#015f5f" />
</svg>
