<svg fill="none" height="116" viewBox="0 0 440 116" width="440" xmlns="http://www.w3.org/2000/svg" xmlns:xlink="http://www.w3.org/1999/xlink"><clipPath id="a"><path d="m0 0h440v116h-440z"/></clipPath><g clip-path="url(#a)"><path d="m4.60023 103.672h.91284c.85317 0 1.49156-.167 1.91516-.501.42361-.34.63541-.833.63541-1.477 0-.65-.17899-1.131-.53696-1.441-.35201-.3101-.90687-.4652-1.66459-.4652h-1.26186zm6.26457-2.076c0 1.408-.4415 2.485-1.32451 3.23-.87704.746-2.12697 1.119-3.74979 1.119h-1.19027v4.654h-2.77431v-13.0844h4.17936c1.58703 0 2.79221.3431 3.61555 1.0292.82927.6802 1.24397 1.6972 1.24397 3.0522zm4.6945 1.727h.8949c.8771 0 1.5244-.146 1.942-.439.4177-.292.6265-.751.6265-1.378 0-.62-.2148-1.062-.6444-1.324-.4236-.263-1.0828-.3942-1.9778-.3942h-.8412zm0 2.255v5.021h-2.7743v-13.0844h3.8124c1.778 0 3.0935.3252 3.9467.9755.8532.6444 1.2798 1.6259 1.2798 2.9439 0 .77-.2118 1.456-.6354 2.059-.4236.596-1.0233 1.065-1.7989 1.405 1.9689 2.941 3.2516 4.841 3.8483 5.701h-3.0786l-3.1234-5.021zm20.6512-1.539c0 2.165-.5369 3.83-1.6108 4.993-1.074 1.164-2.6133 1.746-4.6179 1.746-2.0047 0-3.544-.582-4.6179-1.746-1.0739-1.163-1.6109-2.833-1.6109-5.011s.537-3.839 1.6109-4.985c1.0799-1.1515 2.6251-1.7272 4.6358-1.7272 2.0106 0 3.5469.5787 4.6089 1.7362 1.068 1.157 1.6019 2.822 1.6019 4.994zm-9.549 0c0 1.461.2775 2.562.8323 3.302.5549.74 1.3842 1.11 2.488 1.11 2.2134 0 3.3202-1.471 3.3202-4.412 0-2.948-1.1008-4.4213-3.3023-4.4213-1.1038 0-1.9361.3729-2.4969 1.1183-.5608.74-.8413 1.841-.8413 3.303zm22.3606-6.5244v8.4664c0 .966-.2177 1.813-.6533 2.541-.4295.728-1.053 1.286-1.8704 1.674s-1.7839.582-2.8996.582c-1.6825 0-2.9891-.43-3.9198-1.289-.9308-.865-1.3961-2.047-1.3961-3.544v-8.4304h2.7653v8.0094c0 1.009.2029 1.748.6086 2.22.4057.471 1.0769.707 2.0136.707.9069 0 1.5632-.236 1.9689-.707.4116-.478.6175-1.223.6175-2.238v-7.9914zm13.5097 6.4164c0 2.154-.6146 3.804-1.8436 4.949-1.2231 1.146-2.9921 1.719-5.307 1.719h-3.705v-13.0844h4.1077c2.136 0 3.7946.5638 4.9759 1.6915 1.1813 1.1279 1.772 2.7029 1.772 4.7249zm-2.8817.072c0-2.81-1.241-4.2152-3.723-4.2152h-1.4766v8.5202h1.1902c2.6729 0 4.0094-1.435 4.0094-4.305zm5.0435 6.596v-13.0844h2.7743v10.7934h5.307v2.291zm13.8855-7.697 2.7296-5.3874h2.9891l-4.3405 7.9914v5.093h-2.7564v-5.003l-4.3405-8.0814h3.007zm16.5843-3.2664c-1.0441 0-1.8525.3934-2.4253 1.1814-.5728.782-.8591 1.873-.8591 3.275 0 2.918 1.0948 4.377 3.2844 4.377.9188 0 2.0315-.23 3.3381-.689v2.326c-1.0739.448-2.2731.672-3.5976.672-1.9033 0-3.359-.576-4.3673-1.728-1.0083-1.157-1.5125-2.816-1.5125-4.975 0-1.361.2476-2.551.7428-3.571.4952-1.0265 1.2052-1.811 2.13-2.354.9307-.5489 2.0195-.8233 3.2665-.8233 1.2708 0 2.5476.3073 3.8303.9218l-.8949 2.2555c-.4892-.233-.9815-.436-1.4767-.6088-.4952-.1731-.9814-.2596-1.4587-.2596zm13.5906 10.9634-.949-3.115h-4.77l-.949 3.115h-2.9888l4.6178-13.1381h3.392l4.636 13.1381zm-1.611-5.442c-.877-2.822-1.373-4.418-1.486-4.788-.107-.3694-.185-.6618-.233-.8766-.196.7636-.76 2.6516-1.691 5.6646zm17.313 5.442h-3.526l-5.692-9.898h-.081c.114 1.748.17 2.995.17 3.74v6.158h-2.479v-13.0844h3.5l5.683 9.7994h.062c-.089-1.7-.134-2.902-.134-3.606v-6.1934h2.497zm10.762 0-.949-3.115h-4.77l-.948 3.115h-2.989l4.617-13.1381h3.392l4.636 13.1381zm-1.611-5.442c-.877-2.822-1.372-4.418-1.485-4.788-.108-.3694-.185-.6618-.233-.8766-.197.7636-.761 2.6516-1.692 5.6646zm16.561-1.226c0 2.154-.614 3.804-1.843 4.949-1.223 1.146-2.992 1.719-5.307 1.719h-3.705v-13.0844h4.108c2.136 0 3.794.5638 4.976 1.6915 1.181 1.1279 1.771 2.7029 1.771 4.7249zm-2.881.072c0-2.81-1.241-4.2152-3.723-4.2152h-1.477v8.5202h1.19c2.673 0 4.01-1.435 4.01-4.305zm5.043 6.596v-13.0844h2.775v13.0844zm13.528 0-.949-3.115h-4.77l-.948 3.115h-2.99l4.618-13.1381h3.392l4.636 13.1381zm-1.611-5.442c-.877-2.822-1.372-4.418-1.486-4.788-.107-.3694-.185-.6618-.232-.8766-.197.7636-.761 2.6516-1.692 5.6646zm17.313 5.442h-3.526l-5.692-9.898h-.08c.113 1.748.17 2.995.17 3.74v6.158h-2.479v-13.0844h3.499l5.683 9.7994h.062c-.089-1.7-.134-2.902-.134-3.606v-6.1934h2.497zm18.84-6.56c0 2.165-.537 3.83-1.611 4.993-1.074 1.164-2.614 1.746-4.618 1.746-2.005 0-3.544-.582-4.618-1.746-1.074-1.163-1.611-2.833-1.611-5.011s.537-3.839 1.611-4.985c1.08-1.1515 2.625-1.7272 4.636-1.7272 2.01 0 3.547.5787 4.609 1.7362 1.068 1.157 1.602 2.822 1.602 4.994zm-9.549 0c0 1.461.277 2.562.832 3.302s1.384 1.11 2.488 1.11c2.213 0 3.32-1.471 3.32-4.412 0-2.948-1.101-4.4213-3.302-4.4213-1.104 0-1.936.3729-2.497 1.1183-.561.74-.841 1.841-.841 3.303zm24.454 6.56h-3.159l-1.772-6.873c-.065-.245-.179-.749-.34-1.513-.155-.77-.244-1.286-.268-1.548-.036.322-.126.841-.269 1.557-.143.71-.253 1.217-.331 1.521l-1.763 6.856h-3.15l-3.338-13.0844h2.729l1.674 7.1414c.292 1.319.504 2.461.635 3.428.036-.34.117-.865.242-1.575.131-.716.253-1.271.367-1.665l1.906-7.3294h2.622l1.906 7.3294c.084.328.188.829.314 1.504.125.674.22 1.253.286 1.736.06-.466.155-1.044.286-1.736.132-.698.251-1.262.358-1.692l1.665-7.1414h2.73zm16.034 0h-3.526l-5.692-9.898h-.081c.114 1.748.17 2.995.17 3.74v6.158h-2.479v-13.0844h3.5l5.682 9.7994h.063c-.089-1.7-.134-2.902-.134-3.606v-6.1934h2.497zm10.288 0h-7.536v-13.0844h7.536v2.2732h-4.761v2.8732h4.429v2.273h-4.429v3.374h4.761zm13.044-6.668c0 2.154-.615 3.804-1.844 4.949-1.223 1.146-2.992 1.719-5.307 1.719h-3.705v-13.0844h4.108c2.136 0 3.795.5638 4.976 1.6915 1.181 1.1279 1.772 2.7029 1.772 4.7249zm-2.882.072c0-2.81-1.241-4.2152-3.723-4.2152h-1.476v8.5202h1.19c2.673 0 4.009-1.435 4.009-4.305zm17.265 6.596-.949-3.115h-4.77l-.949 3.115h-2.989l4.618-13.1381h3.392l4.636 13.1381zm-1.611-5.442c-.877-2.822-1.373-4.418-1.486-4.788-.107-.3694-.185-.6618-.233-.8766-.196.7636-.76 2.6516-1.691 5.6646zm17.313 5.442h-3.526l-5.692-9.898h-.081c.114 1.748.17 2.995.17 3.74v6.158h-2.479v-13.0844h3.5l5.683 9.7994h.062c-.089-1.7-.134-2.902-.134-3.606v-6.1934h2.497zm13.608-6.668c0 2.154-.615 3.804-1.844 4.949-1.223 1.146-2.992 1.719-5.307 1.719h-3.705v-13.0844h4.108c2.136 0 3.795.5638 4.976 1.6915 1.181 1.1279 1.772 2.7029 1.772 4.7249zm-2.882.072c0-2.81-1.241-4.2152-3.723-4.2152h-1.476v8.5202h1.19c2.673 0 4.009-1.435 4.009-4.305zm21.131.036c0 2.165-.537 3.83-1.611 4.993-1.074 1.164-2.613 1.746-4.618 1.746s-3.544-.582-4.618-1.746c-1.074-1.163-1.611-2.833-1.611-5.011s.537-3.839 1.611-4.985c1.08-1.1515 2.625-1.7272 4.636-1.7272s3.547.5787 4.609 1.7362c1.068 1.157 1.602 2.822 1.602 4.994zm-9.549 0c0 1.461.277 2.562.832 3.302s1.384 1.11 2.488 1.11c2.214 0 3.32-1.471 3.32-4.412 0-2.948-1.101-4.4213-3.302-4.4213-1.104 0-1.936.3729-2.497 1.1183-.561.74-.841 1.841-.841 3.303zm14.485-.367h.913c.853 0 1.491-.167 1.915-.501.424-.34.635-.833.635-1.477 0-.65-.179-1.131-.537-1.441-.352-.3101-.906-.4652-1.664-.4652h-1.262zm6.264-2.076c0 1.408-.441 2.485-1.324 3.23-.877.746-2.127 1.119-3.75 1.119h-1.19v4.654h-2.774v-13.0844h4.179c1.587 0 2.792.3431 3.616 1.0292.829.6802 1.243 1.6972 1.243 3.0522zm9.456 9.003h-7.535v-13.0844h7.535v2.2732h-4.761v2.8732h4.43v2.273h-4.43v3.374h4.761zm4.963-7.276h.895c.877 0 1.524-.146 1.942-.439.418-.292.626-.751.626-1.378 0-.62-.214-1.062-.644-1.324-.424-.263-1.083-.3942-1.978-.3942h-.841zm0 2.255v5.021h-2.774v-13.0844h3.812c1.778 0 3.094.3252 3.947.9755.853.6444 1.28 1.6259 1.28 2.9439 0 .77-.212 1.456-.636 2.059-.423.596-1.023 1.065-1.799 1.405 1.969 2.941 3.252 4.841 3.849 5.701h-3.079l-3.123-5.021zm16.785 5.021-.948-3.115h-4.771l-.948 3.115h-2.989l4.618-13.1381h3.391l4.636 13.1381zm-1.611-5.442c-.877-2.822-1.372-4.418-1.485-4.788-.108-.3694-.185-.6618-.233-.8766-.197.7636-.761 2.6516-1.691 5.6646zm10.753 5.442h-2.774v-10.7754h-3.553v-2.309h9.88v2.309h-3.553zm12.553 0h-7.536v-13.0844h7.536v2.2732h-4.762v2.8732h4.43v2.273h-4.43v3.374h4.762zm13.044-6.668c0 2.154-.615 3.804-1.844 4.949-1.223 1.146-2.992 1.719-5.307 1.719h-3.705v-13.0844h4.108c2.136 0 3.795.5638 4.976 1.6915 1.181 1.1279 1.772 2.7029 1.772 4.7249zm-2.882.072c0-2.81-1.241-4.2152-3.723-4.2152h-1.476v8.5202h1.19c2.673 0 4.009-1.435 4.009-4.305z" fill="#ec1e24"/><path d="m423.695 114.775c5.277.824 7.768 1.181 7.768 1.181-1.884-3.553-.56-3.758.478-4.629 5.93-4.953 7.194-6.03 7.194-6.03-2.748-.929-2.367-.583-.595-7.1626-5.739 1.8097-5.267 1.2859-6.482-1.5526 0 0-.433.5144-4.015 4.5552-.502.562-1.362.188-1.193-.695 1.86-9.2157 1.958-9.5991 1.958-9.5991-3.622 2.2003-3.486 2.3122-4.072 1.1787-1.981-3.8838-2.931-5.7911-2.931-5.7911s-.953 1.9073-2.944 5.7911c-.571 1.1335-.431 1.0216-4.067-1.1787 0 0 .1.3834 1.955 9.5991.181.883-.676 1.257-1.181.695-3.584-4.0408-4.024-4.5552-4.024-4.5552-1.21 2.8385-.736 3.3623-6.468 1.5526 1.765 6.5796 2.141 6.2336-.602 7.1626 0 0 1.271 1.077 7.201 6.03 1.035.871 2.364 1.076.469 4.629 0 0 2.493-.357 7.765-1.181" fill="#ec1e24"/><g fill="#1db1a8"><path d="m28.9314 15.6061c-7.409 0-13.772 2.8764-18.3917 7.5397-4.66328 4.5761-7.5397 10.9391-7.5397 18.3481v31.6842h31.6842c7.409 0 13.772-2.8764 18.3917-7.5397 4.6632-4.6197 7.5397-10.9391 7.5397-18.3917v-31.6406zm20.1785 34.5606h-11.5057v11.5057h-11.5057v-11.5057h-11.5057v-11.5057h11.5057v-11.5056h11.5057v11.5056h11.5057z"/><path d="m123.2 24.8455c0-12.4645-7.976-20.57077-22.402-20.57077h-26.3669v68.90337h13.8592v-25.975h6.9731c6.2756 9.8496 13.3366 20.5272 20.0916 30.9433 2.048 3.1815 5.709 4.8376 9.37 4.8376h10.155l-25.06-37.5242c9.849-3.6173 13.423-9.8495 13.423-20.6579zm-22.358 10.7648h-12.5517v-19.6991h12.5517c4.489 0 8.063 2.7021 8.063 9.8495 0 7.1475-3.574 9.8496-8.063 9.8496z"/><path d="m179.595 24.0174h-8.804l15.951 23.7523-17.868 25.4955h9.326c3.923 0 7.148-1.6561 9.327-4.8376l6.668-9.4138c4.097 6.0144 4.881 7.3218 6.276 9.4138 2.179 3.2251 5.36 4.8376 9.326 4.8376h8.804s-29.287-43.8-29.68-44.3666c-2.179-3.2251-5.36-4.8376-9.326-4.8376z"/><path d="m271.335 4.27471h-4.925v68.94689h12.552v-61.8866c0-4.18387-3.399-7.06029-7.627-7.06029z"/><path d="m290.163 4.4055h-4.925v68.8162h12.552v-61.7995c0-4.18387-3.4-7.06029-7.627-7.06029z"/><path d="m157.673 62.4568h-7.627c-6.755 0-10.721-2.6585-10.721-9.8496h31.335s.218-3.7916.218-6.2758c-.218-15.1666-8.28-23.2729-21.704-23.2729-13.423 0-23.272 8.1063-23.272 25.0597 0 16.9535 7.626 25.0598 23.272 25.0598h16.126v-3.6174c0-4.1838-3.4-7.1474-7.627-7.1474zm-8.499-28.6771c6.189 0 8.542 2.615 8.935 9.0215h-18.784c.392-6.4065 3.617-9.0215 9.806-9.0215z"/><path d="m238.692 24.0174h-16.125v3.5301c0 4.1839 3.399 7.2347 7.627 7.2347h7.627c6.755 0 9.806 1.7868 9.806 8.0191h-13.424c-9.849 0-16.125 4.4889-16.125 14.7743s6.276 15.646 16.125 15.646h25.975v-27.7182c0-15.2102-6.276-21.486-21.486-21.486zm8.935 38.483h-11.637c-2.702 0-5.36-.8281-5.36-4.9248s2.702-4.9248 5.36-4.9248h11.637z"/><path d="m199.642 40.23h8.935c2.092 0 3.879-.7845 5.186-2.1356 1.308-1.3074 2.136-3.0943 2.136-5.1862v-8.9344h-8.935c-2.092 0-3.879.7845-5.186 2.1355-1.307 1.3075-2.136 3.0944-2.136 5.1863z"/><path d="m301.93 4.97241h-1.003v-.56657h2.702v.61015h-1.045v2.52777h-.654z"/><path d="m304.022 4.40553h.654l.915 1.30746.959-1.30746h.653v3.09433h-.653v-2.13552l-.959 1.35104-.959-1.35104v2.13552h-.654v-3.09433z"/><path d="m310.298 4.40553h.653l.916 1.30746.958-1.30746h.654v3.09433h-.654v-2.13552l-.958 1.35104-.959-1.35104v2.13552h-.654v-3.09433z"/><path d="m315.615 4.36196c.435 0 .784.13075 1.133.39224l-.349.4794c-.218-.17433-.436-.30507-.741-.30507-.566 0-.959.39224-.959 1.00239s.349 1.04597.959 1.04597.567-.13075.785-.30508l.392.43582c-.349.30508-.741.47941-1.22.47941-.959 0-1.613-.69732-1.613-1.61254 0-.91523.654-1.56896 1.613-1.56896z"/><path d="m308.511 7.49986 1.438-3.09433h-.61l-1.439 3.09433z"/><path d="m416.157 70.6516c3.487 0 5.606-1.7563 5.606-4.3328 0-2.3099-1.349-3.4421-3.9-3.8296l-1.731-.2416c-1.228-.1912-1.49-.6038-1.49-1.0819 0-.624.674-1.1826 2.189-1.1826 1.253 0 2.723.312 4.117.8907v-2.7225c-1.254-.4328-2.673-.6743-4.021-.6743-3.01 0-5.37 1.3939-5.37 4.1869 0 1.7059.987 3.0798 3.608 3.4924l1.711.2617c1.253.1912 1.832.5284 1.832 1.2279 0 .9611-1.082 1.3939-2.29 1.3939-1.59 0-3.155-.4328-4.67-1.0568v2.8433c1.349.5284 2.914.8203 4.404.8203m-13.396-.2819h3.492v-6.2601c0-2.2646 1.203-3.4925 3.13-3.4925.337 0 .7.0453 1.057.1208l.216-3.1049c-.362-.0705-.699-.146-1.107-.146-1.927 0-3.155 1.0367-3.442 3.271h-.045c.045-.9158.045-1.3486.045-1.9273v-1.0568h-3.346v12.5908zm-8.646-2.194c-1.011 0-1.686-.5284-1.686-1.3487 0-.2667.046-.4831.146-.6743.363-.7247 1.374-1.1776 3.588-1.2531l.65-.0251c0 .9863-.267 1.8267-.745 2.4054-.483.5536-1.082.8907-1.948.8907m-.966 2.486c2.023 0 3.251-.8907 3.875-2.7929h.07c-.05.5284-.07.8907-.07 1.3738v1.1322h2.984l.071-7.9661c0-3.5629-2.023-4.9115-5.179-4.9115-1.565 0-3.608.3874-5.032 1.1071l-.05 2.6973c1.298-.6995 3.034-1.1323 4.478-1.1323 1.54 0 2.527.5284 2.527 2.0482v.5535l-1.299.0705c-3.371.1912-4.957 1.1322-5.802 2.189-.458.5788-.699 1.2984-.699 2.1891 0 2.1186 1.71 3.4421 4.116 3.4421m-11.564-10.8547c1.565 0 2.551.9863 2.551 2.7174h-5.128c.217-1.9022 1.228-2.7174 2.577-2.7174zm-2.552 5.0273h8.787c0-4.0661-1.782-7.3422-6.115-7.3422-3.945 0-6.33 2.7225-6.33 6.6427 0 3.4924 2.048 6.5219 6.909 6.5219 1.711 0 3.08-.2164 4.67-.7951l.171-2.6974c-1.444.6039-2.481.8656-4.091.8656-2.239 0-3.85-1.1071-3.996-3.2006m-.875-11.3076h-3.538l-4.67 7.1711-4.549-7.1711h-4.117l6.643 10.1552v6.693h3.588v-6.7634z"/></g><path d="m432.104 40.9357c.076-.9511.121-1.9072.121-2.8784.005-20.4212-16.546-36.97246-36.967-36.97246-20.422 0-36.973 16.55126-36.973 36.97246 0 5.0474 1.017 9.8583 2.848 14.2414l2.421-.0251c-1.605-3.9756-2.496-8.3134-2.496-12.8576 0-19.002 15.404-34.40596 34.406-34.40596s34.406 15.40396 34.406 34.40596c0 .6643-.025 1.3235-.061 1.9827l2.3-.463z" fill="#ffcd00"/><path d="m373.085 17.2937h-.503-5.349-.136l-.116.0654-11.006 6.4012-.447.2616.271.4429 2.803 4.5995.277.458.443-.302 5.344-3.6635.046 22.9322v.5033h.503 7.412.504v-.5083l-.041-30.687z" fill="#1db1a8"/><path d="m384.916 16.7659c-2.596 0-6.436.6542-9.425 2.486l-.232.1409-.01.2667-.261 6.0086-.046 1.092.866-.6743c2.435-1.8922 5.586-2.7426 7.624-2.7426 3.009 0 4.534 1.2731 4.534 3.7893 0 1.1776-.232 3.0697-2.245 5.8828-2.063 2.8785-5.58 6.23-10.754 10.2458l-.196.1509v5.5758h23.149v-6.4061h-12.319c9.43-7.0201 10.739-12.0524 10.739-16.0631 0-6.0187-4.378-9.7577-11.424-9.7577" fill="#1db1a8"/><path d="m410.395 42.8073c-2.541 0-3.92-1.4896-3.92-9.3601 0-3.8799.458-6.6729 1.358-8.2983.635-1.1423 1.45-1.6758 2.562-1.6758s3.789 0 3.789 9.798c0 6.4162-1.238 9.5312-3.789 9.5312m.483-26.0372c-5.993 0-13.129 2.9992-13.129 17.296 0 10.4018 3.965 15.4543 12.123 15.4543 6.305 0 13.043-4.2674 13.043-16.2443 0-10.4924-4.388-16.506-12.037-16.506z" fill="#1db1a8"/><path d="m338 73.3489c5.732-2.4608 15.741-5.8677 28.407-9.6167l-1.937-2.9691c-12.093 4.8109-21.382 8.9827-26.465 11.5492v1.0366zm98.789-36.122c-21.085 5.2789-41.31 11.9065-58.188 18.1315l-1.455 2.1991c1.183-.8303 2.662-1.3285 4.378-1.3487 2.139-.0251 3.885.5737 5.169 1.857 16.289-4.3228 34.778-8.7009 53.307-12.3393v-9.2192l-3.206.7196z" fill="#ffcd00"/><path d="m327.996-.400876v73.401676" stroke="#e3e3e3" stroke-width="1.62642"/></g></svg>