<svg width="48" height="70" viewBox="0 0 48 70" fill="none" xmlns="http://www.w3.org/2000/svg">
<mask id="path-1-outside-1_5419_1095" maskUnits="userSpaceOnUse" x="-0.23999" y="0.36499" width="49" height="69" fill="black">
<rect fill="white" x="-0.23999" y="0.36499" width="49" height="69"/>
<path d="M24.1925 1.39999C22.95 1.83749 22.005 2.55499 21.6375 3.88499C20.92 6.49249 21.3925 10.255 20.78 12.985C20.5175 15.0325 21.795 16.9225 23.93 16.975V19.3375H15.0925C14.2525 19.3375 12.73 20.6675 12.2925 21.385C11.1725 23.2575 11.225 29.2775 12.66 31.045C14.095 32.8125 14.13 32.13 15.005 32.6375L15.0925 39.8825C15.5475 40.8625 17.245 40.53 17.245 39.55V32.6725H31.98C32.015 32.6725 32.575 32.34 32.6275 32.27C33.1175 31.6925 32.785 30.5375 31.9625 30.45H16.1075C14.76 30.3275 13.9375 29.4875 13.815 28.1575C13.7275 27.1075 13.6925 23.59 14.06 22.7675C14.27 22.2775 14.7075 21.875 15.1975 21.665C24.665 21.42 34.22 21.5425 43.705 21.595C44.3 21.7525 45 22.5925 45.105 23.205C45.28 24.15 45.245 27.405 45.14 28.42C45.035 29.435 44.195 30.31 43.2325 30.4325C41.2725 30.695 38.8925 30.205 36.88 30.5025C36.145 30.73 36.005 31.885 36.53 32.375C37.055 32.865 37.055 32.6725 37.0725 32.6725H41.85V54.8625L41.6575 55.055H26.8525C26.1525 55.055 25.575 57.0325 27.255 57.26C32.3475 57.645 38.0875 56.7875 43.0925 57.26C44.0025 57.3475 44.9125 57.9775 45.0875 58.94C45.2625 59.9025 45.2275 63.35 45.105 64.26C44.9825 65.17 44.09 66.0625 43.0925 66.1675H24.8925C23.5275 66.36 23.545 68.25 25.1375 68.39C30.9475 68.915 37.58 67.9875 43.4775 68.3725C45.28 68.1625 47.0475 66.57 47.3275 64.75C47.6075 62.93 47.485 59.185 47.1875 58.135C46.89 57.085 45.5075 55.5275 44.1075 55.125V32.445C45.4375 32.095 46.7325 30.9225 47.135 29.5925C47.5025 28.385 47.52 23.5025 47.17 22.295C45.8225 17.675 39.1025 19.705 35.4975 19.285C31.8925 18.865 35.165 19.285 35.0425 19.075V17.115C35.55 16.8 36.0925 16.8 36.635 16.485C38.2625 15.5225 38.2625 14.0875 38.1925 12.4075C38.105 10.1325 37.8775 6.78999 37.5275 4.56749C37.1775 2.34499 36.4075 1.85499 34.78 1.36499H24.175L24.1925 1.39999ZM32.8375 3.62249C33.8525 3.62249 35.0425 3.35999 35.2875 4.63749C35.3575 7.29749 35.865 9.95749 35.97 12.6C36.005 13.51 36.1975 14.7 34.99 14.77C31.5075 14.455 27.3775 15.155 23.9825 14.77C20.5875 14.385 22.985 13.965 23.0025 13.125C23.0725 10.8325 23.335 7.54249 23.65 5.26749C23.965 2.99249 24.4025 3.60499 26.135 3.62249V9.44999C26.135 9.48499 26.4675 10.045 26.5375 10.0975C27.08 10.5525 28.375 10.185 28.375 9.57249V3.62249H30.5975V9.44999C30.5975 9.48499 30.86 9.93999 30.895 9.99249C31.4375 10.5875 32.82 10.2025 32.82 9.57249V3.62249H32.8375ZM32.8375 19.3375H26.345L26.1525 19.145V17.185L26.345 16.9925H32.8375V19.355V19.3375Z"/>
<path d="M22.005 42.8048L3.70001 42.7698C2.02001 43.0498 0.847509 44.4148 0.76001 46.0948C2.03751 52.3773 2.17751 59.3773 3.52501 65.5723C3.87501 67.1823 5.03001 68.2849 6.69251 68.4249C10.5775 68.7574 14.935 68.1624 18.8725 68.4249C21.13 68.0749 21.69 66.8323 22.0575 64.8023C23.1775 58.6598 23.65 52.2723 24.7175 46.1123C24.6475 44.5198 23.5975 43.0848 21.9875 42.8048H22.005ZM4.29501 54.6873C3.89251 51.6773 3.21 48.6498 3.14001 45.6223L3.665 45.0974L21.515 44.9923C22.04 45.0623 22.5475 45.6748 22.4775 46.2174L21.445 52.9198C18.5925 53.5848 17.595 55.9298 14.34 54.6523C11.89 53.6898 11.75 52.5173 8.40751 52.8498C5.06501 53.1823 5.71251 54.0748 4.27751 54.6873H4.29501ZM19.4325 65.8874C19.205 66.0974 18.8025 66.1673 18.505 66.2023C14.8475 66.5348 10.6825 65.9398 6.97251 66.2023C6.53501 66.2198 6.18501 66.0099 5.94001 65.6599L4.61001 57.0148C5.99251 56.6298 7.1475 55.2648 8.56501 55.0723C11.4875 54.6874 12.2575 56.5773 14.7775 57.1023C17.385 57.6448 19.065 56.6299 21.2 55.3349L19.7475 65.3273C19.695 65.5198 19.59 65.7649 19.4675 65.8874H19.4325Z"/>
<path d="M21.7073 39.3574H37.2998V48.2649H27.2723C26.0298 48.2649 25.6973 50.2424 27.0098 50.4874H37.7548C38.5773 50.3999 39.4173 49.5599 39.5223 48.7374C39.2948 45.6224 39.8198 42.1049 39.5223 39.0424C39.2248 35.9799 38.5248 37.2749 37.4923 37.1524H21.5148C20.3948 37.2399 19.3973 38.2899 19.4848 39.4449C19.5898 40.8974 21.6723 40.8624 21.7248 39.3749L21.7073 39.3574Z"/>
<path d="M40.695 26.0049C40.59 26.8099 40.6775 28.2449 41.815 28.2449C42.9525 28.2449 43.0225 25.8649 42.935 24.8849C42.8475 23.9049 42.655 23.8524 41.955 23.7824C41.255 23.7124 39.1375 23.6599 38.735 24.1149C37.6675 25.3224 39.5225 26.3899 40.695 26.0224V26.0049Z"/>
</mask>
<path d="M24.1925 1.39999C22.95 1.83749 22.005 2.55499 21.6375 3.88499C20.92 6.49249 21.3925 10.255 20.78 12.985C20.5175 15.0325 21.795 16.9225 23.93 16.975V19.3375H15.0925C14.2525 19.3375 12.73 20.6675 12.2925 21.385C11.1725 23.2575 11.225 29.2775 12.66 31.045C14.095 32.8125 14.13 32.13 15.005 32.6375L15.0925 39.8825C15.5475 40.8625 17.245 40.53 17.245 39.55V32.6725H31.98C32.015 32.6725 32.575 32.34 32.6275 32.27C33.1175 31.6925 32.785 30.5375 31.9625 30.45H16.1075C14.76 30.3275 13.9375 29.4875 13.815 28.1575C13.7275 27.1075 13.6925 23.59 14.06 22.7675C14.27 22.2775 14.7075 21.875 15.1975 21.665C24.665 21.42 34.22 21.5425 43.705 21.595C44.3 21.7525 45 22.5925 45.105 23.205C45.28 24.15 45.245 27.405 45.14 28.42C45.035 29.435 44.195 30.31 43.2325 30.4325C41.2725 30.695 38.8925 30.205 36.88 30.5025C36.145 30.73 36.005 31.885 36.53 32.375C37.055 32.865 37.055 32.6725 37.0725 32.6725H41.85V54.8625L41.6575 55.055H26.8525C26.1525 55.055 25.575 57.0325 27.255 57.26C32.3475 57.645 38.0875 56.7875 43.0925 57.26C44.0025 57.3475 44.9125 57.9775 45.0875 58.94C45.2625 59.9025 45.2275 63.35 45.105 64.26C44.9825 65.17 44.09 66.0625 43.0925 66.1675H24.8925C23.5275 66.36 23.545 68.25 25.1375 68.39C30.9475 68.915 37.58 67.9875 43.4775 68.3725C45.28 68.1625 47.0475 66.57 47.3275 64.75C47.6075 62.93 47.485 59.185 47.1875 58.135C46.89 57.085 45.5075 55.5275 44.1075 55.125V32.445C45.4375 32.095 46.7325 30.9225 47.135 29.5925C47.5025 28.385 47.52 23.5025 47.17 22.295C45.8225 17.675 39.1025 19.705 35.4975 19.285C31.8925 18.865 35.165 19.285 35.0425 19.075V17.115C35.55 16.8 36.0925 16.8 36.635 16.485C38.2625 15.5225 38.2625 14.0875 38.1925 12.4075C38.105 10.1325 37.8775 6.78999 37.5275 4.56749C37.1775 2.34499 36.4075 1.85499 34.78 1.36499H24.175L24.1925 1.39999ZM32.8375 3.62249C33.8525 3.62249 35.0425 3.35999 35.2875 4.63749C35.3575 7.29749 35.865 9.95749 35.97 12.6C36.005 13.51 36.1975 14.7 34.99 14.77C31.5075 14.455 27.3775 15.155 23.9825 14.77C20.5875 14.385 22.985 13.965 23.0025 13.125C23.0725 10.8325 23.335 7.54249 23.65 5.26749C23.965 2.99249 24.4025 3.60499 26.135 3.62249V9.44999C26.135 9.48499 26.4675 10.045 26.5375 10.0975C27.08 10.5525 28.375 10.185 28.375 9.57249V3.62249H30.5975V9.44999C30.5975 9.48499 30.86 9.93999 30.895 9.99249C31.4375 10.5875 32.82 10.2025 32.82 9.57249V3.62249H32.8375ZM32.8375 19.3375H26.345L26.1525 19.145V17.185L26.345 16.9925H32.8375V19.355V19.3375Z" fill="#115556"/>
<path d="M22.005 42.8048L3.70001 42.7698C2.02001 43.0498 0.847509 44.4148 0.76001 46.0948C2.03751 52.3773 2.17751 59.3773 3.52501 65.5723C3.87501 67.1823 5.03001 68.2849 6.69251 68.4249C10.5775 68.7574 14.935 68.1624 18.8725 68.4249C21.13 68.0749 21.69 66.8323 22.0575 64.8023C23.1775 58.6598 23.65 52.2723 24.7175 46.1123C24.6475 44.5198 23.5975 43.0848 21.9875 42.8048H22.005ZM4.29501 54.6873C3.89251 51.6773 3.21 48.6498 3.14001 45.6223L3.665 45.0974L21.515 44.9923C22.04 45.0623 22.5475 45.6748 22.4775 46.2174L21.445 52.9198C18.5925 53.5848 17.595 55.9298 14.34 54.6523C11.89 53.6898 11.75 52.5173 8.40751 52.8498C5.06501 53.1823 5.71251 54.0748 4.27751 54.6873H4.29501ZM19.4325 65.8874C19.205 66.0974 18.8025 66.1673 18.505 66.2023C14.8475 66.5348 10.6825 65.9398 6.97251 66.2023C6.53501 66.2198 6.18501 66.0099 5.94001 65.6599L4.61001 57.0148C5.99251 56.6298 7.1475 55.2648 8.56501 55.0723C11.4875 54.6874 12.2575 56.5773 14.7775 57.1023C17.385 57.6448 19.065 56.6299 21.2 55.3349L19.7475 65.3273C19.695 65.5198 19.59 65.7649 19.4675 65.8874H19.4325Z" fill="#115556"/>
<path d="M21.7073 39.3574H37.2998V48.2649H27.2723C26.0298 48.2649 25.6973 50.2424 27.0098 50.4874H37.7548C38.5773 50.3999 39.4173 49.5599 39.5223 48.7374C39.2948 45.6224 39.8198 42.1049 39.5223 39.0424C39.2248 35.9799 38.5248 37.2749 37.4923 37.1524H21.5148C20.3948 37.2399 19.3973 38.2899 19.4848 39.4449C19.5898 40.8974 21.6723 40.8624 21.7248 39.3749L21.7073 39.3574Z" fill="#115556"/>
<path d="M40.695 26.0049C40.59 26.8099 40.6775 28.2449 41.815 28.2449C42.9525 28.2449 43.0225 25.8649 42.935 24.8849C42.8475 23.9049 42.655 23.8524 41.955 23.7824C41.255 23.7124 39.1375 23.6599 38.735 24.1149C37.6675 25.3224 39.5225 26.3899 40.695 26.0224V26.0049Z" fill="#115556"/>
<path d="M24.1925 1.39999C22.95 1.83749 22.005 2.55499 21.6375 3.88499C20.92 6.49249 21.3925 10.255 20.78 12.985C20.5175 15.0325 21.795 16.9225 23.93 16.975V19.3375H15.0925C14.2525 19.3375 12.73 20.6675 12.2925 21.385C11.1725 23.2575 11.225 29.2775 12.66 31.045C14.095 32.8125 14.13 32.13 15.005 32.6375L15.0925 39.8825C15.5475 40.8625 17.245 40.53 17.245 39.55V32.6725H31.98C32.015 32.6725 32.575 32.34 32.6275 32.27C33.1175 31.6925 32.785 30.5375 31.9625 30.45H16.1075C14.76 30.3275 13.9375 29.4875 13.815 28.1575C13.7275 27.1075 13.6925 23.59 14.06 22.7675C14.27 22.2775 14.7075 21.875 15.1975 21.665C24.665 21.42 34.22 21.5425 43.705 21.595C44.3 21.7525 45 22.5925 45.105 23.205C45.28 24.15 45.245 27.405 45.14 28.42C45.035 29.435 44.195 30.31 43.2325 30.4325C41.2725 30.695 38.8925 30.205 36.88 30.5025C36.145 30.73 36.005 31.885 36.53 32.375C37.055 32.865 37.055 32.6725 37.0725 32.6725H41.85V54.8625L41.6575 55.055H26.8525C26.1525 55.055 25.575 57.0325 27.255 57.26C32.3475 57.645 38.0875 56.7875 43.0925 57.26C44.0025 57.3475 44.9125 57.9775 45.0875 58.94C45.2625 59.9025 45.2275 63.35 45.105 64.26C44.9825 65.17 44.09 66.0625 43.0925 66.1675H24.8925C23.5275 66.36 23.545 68.25 25.1375 68.39C30.9475 68.915 37.58 67.9875 43.4775 68.3725C45.28 68.1625 47.0475 66.57 47.3275 64.75C47.6075 62.93 47.485 59.185 47.1875 58.135C46.89 57.085 45.5075 55.5275 44.1075 55.125V32.445C45.4375 32.095 46.7325 30.9225 47.135 29.5925C47.5025 28.385 47.52 23.5025 47.17 22.295C45.8225 17.675 39.1025 19.705 35.4975 19.285C31.8925 18.865 35.165 19.285 35.0425 19.075V17.115C35.55 16.8 36.0925 16.8 36.635 16.485C38.2625 15.5225 38.2625 14.0875 38.1925 12.4075C38.105 10.1325 37.8775 6.78999 37.5275 4.56749C37.1775 2.34499 36.4075 1.85499 34.78 1.36499H24.175L24.1925 1.39999ZM32.8375 3.62249C33.8525 3.62249 35.0425 3.35999 35.2875 4.63749C35.3575 7.29749 35.865 9.95749 35.97 12.6C36.005 13.51 36.1975 14.7 34.99 14.77C31.5075 14.455 27.3775 15.155 23.9825 14.77C20.5875 14.385 22.985 13.965 23.0025 13.125C23.0725 10.8325 23.335 7.54249 23.65 5.26749C23.965 2.99249 24.4025 3.60499 26.135 3.62249V9.44999C26.135 9.48499 26.4675 10.045 26.5375 10.0975C27.08 10.5525 28.375 10.185 28.375 9.57249V3.62249H30.5975V9.44999C30.5975 9.48499 30.86 9.93999 30.895 9.99249C31.4375 10.5875 32.82 10.2025 32.82 9.57249V3.62249H32.8375ZM32.8375 19.3375H26.345L26.1525 19.145V17.185L26.345 16.9925H32.8375V19.355V19.3375Z" stroke="#115556" mask="url(#path-1-outside-1_5419_1095)"/>
<path d="M22.005 42.8048L3.70001 42.7698C2.02001 43.0498 0.847509 44.4148 0.76001 46.0948C2.03751 52.3773 2.17751 59.3773 3.52501 65.5723C3.87501 67.1823 5.03001 68.2849 6.69251 68.4249C10.5775 68.7574 14.935 68.1624 18.8725 68.4249C21.13 68.0749 21.69 66.8323 22.0575 64.8023C23.1775 58.6598 23.65 52.2723 24.7175 46.1123C24.6475 44.5198 23.5975 43.0848 21.9875 42.8048H22.005ZM4.29501 54.6873C3.89251 51.6773 3.21 48.6498 3.14001 45.6223L3.665 45.0974L21.515 44.9923C22.04 45.0623 22.5475 45.6748 22.4775 46.2174L21.445 52.9198C18.5925 53.5848 17.595 55.9298 14.34 54.6523C11.89 53.6898 11.75 52.5173 8.40751 52.8498C5.06501 53.1823 5.71251 54.0748 4.27751 54.6873H4.29501ZM19.4325 65.8874C19.205 66.0974 18.8025 66.1673 18.505 66.2023C14.8475 66.5348 10.6825 65.9398 6.97251 66.2023C6.53501 66.2198 6.18501 66.0099 5.94001 65.6599L4.61001 57.0148C5.99251 56.6298 7.1475 55.2648 8.56501 55.0723C11.4875 54.6874 12.2575 56.5773 14.7775 57.1023C17.385 57.6448 19.065 56.6299 21.2 55.3349L19.7475 65.3273C19.695 65.5198 19.59 65.7649 19.4675 65.8874H19.4325Z" stroke="#115556" mask="url(#path-1-outside-1_5419_1095)"/>
<path d="M21.7073 39.3574H37.2998V48.2649H27.2723C26.0298 48.2649 25.6973 50.2424 27.0098 50.4874H37.7548C38.5773 50.3999 39.4173 49.5599 39.5223 48.7374C39.2948 45.6224 39.8198 42.1049 39.5223 39.0424C39.2248 35.9799 38.5248 37.2749 37.4923 37.1524H21.5148C20.3948 37.2399 19.3973 38.2899 19.4848 39.4449C19.5898 40.8974 21.6723 40.8624 21.7248 39.3749L21.7073 39.3574Z" stroke="#115556" mask="url(#path-1-outside-1_5419_1095)"/>
<path d="M40.695 26.0049C40.59 26.8099 40.6775 28.2449 41.815 28.2449C42.9525 28.2449 43.0225 25.8649 42.935 24.8849C42.8475 23.9049 42.655 23.8524 41.955 23.7824C41.255 23.7124 39.1375 23.6599 38.735 24.1149C37.6675 25.3224 39.5225 26.3899 40.695 26.0224V26.0049Z" stroke="#115556" mask="url(#path-1-outside-1_5419_1095)"/>
</svg>
