<svg width="64" height="64" viewBox="0 0 64 64" fill="none" xmlns="http://www.w3.org/2000/svg">
<path d="M20.876 3.7259L21.3398 3.69224C25.3335 3.40237 28.6954 4.45306 32.0237 6.4283C35.2934 4.59723 38.5257 3.4341 42.4442 3.65972C47.2108 3.92331 50.6274 5.84711 52.8869 8.8375C55.1329 11.81 56.2009 15.7891 56.3875 20.1215C56.5908 24.8509 55.4015 27.681 53.9102 31.23C53.5983 31.9723 53.2732 32.746 52.9449 33.575C52.251 35.3293 51.8459 37.1353 51.5058 38.9892C51.4008 39.5612 51.3016 40.141 51.2016 40.7253C50.9802 42.0185 50.7551 43.3342 50.4554 44.6383C49.9662 46.7794 49.0373 50.5014 47.5529 53.7564C46.811 55.3833 45.9189 56.9196 44.8542 58.0871C43.789 59.255 42.517 60.0895 41.0217 60.2248C39.7097 60.3471 38.2735 59.9843 37.2429 59.0988C36.1246 58.1456 35.5582 56.8033 35.2622 55.328C34.9671 53.8566 34.93 52.1936 34.916 50.5492C34.9145 50.3701 34.9132 50.1913 34.912 50.0128C34.9017 48.5334 34.8915 47.0783 34.7272 45.7318C34.5431 44.2239 34.1714 42.9143 33.4365 41.9102L33.4362 41.9098C32.8451 41.1003 32.375 40.8781 32.056 40.862C31.7399 40.8461 31.3874 41.0238 31.0088 41.4633C30.2466 42.348 29.6851 43.9508 29.4842 45.0786L29.4842 45.0788C29.3209 45.9943 29.2921 47.2304 29.2754 48.6448C29.2739 48.7789 29.2724 48.9143 29.2709 49.051C29.257 50.338 29.2418 51.7334 29.1261 53.0739C28.9984 54.5539 28.7454 56.0103 28.2118 57.2171C27.6735 58.4345 26.8345 59.4285 25.5328 59.9081C23.644 60.6063 21.979 60.249 20.5679 59.2544C19.1836 58.2786 18.0525 56.6994 17.1333 54.9494C15.2923 51.4446 14.2009 47.0558 13.6728 44.7674C13.2938 43.1251 13.0399 41.6577 12.8043 40.296C12.7097 39.7491 12.618 39.2192 12.5223 38.7018C12.1869 36.888 11.7982 35.1971 11.0562 33.3536L11.056 33.3533C10.7845 32.6775 10.5221 32.0429 10.2718 31.4376C8.48088 27.1061 7.30889 24.2716 7.85423 18.5596L20.876 3.7259ZM20.876 3.7259V3.74711M20.876 3.7259V3.74711M20.876 3.74711C16.76 4.14196 13.7093 5.78592 11.5874 8.33938C9.39781 10.9744 8.23602 14.531 7.85425 18.5594L20.876 3.74711ZM17.6821 7.37814L17.6811 7.3785C14.4767 8.59242 12.496 11.4356 11.4747 14.8194C10.4531 18.2037 10.4166 22.0589 11.0498 25.1465L11.0498 25.1466C11.4454 27.0781 12.2343 28.882 13.0539 30.7522L13.0616 30.7696C13.8719 32.6188 14.7105 34.5322 15.1454 36.6168C15.2688 37.2081 15.4082 37.9674 15.5695 38.8463C15.9737 41.049 16.5158 44.0026 17.2895 46.9437C17.8289 48.994 18.4751 51.0122 19.2537 52.7306C20.0366 54.4584 20.9319 55.8342 21.9454 56.6493L21.9458 56.6497C22.8699 57.3947 23.6844 57.466 24.3097 57.1991C24.9624 56.9204 25.5458 56.2162 25.8552 55.1418C26.3735 53.321 26.3593 51.4194 26.3444 49.4199C26.3411 48.9835 26.3378 48.5424 26.34 48.0965C26.3521 45.644 26.5381 43.0967 27.9702 40.6875L27.9712 40.6857C28.9369 39.0763 30.278 38.0886 31.7418 37.9764C33.2188 37.8631 34.6597 38.6526 35.7852 40.2556L35.7854 40.2559C37.3353 42.4664 37.6669 44.9564 37.7418 47.4057C37.7641 48.1382 37.7643 48.8604 37.7645 49.5722C37.765 51.2847 37.7655 52.9368 38.0748 54.5275C38.4022 56.2018 39.1587 57.0703 39.9438 57.2989C40.7171 57.5241 41.785 57.2027 42.9162 55.8817L42.9164 55.8815C44.8034 53.6799 46.0136 50.3228 46.9026 46.7308C47.4635 44.4646 47.8842 42.1666 48.2732 40.0415C48.5026 38.7881 48.721 37.5949 48.9507 36.5039L48.9508 36.5035C49.2891 34.9029 49.8404 33.4831 50.431 32.1166C50.6018 31.7214 50.7747 31.333 50.9468 30.9465C51.3752 29.9842 51.7984 29.0337 52.1705 28.0188L52.1707 28.0185C53.5457 24.2763 53.9079 19.3793 52.7561 15.2163C51.6082 11.0676 48.9854 7.71677 44.4196 6.85832C39.7086 5.97255 37.2642 6.63197 35.1966 7.70658C34.5346 8.05065 33.9289 8.42611 33.2881 8.8233C32.8819 9.07508 32.4617 9.3356 32.0041 9.60238C30.8507 10.2748 29.5432 10.932 27.8517 11.423C27.8516 11.423 27.8515 11.4231 27.8514 11.4231L27.712 10.9429C26.944 11.1669 24.992 11.7269 24.288 11.7269C23.584 11.7269 22.848 10.4949 23.824 9.95093C24.4621 9.59524 25.4491 9.43107 26.3065 9.28848C26.7603 9.21299 27.1778 9.14354 27.488 9.05493C27.9075 8.93506 28.2955 8.80117 28.6765 8.66967L17.6821 7.37814ZM17.6821 7.37814C21.1261 6.06547 25.5917 6.28394 28.8454 8.08304L17.6821 7.37814Z" fill="#115556" stroke="#115556"/>
</svg>
