<svg width="214" height="83" fill="none" xmlns="http://www.w3.org/2000/svg"><g clip-path="url(#a)"><path d="M54.62 9.392c-8.87 0-18.622 5.308-20.419 14.258-1.91 9.558 6.598 11.61 12.059 11.672 12.284.15 19.757-7.201 21.475-14.693 1.644-7.195-4.703-11.237-13.114-11.237ZM48.57 31.051c-2.114 0-3.64-.532-4.536-1.577-.973-1.133-1.22-2.897-.744-5.233.869-4.243 4.552-10.57 11.162-10.57 1.6 0 2.792.454 3.543 1.342.88 1.027 1.146 2.629.764 4.516-2.233 10.961-8.88 11.522-10.19 11.522Zm80.114-20.837c3.214-.515 6.253-1.066 12.127-1.066 9.438 0 15.237 3.128 12.527 10.174-1.174 3.042-2.38 6.226-3.409 8.915-1.431 3.753-1.12 5.187-.823 6.515 0 0-2.225-.811-6.849-.68-4.137.113-5.928 1.174-12.71 1.174-7.338 0-10.023-3.633-9.741-7.476.259-3.373 2.133-6.307 6.33-7.98 2.778-1.107 5.55-1.478 8.419-1.704 4.43-.349 8.376-.158 10.521 0 .386-1.262.936-3.832-5.284-3.872-6.662-.052-11.212 1.112-13.318 1.768l2.212-5.768h-.002Zm6.882 12.59c-4.639.479-6.361 1.682-6.754 3.917-.313 1.784.841 3.45 5.158 3.263 2.521-.112 5.26-.726 7.187-1.69l2.145-5.613c-3.215-.183-5.4-.112-7.738.122m-18.131-12.166c-4.507 0-4.706-1.234-12.04-1.234-10.53 0-19.185 7.751-20.418 16.305-.392 2.695.367 5.112 1.92 6.803 1.61 1.76 4.041 2.444 6.925 2.573 4.268.187 8.174-.666 11.915-3.11-2.189 6.498-9.664 7.849-14.679 7.817-2.448-.014-5.128-.118-7.249-1.134l-2.199 5.52c2.2.586 5.481.97 8.11.97 12.305 0 20.219-4.401 23.515-13.06l8.403-22.132s-2.502.682-4.206.682M98.087 30.416c-5.123 0-4.656-4.978-2.857-8.861 2.309-4.978 6.969-7.256 9.927-7.366 2.21-.085 4.048.251 5.523 1.656-3.477 13.508-10.508 14.57-12.593 14.57Zm-66.902-2.81c-1.6.762-5.474 1.92-8.538 1.92-8.27 0-10.803-5.017-9.923-9.907 1.45-8.06 9.222-14.179 18.442-14.179 2.844 0 5.394.541 7.666 1.48l2.691-5.244C39.251.641 36.033 0 33.033 0 18.307 0 4.533 8.399 2.58 19.584.858 29.46 9.387 34.962 19.86 34.962c2.81 0 5.93-.445 8.52-1.052l2.806-6.303Zm140.794-18.4 1.846-4.953-9.328 1.604-1.276 3.349h-4.114l-1.486 4.089h4.077l-4.902 12.133c-1.258 3.081-1.324 5.338-.198 6.89 1.094 1.515 3.281 2.258 6.671 2.258 1.898 0 4.471-.393 6.481-.922l1.98-4.778v-.006c-1.127.463-2.94.934-4.42.988-1.049.041-1.666-.19-2.047-.706-.554-.728-.409-2.187.386-4.185l4.751-11.672h6.139l1.568-4.09h-6.131.003Zm28.533 19.888c-2.452 1.193-6.695 1.838-9.523 1.838-2.475 0-4.491-.823-5.684-2.325-1.09-1.364-1.366-3.181-.82-5.156h20.125l.098-.264c1.576-4.382 1.381-8.183-.563-10.707-1.771-2.312-4.865-3.486-9.137-3.486-9.527 0-17.633 5.31-19.741 12.907-1.06 3.84-.508 7.208 1.589 9.739 2.314 2.788 6.37 4.324 11.42 4.324 2.917 0 6.433-.52 9.61-1.476l2.624-5.396.002.002Zm-6.695-15.654c1.598 0 2.712.407 3.33 1.208.724.948.758 2.494.104 4.465h-11.434c.871-2.712 3.423-5.673 8.002-5.673m15.642-9.187c2.035 0 3.68 1.619 3.68 3.62 0 2.003-1.645 3.646-3.749 3.646-2.103 0-3.726-1.62-3.726-3.645s1.658-3.62 3.726-3.62h.069Zm-.094.905c-1.477 0-2.589 1.201-2.589 2.74 0 1.54 1.11 2.718 2.614 2.718 1.534.021 2.654-1.226 2.654-2.74 0-1.515-1.12-2.716-2.664-2.716h-.015v-.002Zm-.415 4.444h-1.041V6.253c.239-.04.784-.122 1.471-.122.766 0 1.1.104 1.355.268a.889.889 0 0 1 .361.74c0 .336-.318.633-.782.76v.037c.373.108.591.384.693.865.105.486.17.676.23.8h-1.158c-.108-.124-.172-.416-.23-.715-.062-.338-.222-.506-.56-.506h-.341v1.222h.002Zm.036-1.915h.303c.365 0 .62-.168.62-.398 0-.276-.245-.424-.579-.424-.131 0-.27.023-.344.023v.799ZM80.306.707 67.111 34.752h8.755L89.066.707h-8.76Zm79.062 45.688c-7.106 7.994-15.438 14.6-24.737 19.07-9.268 4.504-19.413 6.848-29.604 6.84-10.192-.007-20.33-2.363-29.586-6.876-9.285-4.48-17.6-11.087-24.688-19.08l-2.512 6.482c5.728 8.544 13.563 15.832 22.69 21.075C81.174 79.81 93.104 83 105.026 82.977c11.921.008 23.843-3.195 34.077-9.106 9.148-5.27 16.99-12.596 22.706-21.177l-2.442-6.297v-.002Z" fill="#333"/></g><defs><clipPath id="a"><path fill="#fff" transform="translate(.151)" d="M0 0h213.697v83H0z"/></clipPath></defs></svg>