<svg width="236" height="43" fill="none" xmlns="http://www.w3.org/2000/svg"><g clip-path="url(#a)"><mask id="b" style="mask-type:luminance" maskUnits="userSpaceOnUse" x="2" y="0" width="70" height="42"><path d="m71.114 3.65-7.57 7.005c-7.189-2.918-30.443-2.758-32.952 11.07C29.61 39.83 55.798 31.15 57.33 30.69l5.273 7.606c.495-.107-24.667 5.382-42.632 2.712C9.905 39.51.811 33.524 2.638 23.406 7.105-1.21 59.098-1.703 71.114 3.65Z" fill="#fff"/></mask><g mask="url(#b)"><path d="m71.114 3.65-7.57 7.005c-7.189-2.918-30.443-2.758-32.952 11.07C29.61 39.83 55.798 31.15 57.33 30.69l5.273 7.606c.495-.107-24.667 5.382-42.632 2.712C9.905 39.51.811 33.524 2.638 23.406 7.105-1.21 59.098-1.703 71.114 3.65Z" fill="#333"/></g><mask id="c" style="mask-type:luminance" maskUnits="userSpaceOnUse" x="65" y="12" width="50" height="30"><path d="m75.133 13.307 19.089.016-1.355 3.707h.796c.396-.937 7.817-7.74 21.04-2.291-2.853 2.865-5.994 5.27-8.85 8.134-14.76-.706-15.676-1.48-21.05 18.087l-19.41.048 9.74-27.7Z" fill="#fff"/></mask><g mask="url(#c)"><path d="m75.133 13.307 19.089.016-1.355 3.707h.796c.396-.937 7.817-7.74 21.04-2.291-2.853 2.865-5.994 5.27-8.85 8.134-14.76-.706-15.676-1.48-21.05 18.087l-19.41.048 9.74-27.7Z" fill="#333"/></g><mask id="d" style="mask-type:luminance" maskUnits="userSpaceOnUse" x="106" y="12" width="53" height="30"><path d="M126.74 23.634c2.394-7.722 16.078-8.09 15.923-4.38-.239 5.749-15.923 4.38-15.923 4.38Zm31.626-3.916C157.502 6 100.003 12.587 106.903 32.91c5.684 16.744 45.138 4.597 46.319 4.279l-4.18-4.407s-23.557 6.664-22.97-3.664c5.971-.377 32.669-1.161 32.294-9.401Z" fill="#fff"/></mask><g mask="url(#d)"><path d="M126.74 23.634c2.394-7.722 16.078-8.09 15.923-4.38-.239 5.749-15.923 4.38-15.923 4.38Zm31.626-3.916C157.502 6 100.003 12.587 106.903 32.91c5.684 16.744 45.138 4.597 46.319 4.279l-4.18-4.407s-23.557 6.664-22.97-3.664c5.971-.377 32.669-1.161 32.294-9.401Z" fill="#333"/></g><mask id="e" style="mask-type:luminance" maskUnits="userSpaceOnUse" x="153" y="12" width="46" height="30"><path d="M162.009 21.539c-1.275-11.95 36.507-8.198 36.507-8.198l-1.86 5.243s-14.491-.904-15.597 1.03c-2.838 4.963 13.657 7.393 12.413 15.143-.847 5.288-12.33 6.9-19.281 6.895-10.046-.002-20.909-1.636-20.909-1.636l4.344-5.936c-1.655-.583 14.095 5.085 16.533-.098 1.617-3.447-11.502-6.366-12.15-12.443Z" fill="#fff"/></mask><g mask="url(#e)"><path d="M162.009 21.539c-1.275-11.95 36.507-8.198 36.507-8.198l-1.86 5.243s-14.491-.904-15.597 1.03c-2.838 4.963 13.657 7.393 12.413 15.143-.847 5.288-12.33 6.9-19.281 6.895-10.046-.002-20.909-1.636-20.909-1.636l4.344-5.936c-1.655-.583 14.095 5.085 16.533-.098 1.617-3.447-11.502-6.366-12.15-12.443Z" fill="#333"/></g><mask id="f" style="mask-type:luminance" maskUnits="userSpaceOnUse" x="198" y="6" width="36" height="37"><path d="M224.287 18.525h7.328l1.983-5.12-7.74.006 2.513-6.741-18.984-.02-2.52 6.754-6.931.013-1.856 5.113 7.074-.005c-3.852 8.294-9.378 19.688-1.651 22.632 6.565 2.505 20.877-.783 20.877-.783l2.586-5.466c-1.988.809-6.305 1.232-6.963-.392-1.653-3.602 2.817-12.728 2.817-12.728l1.467-3.263Z" fill="#fff"/></mask><g mask="url(#f)"><path d="M224.287 18.525h7.328l1.983-5.12-7.74.006 2.513-6.741-18.984-.02-2.52 6.754-6.931.013-1.856 5.113 7.074-.005c-3.852 8.294-9.378 19.688-1.651 22.632 6.565 2.505 20.877-.783 20.877-.783l2.586-5.466c-1.988.809-6.305 1.232-6.963-.392-1.653-3.602 2.817-12.728 2.817-12.728l1.467-3.263Z" fill="#333"/></g></g><defs><clipPath id="a"><path fill="#fff" transform="translate(0 .474)" d="M0 0h236v42.053H0z"/></clipPath></defs></svg>