<svg width="58" height="67" viewBox="0 0 58 67" fill="none" xmlns="http://www.w3.org/2000/svg">
<path d="M57.0555 13.0314C56.8378 11.9259 55.5815 11.7417 55.0455 12.7132C54.6168 14.0918 54.378 15.6138 54.1405 17.1268C53.9048 18.6287 53.6705 20.1216 53.2533 21.4567C52.9015 22.5789 51.8965 23.2154 50.8078 22.5119L57.0555 13.0314ZM57.0555 13.0314C56.7855 14.2225 56.5812 15.4995 56.3754 16.7867C56.0833 18.6128 55.788 20.4593 55.2968 22.1099C54.4593 24.9239 52.5498 25.5604 50.322 24.6559C49.5946 24.3606 48.7672 23.4723 47.8823 22.5223C46.0572 20.5631 43.9878 18.3415 42.0475 20.5187C39.6233 23.2389 38.8476 24.8206 38.2534 26.0321C38.1414 26.2604 38.0359 26.4755 37.927 26.6827L57.0555 13.0314ZM31.384 1.14121L31.2672 1.13042L31.2491 1.14852C30.6449 1.10134 29.9059 1.06165 28.9409 1.15814C27.8989 1.26234 26.3476 1.77618 25.4036 2.16389L25.4026 2.16431C20.7496 4.0991 15.999 6.59887 11.3758 9.03165C9.46381 10.0378 7.5736 11.0324 5.72107 11.9709L5.69799 11.9826L5.67779 11.9987C0.450543 16.184 0.0115196 23.067 3.2773 28.6183C3.45138 31.1207 3.36398 33.7699 3.27501 36.4667C3.23553 37.6636 3.19573 38.8699 3.17835 40.077C3.12175 44.0079 3.30473 47.9272 4.54303 51.4385L4.77879 51.3554L4.54303 51.4386C12.2721 73.3546 45.163 69.3631 46.5349 44.7196C46.7861 40.215 47.0217 34.0203 46.6687 29.5296C46.6167 28.6859 46.3725 27.746 45.5518 27.2109C45.4816 27.1644 45.3042 27.0771 45.1576 27.0088C45.0795 26.9724 45.0014 26.9374 44.9383 26.911C44.9071 26.898 44.877 26.886 44.8512 26.8768C44.8386 26.8723 44.8239 26.8674 44.8091 26.8633L44.8082 26.8631C44.7995 26.8606 44.7664 26.8514 44.7275 26.8514H38.1188C38.1291 26.8346 38.1396 26.8163 38.1494 26.7969C38.2591 26.5882 38.3649 26.3724 38.4769 26.1441C39.0693 24.9363 39.8328 23.3795 42.2342 20.685C42.5731 20.3047 42.9041 20.0804 43.2229 19.9666C43.5399 19.8535 43.86 19.8443 44.1877 19.918C44.856 20.0683 45.5503 20.5616 46.2598 21.2192C46.749 21.6726 47.2246 22.1832 47.6917 22.6846C47.9007 22.909 48.108 23.1316 48.3141 23.3463C48.9631 24.0229 49.6137 24.6381 50.228 24.8875C51.3804 25.3554 52.4911 25.4409 53.4357 25.0043C54.3825 24.5665 55.1049 23.631 55.5364 22.1812C55.9602 20.7574 56.2386 19.1939 56.492 17.6359C56.5361 17.3646 56.5795 17.0936 56.6227 16.8234C56.8285 15.5365 57.0312 14.2692 57.2994 13.0867L57.3111 13.035L57.3008 12.9831C57.1735 12.3366 56.7295 11.9266 56.2079 11.8463C55.6873 11.7662 55.1409 12.0228 54.8266 12.5924L54.8144 12.6146L54.8068 12.6389C54.3733 14.033 54.1322 15.5675 53.8962 17.0713L53.8952 17.0772C53.6583 18.5869 53.4263 20.0647 53.0147 21.3821C52.8538 21.8953 52.5518 22.2704 52.1969 22.4445C51.8533 22.6129 51.423 22.6118 50.9435 22.3019L50.9422 22.3011C50.2609 21.8669 49.5855 21.0982 48.8593 20.2716C48.8129 20.2189 48.7663 20.1659 48.7196 20.1127C47.9572 19.2465 47.1382 18.3403 46.2399 17.8383C44.9358 17.1079 43.7859 16.984 42.7595 17.2883C41.7436 17.5896 40.8847 18.3001 40.1333 19.1678C39.3813 20.0363 38.7185 21.0844 38.1033 22.0879C38.0286 22.2097 37.9547 22.3309 37.8814 22.4509C37.3712 23.2866 36.8928 24.0701 36.4115 24.6948C35.5013 21.2512 33.0406 18.8562 29.9888 17.2763L40.6656 12.1175L40.6906 12.1054L40.7124 12.0881C41.4091 11.5343 41.7123 10.9558 41.7342 10.3139C41.7552 9.69767 41.5132 9.05914 41.2215 8.39227C39.5457 4.52825 35.6509 1.53534 31.384 1.14121ZM8.40644 13.3138L8.40721 13.3133C11.1562 11.6806 14.2248 10.3044 17.3232 8.93221C17.4614 8.87102 17.5996 8.80984 17.7378 8.74864C20.6901 7.44189 23.6572 6.12862 26.3623 4.59664C31.6908 2.38311 36.9463 4.82278 39.0662 10.0262L5.15881 26.3599C5.07453 26.1613 4.98895 25.9649 4.90393 25.7698C4.47927 24.7953 4.06847 23.8527 3.90339 22.824L3.90331 22.8236C3.28375 19.0084 5.10944 15.2561 8.40644 13.3138ZM13.0032 26.8179H10.5233L13.1894 25.5013L13.0477 26.7645L13.0032 26.8179ZM19.9938 58.0042C20.7636 58.4176 21.6456 58.4696 22.6133 57.9769L25.6843 50.0593C25.6996 50.1755 25.7168 50.3099 25.7362 50.4651C25.8006 50.9801 25.7941 51.6345 25.7809 52.3613C25.78 52.414 25.779 52.467 25.778 52.5204C25.7654 53.195 25.752 53.9182 25.7934 54.6093C25.838 55.3536 25.947 56.082 26.2012 56.6901C26.4578 57.304 26.8684 57.8077 27.5153 58.0694C28.1229 58.3151 28.6797 58.3726 29.1886 58.2798C29.6962 58.1873 30.1387 57.9484 30.5242 57.6278C31.2879 56.9929 31.8515 56.0172 32.2886 55.1346L32.2888 55.1342C33.5173 52.643 33.888 49.7873 34.1226 47.089L34.1226 47.0887C34.146 46.8165 34.1353 46.5086 34.1255 46.2234C34.124 46.1818 34.1226 46.1408 34.1213 46.1004C34.1192 46.0341 34.1174 45.9696 34.1163 45.9073C34.1527 45.8425 34.1926 45.7662 34.2366 45.6783C34.4491 45.2536 34.7954 44.4747 35.3442 43.1426C37.6208 37.6162 32.6631 32.1273 26.9198 33.423C26.5998 33.4894 26.148 33.6973 25.7737 33.8722C25.7426 33.8868 25.7118 33.9012 25.6815 33.9153C25.5224 33.9899 25.3768 34.0581 25.253 34.1114C25.1796 34.1431 25.1182 34.1676 25.0695 34.1843C25.0464 34.1922 25.0295 34.1972 25.0178 34.2003C25.0129 34.1987 25.0073 34.1969 25.0008 34.1947C24.9639 34.1821 24.9136 34.1629 24.8513 34.1376C24.7273 34.0873 24.5692 34.0185 24.4011 33.945C24.3779 33.9348 24.3544 33.9245 24.3307 33.9142C24.0234 33.7796 23.6834 33.6307 23.5104 33.5787C17.2468 31.6927 11.7834 38.0328 14.9099 43.8689L14.9102 43.8694C15.0156 44.0652 15.1249 44.1772 15.2363 44.2593C15.2756 44.2883 15.3166 44.3143 15.3477 44.3341C15.3556 44.3391 15.3629 44.3437 15.3693 44.3478C15.4048 44.3708 15.4293 44.3882 15.4513 44.4083C15.5307 44.4811 15.6617 44.6655 15.7875 45.5128C15.8912 46.2109 15.9073 46.8102 15.9251 47.4694C15.9283 47.5917 15.9317 47.7161 15.9357 47.8436C15.961 48.6567 16.0119 49.5746 16.2411 50.8307C16.4701 52.0858 17.0846 54.3168 18.1048 56.013C18.6143 56.86 19.2402 57.5995 19.9938 58.0042ZM28.696 55.6374C28.6485 55.6362 28.5819 55.6215 28.4915 55.5735L28.4672 55.5457C28.4443 55.5196 28.4076 55.4377 28.4018 55.1846C28.3972 54.9839 28.4112 54.7254 28.4296 54.3847C28.4332 54.3184 28.4369 54.2489 28.4408 54.1762C28.4871 53.2927 28.5379 51.9945 28.3774 50.1445C28.0312 46.1549 21.8383 45.9199 21.4806 50.5151C21.4562 50.8261 21.47 51.5255 21.4853 52.3033C21.4918 52.6313 21.4986 52.9732 21.5028 53.3058C21.5102 53.8747 21.5106 54.4224 21.4918 54.8482C21.4824 55.0617 21.4684 55.2387 21.4492 55.3698C21.4396 55.4356 21.4294 55.4844 21.4198 55.518C21.4153 55.5336 21.4118 55.5426 21.4102 55.5466C21.3593 55.6115 21.3238 55.6217 21.3085 55.6241C21.2882 55.6273 21.247 55.625 21.1762 55.5853C21.0261 55.501 20.843 55.305 20.6506 55.0323C20.274 54.4987 19.9471 53.7971 19.8491 53.5684L19.8491 53.5684L19.8474 53.5646C18.841 51.3195 18.7274 49.4554 18.5946 47.276C18.558 46.6752 18.52 46.0504 18.4613 45.3871L18.4613 45.3869C18.4164 44.8844 18.2945 44.5635 18.1162 44.3094C18.0298 44.1863 17.9346 44.0853 17.8429 43.9937C17.8143 43.965 17.7867 43.938 17.7597 43.9115C17.6966 43.8496 17.6366 43.7907 17.5735 43.722C17.2456 43.3651 16.8592 42.769 16.7027 40.8827C16.4008 37.2437 19.9039 34.8215 23.257 36.2426L23.2594 36.2435C23.4558 36.3244 23.6581 36.452 23.8792 36.5915C23.9511 36.6369 24.025 36.6835 24.1014 36.7302C24.2496 36.8209 24.4053 36.9099 24.5598 36.9752C24.713 37.0399 24.8823 37.0889 25.0549 37.083C25.2299 37.0769 25.4097 37.0088 25.5721 36.9295C25.7387 36.8482 25.9141 36.7413 26.084 36.6343C26.1281 36.6066 26.1716 36.5789 26.2147 36.5516C26.5184 36.3591 26.7968 36.1826 27.0382 36.0976C30.7432 34.8209 34.3759 38.318 32.954 42.0015C32.8084 42.3682 32.5987 42.6829 32.3724 43.0225C32.3179 43.1043 32.2625 43.1875 32.2067 43.2733C31.9257 43.7055 31.6509 44.1847 31.55 44.798C31.4542 45.3558 31.4377 45.9897 31.4293 46.6096C31.4283 46.6877 31.4273 46.7656 31.4264 46.8431C31.42 47.3894 31.4137 47.9193 31.3636 48.3981L31.3636 48.399C31.1475 50.5432 30.5002 53.226 29.3273 54.9854C29.3026 55.0225 29.279 55.0584 29.2562 55.0931C29.1971 55.183 29.1429 55.2656 29.0856 55.3433C29.0071 55.45 28.9375 55.5266 28.8706 55.5756C28.8082 55.6212 28.7538 55.6388 28.696 55.6374ZM26.706 18.9365C30.5598 19.6518 33.7098 22.9095 34.2136 26.8179H30.4466C30.3558 26.6195 30.2815 26.4215 30.2043 26.2156C30.175 26.1374 30.1452 26.058 30.114 25.977C29.9841 25.6406 29.833 25.2913 29.5892 24.9478C26.8066 20.94 20.6157 22.1435 19.5022 26.8179H15.6977C15.7879 25.7285 16.1648 24.6133 16.7431 23.6949L26.706 18.9365ZM27.6009 26.8179H22.3339C23.3622 24.6294 26.526 24.628 27.6009 26.8179ZM5.90176 29.4452H43.8913V45.9138C41.2343 68.4978 9.13852 68.7825 6.03366 46.2788L5.90176 29.4452Z" fill="#115556" stroke="#115556" stroke-width="0.5"/>
</svg>
