<svg width="264" height="49" fill="none" xmlns="http://www.w3.org/2000/svg"><g clip-path="url(#a)" fill="#000"><path d="m101.829 1.91-28.762-.008v10.534h7.447l-.022 34.885h13.436l-.007-34.864 7.923-.014-.015-10.533ZM24.748 1.907l-.045 45.39 13.12.022-.008-45.441-13.067.03ZM188.367 1.907l-.022 45.39 12.145.015-.015-20.333 10.34 20.34 14.804-.007.008-45.427-13.143.015v22.63L200.905 1.877l-12.538.03ZM.154 1.913l-.02 45.383h23.088l.007-9.59H12.152l.007-35.793H.154ZM229.38 1.9l-.007 45.426h27.969l.022-10.395-14.305.007-.008-7.204 11.813-.007.008-10.453-11.813.007-.008-6.826 14.313-.007V1.893L229.38 1.9ZM103.675 1.9l-.008 45.426h28.015l-.023-10.395-14.305.007-.008-7.204 11.843-.022V19.282h-11.835l-.008-6.826 14.313-.007V1.893l-27.984.007ZM162.22 28.478c4.547-2.392 7.613-7.131 7.613-12.474 0-7.67-6.465-14.11-14.441-14.11l-21.821.015-.045 45.411 13.006.008v-22.95s10.71 22.346 10.809 22.95h27.289l-.008-45.434-13.006-.007-.023 44.59-9.373-17.999Zm-10.491-15.65c2.794 0 5.06 2.26 5.06 4.942 0 2.697-2.213 4.95-5.007 4.95v.008l-5.25-.022-.023-9.886 5.197.022.023-.015Z"/><path d="m39.942 32.737 11.995-.007-.015 1.861c0 3.031 2.968 4.507 5 4.507 3.066 0 4.894-1.934 4.894-4.507 0-3.65-3.376-4.122-6.979-5.307-4.857-1.592-7.462-3.045-10.333-5.437-2.787-2.319-4.494-5.765-4.494-10.272C40.01 5.98 47.76.39 56.907.39c8.837 0 16.828 5.902 16.745 13.186l.015 1.861-11.994-.007.06-1.846c-.113-2.341-2.205-3.919-4.902-3.919-3.021 0-4.275 1.847-4.275 3.962 0 3.14 2.372 3.831 5.272 4.63 3.437.968 7.908 2.785 11.179 4.835 4.139 2.588 5.876 6.571 5.876 11.093 0 8.287-8.286 14.611-18.437 14.611-9.766 0-16.556-6.091-16.556-14.19l.052-1.868ZM261.988 6.019c-.514-.473-.668-.723-1.293-1.557l.073-.125c.317.036.471 0 .471 0 .325-.04.548-.254.531-.53-.013-.264-.236-.478-.531-.536-.154-.036-.159-.027-.527-.027V5.56c0 .147-.009.281.098.477h-.646c.09-.196.09-.33.09-.477V3.436c0-.151 0-.294-.09-.49h.625c.261 0 .814-.045 1.143.214.056.03.3.245.3.637 0 .442-.407.803-.912.834.33.46.775.928 1.486 1.419l-.818-.031Zm-.668-3.68c-1.225 0-2.214.99-2.214 2.226 0 1.226.989 2.212 2.214 2.212a2.216 2.216 0 0 0 2.209-2.212 2.222 2.222 0 0 0-2.209-2.226Zm0 4.812c-1.473 0-2.659-1.16-2.659-2.586 0-1.423 1.186-2.583 2.659-2.583 1.451 0 2.637 1.16 2.637 2.583 0 1.427-1.186 2.586-2.637 2.586Z"/></g><defs><clipPath id="a"><path fill="#fff" transform="translate(0 .111)" d="M0 0h264v48.777H0z"/></clipPath></defs></svg>