<svg fill="none" height="63" viewBox="0 0 63 63" width="63" xmlns="http://www.w3.org/2000/svg"><g fill="#115556" stroke="#115556" stroke-width=".25"><path d="m34.4237 18.5545c-.0831.082-.1991.2002-.2988.3487-.1022.1523-.1908.3414-.2088.5628-.0182.2234.0365.4689.2034.7298l.0073.0115.0096.0096 4.6761 4.6761c-.3807.3297-.7492.7379-1.1116 1.1394-.0301.0333-.0601.0665-.0901.0996-.4285.474-.8495.929-1.2866 1.2511-.8556.63-1.9278 1.1607-3.0208 1.6973l-.0665.0327c-1.0666.5236-2.1486 1.0547-3.0378 1.6865l-.0085.0061-.0075.0074-23.93996 23.94-.00013-.0001-.00466.0052c-1.24073 1.3876-1.05648 3.0372-.16298 4.0748.89393 1.0381 2.49192 1.4569 4.04303.4119l.01-.0067.0086-.0086 23.9595-23.991 6.3011-3.5827.0147-.0083.0119-.012 14.1435-14.1593.0004.0004.0069-.0083c1.5453-1.8412.2839-4.7828-2.1049-4.8987-.2677-.0161-.5111.0414-.7325.0937-.0111.0026-.0223.0053-.0334.0079-.2228.0524-.4246.0959-.6379.0764-.7233-.6231-1.4124-1.3704-2.1063-2.123l-.0667-.0723c-.7235-.78447-1.4537-1.57051-2.2252-2.20683l-.0001-.00009c-.3177-.26138-.5884-.41591-.8349-.47821-.252-.06372-.4702-.02882-.6737.07066-.1976.09666-.3798.25372-.5657.42852-.0545.05128-.1095.10417-.1657.1583-.0836.08045-.17.16364-.2622.24837-.1896-1.53791-.9524-2.6827-2.0291-3.47923-1.1361-.8405-2.6172-1.29062-4.1372-1.41795l-.0003-.00002c-.5995-.04894-.9803.09414-1.1806.40977-.19.29939-.1891.71676-.1369 1.14167.0267.21655.0681.44417.1111.6714.0066.03509.0133.07016.0199.1052.0368.19313.0733.38516.1027.57329.0699.44841.0941.84864-.0055 1.15218-.0578.16563-.2015.36056-.433.60354-.2282.2394-.5282.51236-.8853.83716l-.0078.00709c-.7189.65388-1.6535 1.50518-2.6358 2.66968-.9979 1.183-1.3632 2.5884-1.0856 3.8211.2677 1.1888 1.1298 2.2007 2.5613 2.6865zm6.6754-11.39319.2122.20662v-.00754c.7035.76029.9119 1.52414.8105 2.27695-.1122.83376-.6068 1.67346-1.2858 2.49516-.6778.8201-1.5274 1.6085-2.3319 2.3416-.0647.059-.1291.1176-.1931.1758-.7179.6532-1.3879 1.2627-1.8329 1.801-.9075.3932-1.7484.1152-2.2157-.4553-.4707-.5747-.5733-1.4603.0471-2.2974.3193-.4309.7577-.8652 1.2459-1.314.1882-.1731.3847-.3491.584-.5276.313-.2803.6327-.5667.9377-.8572.9974-.9503 1.897-1.99807 2.0284-3.20537l.0001-.00044c.0567-.53861-.0106-1.01691-.0804-1.5126-.0022-.0156-.0044-.03121-.0066-.04684.7517.14775 1.5505.41115 2.0805.92716zm7.2364 8.17689-3.8685-3.7632 1.184-1.184 3.7904 3.8208c-.0012.0021-.0025.0044-.0039.0067-.0216.0365-.0567.0838-.1045.1406-.095.1129-.2286.2497-.3727.3898-.1361.1324-.2789.2653-.4033.3812l-.0202.0188c-.0759.0706-.1456.1357-.2013.1893zm-6.4562-1.0558 1.0675-1.1485 3.8053 3.7289c-.0013.0127-.0051.0295-.0135.0512-.016.0421-.0454.0932-.0886.1525-.0866.1187-.2157.2527-.3603.3905-.0943.0898-.1915.1778-.2852.2628-.0504.0456-.0999.0904-.1474.1341-.0812.0748-.1588.1481-.2213.2151zm10.3456.4332c.2915-.0269.5861.1666.7543.4572.1767.3052.1852.6665-.0677.9129l-.0011.0012-13.8955 13.8955-6.3486 3.6457-.0144.0083-.0118.0117-23.81224 23.8123c-.00026.0003-.00052.0005-.00077.0008-.36843.3539-.79142.305-1.06586.071-.27465-.2342-.40476-.658-.164-1.0863l23.93177-23.9004 5.9386-3.3463.0145-.0082.0118-.0116zm-8.1144 4.8781-1.0664 1.0528-3.8685-3.7632 1.0663-1.0528zm-3.7782 3.7715-3.7613-3.7913 1.0593-1.1544 3.7612 3.7914z"/><path d="m18.0543 3.04359-.2232.04892.0394.03945c-.2586.13424-.4295.39539-.5722.67597-.0669.13152-.1311.27481-.1958.41926-.0216.04837-.0434.09687-.0653.1451-.0883.19462-.1814.389-.2917.57151-.4491.74335-1.2574 1.62856-1.7945 2.02755-.1162.08628-.2805.14172-.4873.19342-.0628.01569-.13.03112-.1997.04714-.1503.03453-.3127.07182-.4687.1204-.4705.14651-.9431.41188-1.1569 1.08767-.1077.34012-.0745.62605.0572.8649.1288.23362.3447.4091.5789.54816.2347.1394.4995.24886.7365.34416.02.0081.0398.016.0593.0238.2171.0871.4011.1609.5283.2379.5837.3533 1.1869.9095 1.6358 1.4822.0995.1269.1776.3177.2585.557.0245.0721.0491.1488.0747.2281.0563.175.1169.3632.1882.5456.2091.5349.5317 1.08 1.2088 1.2943.3411.108.6292.0722.8719-.0641.237-.1331.4186-.3554.5661-.5986.1479-.2438.2688-.5208.3778-.7735l.0096-.0222c.1072-.2485.2016-.4673.3022-.6254.4326-.6798 1.1607-1.4694 1.947-1.9782.1897-.1227.4366-.2278.7041-.3398l.0268-.0112c.2548-.1067.5251-.2198.7556-.35728.238-.14199.4503-.31941.5595-.5611.1117-.24726.1057-.53877-.0459-.88481-.0608-.14587-.1777-.25715-.3152-.34918-.138-.09236-.3084-.17287-.4902-.25192-.0713-.031-.1447-.06195-.2196-.09355-.3138-.13232-.6541-.27583-.976-.48011-.7983-.5066-1.5578-1.3881-2.0237-2.14898-.1109-.18122-.2074-.39968-.31-.63201l-.0053-.01202c-.103-.23314-.2122-.47886-.3444-.69313-.1324-.21441-.2941-.40795-.5082-.52917-.218-.12337-.4783-.16509-.7924-.09625zm-2.0111 5.70938c.9609-.54542 1.7526-1.41868 2.2811-2.36561l.0834-.0278c.4768 1.00785 1.3506 1.80159 2.2459 2.39896l.0315.09462c-.9632.52137-1.7536 1.43826-2.2799 2.36776l-.0838.0279c-.4768-1.0078-1.3506-1.80157-2.2459-2.39894z"/><path d="m22.931 18.1086v-.0243l-.1508.0318c-.1926.0405-.3594.1868-.5027.3611-.1461.1777-.2839.4049-.4137.6398-.0785.142-.1566.2916-.2324.4368-.0487.0933-.0965.1848-.1427.2712-.1209.2257-.2336.4208-.3404.557l-.0003.0004c-.2144.2758-.4273.5198-.9375.9064-.1066.0807-.241.1226-.4055.1551-.0521.0103-.1093.0199-.1693.03-.1179.0198-.2464.0413-.3663.0733-.1893.0504-.3829.1316-.556.2892s-.3172.3839-.4209.7113c-.1059.3347-.089.6087.0258.8368.1125.2237.3104.3851.5297.5152.1878.1115.4034.2067.6116.2986.0341.0151.0681.0301.1017.045.2426.108.4688.2152.6493.3476.0606.0471.1135.0842.1617.118.0099.007.0197.0139.0293.0207.0565.0399.1093.0785.1707.1317.1235.1069.2873.2773.577.6374.1384.1721.2718.3971.4098.6446.0354.0634.0711.1284.1072.1941.1028.187.2086.3796.3186.5582.1486.2413.3112.4683.4964.6336.1867.1666.4049.2778.66.2684.5002-.0186.8138-.4311 1.0498-.8579.0931-.1683.1794-.3491.2621-.5225.0242-.0507.0481-.1008.0718-.1497.1061-.2192.2078-.416.318-.5671.0471-.0606.0842-.1134.118-.1615.007-.01.0139-.0198.0206-.0294.0399-.0565.0786-.1093.1317-.1707.107-.1235.2774-.2873.6375-.577.1711-.1376.3883-.2619.6245-.3865.0702-.037.1424-.0742.2152-.1118.168-.0866.3394-.1749.4973-.2667.227-.132.4405-.279.5945-.4549.1567-.1789.2552-.3918.2412-.6483-.0275-.5054-.4085-.7905-.8113-.9999-.1477-.0767-.3069-.1476-.4611-.2161-.0574-.0256-.1142-.0508-.1694-.0759-.2068-.0941-.3949-.1879-.545-.2974-.0693-.0538-.1249-.0902-.1741-.1224-.0039-.0026-.0077-.0051-.0115-.0075-.0518-.034-.0975-.0647-.1537-.112-.1142-.0961-.2772-.2652-.5993-.6658-.1523-.1896-.2851-.4339-.4195-.6994-.0272-.0538-.0545-.1086-.082-.1638-.1063-.2127-.2157-.4321-.3356-.6295-.1511-.2488-.327-.4774-.5511-.6262-.1932-.1282-.417-.1936-.6789-.1691zm1.6193 4.7973-1.4348 1.5192-1.5184-1.4199 1.4348-1.5193z"/><path d="m26.5545 10.5847h-.0124l-.0121.0025c-.1984.0397-.3565.1712-.4887.3331-.1325.1622-.2506.3692-.3649.583-.0326.061-.065.1226-.0974.1843-.2003.3812-.4016.7644-.6711 1.0274-.1533.1497-.3493.2752-.5642.3944-.0994.0551-.201.108-.3034.1612-.0079.0041-.0159.0083-.0239.0124-.1097.0571-.2201.1149-.3253.1748-.4111.234-.8017.5323-.7737 1.0544.0277.5159.4331.7971.8496 1.0191.1008.0537.2057.1056.3095.157l.0171.0085c.11.0545.2189.1086.3245.1656.2118.1144.4031.2366.5517.3852.1498.1498.283.35.4145.5741.0579.0988.1145.2005.1718.3034.0074.0133.0148.0266.0222.0399.0646.1159.1302.2327.1979.3446.263.4344.5927.8564 1.1135.8378.5178-.0185.828-.4547 1.077-.8963.0621-.1101.1224-.2245.182-.3376l.0056-.0108c.0618-.1172.1229-.2329.1863-.3445.1273-.2242.2591-.4236.4117-.5725.1533-.1497.3494-.2751.5642-.3943.0994-.0552.201-.108.3034-.1613.008-.0041.0159-.0082.0239-.0124.1097-.0571.2201-.1148.3253-.1747.4111-.2341.8017-.5324.7737-1.0544-.0277-.517-.4227-.7782-.8333-.9903-.0869-.045-.1731-.087-.2592-.129-.1284-.0627-.2567-.1252-.3872-.1972-.2126-.1173-.41-.2489-.5708-.417-.1603-.1677-.2915-.3886-.4188-.6323-.0393-.0752-.0786-.1534-.1184-.2324-.0856-.1703-.1731-.3444-.2668-.501-.1384-.2313-.3018-.4459-.5199-.5829-.2205-.1384-.4856-.1907-.8115-.1218zm-.3433 3.9264.6055-.6796.6796.6054-.6055.6796z"/></g></svg>