<svg width="144" height="49" fill="none" xmlns="http://www.w3.org/2000/svg"><g clip-path="url(#a)"><path fill-rule="evenodd" clip-rule="evenodd" d="M44.407 21.325c-.066 6.573-3.945 17.302-15.85 17.257-8.877 0-12.577-5.82-12.638-12.253-.055-9.35 5.935-17.373 15.852-17.35 8.676.022 12.705 5.637 12.636 12.346ZM24.57 26.798c.004 2.907 1.448 4.818 4.337 4.82 5.193 0 6.727-7.607 6.738-10.733.004-2.55-1.455-4.785-4.39-4.787-3.589-.002-6.69 3.812-6.685 10.7Zm42.94-2.627H56.926c-1.571 0-3.594.801-4.436 4.961l-1.824 8.847h-7.74l4.199-20.305h6.702v2.088c.97-1.08 3.014-3.636 7.102-2.36l-.84 4.083c2.467-3.612 6.1-4.365 10.27-4.38 5.312-.013 10.58 2.174 9.524 7.313l-2.226 10.721c-.308 1.464-.016 2.075.308 2.83H69.57v-1.302c-4.867 3.64-12.5 1.97-12.492-4.275.016-5.173 4.941-6.306 6.087-6.521 5.335-1.006 8.992-.903 9.339-2.454.431-1.915-4.623-2.102-4.993.753Zm-2.694 7.544c0 2.457 5.1 2.58 6.374-3.046-3.058.964-6.377 1.154-6.374 3.046ZM93.367 9.78l-5.863 28.2H79.59l5.858-28.2h7.918Zm28.58 13.738c3.23-1.82 4.351-4.112 4.357-7.213-.041-7.126-7.912-6.517-11.347-6.517h-10.636l-2.234 10.804-6.506-.001-1.153 5.517h6.518l-2.454 11.87h15.636c8.886 0 10.747-6.362 10.751-8.813.005-3.289-1.317-4.328-2.932-5.647Zm-7.607 7.259h-6.081l.971-4.668 5.924.002c2.677.001 2.347 4.666-.814 4.666Zm1.339-10.184h-5.306l.868-4.197h5.172c3.24 0 2.611 4.197-.734 4.197Z" fill="#000"/><path d="M116.483 45.114c5.654 0 10.968-2.196 14.964-6.185a20.943 20.943 0 0 0 6.2-14.928c0-5.639-2.202-10.941-6.2-14.93a21.053 21.053 0 0 0-14.964-6.184H27.516c-11.67 0-21.164 9.472-21.164 21.114 0 5.64 2.203 10.942 6.2 14.928a21.053 21.053 0 0 0 14.964 6.185h88.967Z" stroke="#000" stroke-width="2.483" stroke-miterlimit="2.613"/></g><defs><clipPath id="a"><path fill="#fff" transform="translate(0 -48)" d="M0 0h144v144H0z"/></clipPath></defs></svg>