<svg width="347" height="117" fill="none" xmlns="http://www.w3.org/2000/svg"><path fill-rule="evenodd" clip-rule="evenodd" d="M102.307 51.587c-.17 16.981-10.19 44.697-40.943 44.58-22.933 0-32.493-15.035-32.65-31.654-.14-24.152 15.331-44.88 40.95-44.82 22.415.056 32.823 14.564 32.643 31.894ZM51.064 65.725c.012 7.51 3.74 12.446 11.205 12.45 13.415 0 17.38-19.648 17.406-27.725.012-6.586-3.757-12.36-11.338-12.365-9.273-.007-17.284 9.847-17.273 27.64Zm110.931-6.787h-27.349c-4.058 0-9.284 2.07-11.459 12.818l-4.713 22.854H98.478l10.848-52.454h17.315v5.394c2.503-2.791 7.785-9.393 18.346-6.095L142.816 52c6.374-9.331 15.761-11.276 26.53-11.317 13.724-.03 27.335 5.618 24.606 18.894l-5.751 27.698c-.795 3.78-.04 5.36.795 7.308h-21.68v-3.362c-12.575 9.405-32.293 5.09-32.272-11.044.042-13.363 12.764-16.29 15.725-16.847 13.781-2.597 23.23-2.333 24.126-6.34 1.113-4.946-11.943-5.428-12.9 1.948Zm-6.961 19.49c0 6.347 13.175 6.664 16.466-7.87-7.899 2.491-16.474 2.982-16.466 7.87Zm73.753-56.666L213.641 94.61H193.2l15.134-72.848h20.453Zm73.832 35.491c8.345-4.703 11.24-10.624 11.255-18.633-.106-18.41-20.437-16.836-29.311-16.836h-27.478l-5.77 27.91-16.808-.004-2.978 14.254h16.839l-6.34 30.664h40.393c22.956 0 27.762-16.435 27.773-22.767.014-8.497-3.402-11.181-7.575-14.588Zm-19.652 18.751H267.26l2.507-12.058 15.304.004c6.916.004 6.063 12.054-2.104 12.054Zm3.46-26.308h-13.706l2.243-10.843h13.359c8.371 0 6.746 10.843-1.896 10.843Z" fill="#fff"/><path d="M288.504 113.043c14.606 0 28.335-5.672 38.658-15.978 10.329-10.298 16.016-23.996 16.016-38.563 0-14.567-5.687-28.266-16.016-38.57-10.325-10.3-24.056-15.975-38.658-15.975H58.674C28.527 3.957 4 28.427 4 58.502 4 73.07 9.69 86.767 20.014 97.065c10.327 10.302 24.058 15.978 38.66 15.978h229.83Z" stroke="#fff" stroke-width="6.415" stroke-miterlimit="2.613"/></svg>