<svg xmlns="http://www.w3.org/2000/svg" id="Layer_1" data-name="Layer 1" viewBox="0 0 250 250"><defs><style>.cls-2{fill:#fff}</style></defs><circle cx="125" cy="125" r="94.93" style="fill:#157b74"/><path d="M147.59 75h-45.17c-15.12 0-27.41 12.3-27.41 27.41v45.17c0 15.12 12.3 27.41 27.41 27.41h45.17c15.12 0 27.41-12.3 27.41-27.41v-45.17C175 87.29 162.7 75 147.59 75Zm21.5 72.59c0 11.86-9.65 21.51-21.51 21.51h-45.17c-11.86 0-21.51-9.65-21.51-21.51v-45.17c0-11.86 9.65-21.51 21.51-21.51h45.17c11.86 0 21.51 9.65 21.51 21.51v45.17Z" class="cls-2"/><path d="M125 97.57c-15.12 0-27.43 12.3-27.43 27.43s12.3 27.43 27.43 27.43 27.43-12.3 27.43-27.43-12.3-27.43-27.43-27.43Zm0 48.95c-11.87 0-21.52-9.66-21.52-21.52s9.66-21.52 21.52-21.52 21.52 9.66 21.52 21.52-9.66 21.52-21.52 21.52ZM154.07 87.6c-4.59 0-8.33 3.74-8.33 8.33s3.74 8.33 8.33 8.33 8.33-3.74 8.33-8.33-3.74-8.33-8.33-8.33Zm0 10.76c-1.34 0-2.43-1.09-2.43-2.43s1.09-2.43 2.43-2.43 2.43 1.09 2.43 2.43-1.09 2.43-2.43 2.43Z" class="cls-2"/></svg>