<svg fill="none" height="90" viewBox="0 0 89 90" width="89" xmlns="http://www.w3.org/2000/svg"><path clip-rule="evenodd" d="m88.3429 44.7236c0 24.7-19.7763 44.7236-44.1712 44.7236-24.3954 0-44.1717-20.0236-44.1717-44.7236 0-24.7005 19.7763-44.7236 44.1717-44.7236 24.3949 0 44.1712 20.0231 44.1712 44.7236z" fill="#fff" fill-rule="evenodd"/><g fill="#115556"><path d="m24.7041 42.0019c-.0253-.1334-.0767-.2606-.1512-.3742-.0745-.1135-.1706-.2113-.2829-.2878-.2268-.1543-.5056-.2123-.7751-.1611s-.5076.2074-.662.4342c-.1543.2267-.2123.5055-.1611.775s.2074.5077.4342.662c.2267.1544.5055.2123.775.1611s.5076-.2073.662-.4341.2123-.5056.1611-.7751z"/><path d="m48.6649 60.0589-.4065-1.6462c-.1897-.7786-.6353-1.471-1.2655-1.9661-.6301-.4951-1.4083-.7642-2.2097-.7642s-1.5796.2691-2.2098.7642c-.6301.4951-1.0758 1.1875-1.2654 1.9661l-1.8393 7.5297c-.1759.7159-.5899 1.3507-1.1741 1.8004-.5842.4498-1.3038.6876-2.0409.6746s-1.4479-.2761-2.0158-.7461c-.568-.47-.9593-1.119-1.1099-1.8407-.5996-2.8858-1.4633-7.113-2.1543-10.4866-1.26-5.9953-3.7699-7.8549-4.9385-9.9075-.1347-.2345-.3571-.4058-.6182-.4763-.261-.0705-.5394-.0344-.7739.1003-.2345.1348-.4058.3572-.4763.6182-.0705.2611-.0344.5395.1003.774 1.2905 2.2456 3.5566 3.78 4.715 9.3079.6909 3.3838 1.575 7.5805 2.1542 10.4765.2483 1.1717.8873 2.2244 1.8123 2.9853.925.761 2.0811 1.185 3.2787 1.2028 1.1977.0177 2.3658-.372 3.3129-1.1053.9471-.7332 1.617-1.7665 1.8999-2.9304l1.8392-7.5297c.0798-.3346.2735-.6311.5478-.8387.2744-.2076.6123-.3135.9561-.2994 1.4836 0 1.5547 1.382 1.9103 2.8249.073.2524.2408.4667.4683.598.2275.1314.497.1695.752.1064s.4757-.2225.6157-.4448c.14-.2222.1885-.4901.1354-.7473z"/><path d="m66.7933 36.5657c.9724-.7514 2.165-1.1621 3.3939-1.1686.2695 0 .5279-.107.7185-.2976.1906-.1905.2976-.449.2976-.7185s-.107-.528-.2976-.7185c-.1906-.1906-.449-.2977-.7185-.2977-.7343.0014-1.4617-.1423-2.1403-.4227-.6787-.2803-1.2954-.692-1.8146-1.2112s-.9308-1.1359-1.2112-1.8145c-.2804-.6787-.4241-1.4061-.4227-2.1404 0-.2695-.1071-.5279-.2977-.7185-.1905-.1906-.449-.2976-.7185-.2976s-.5279.107-.7185.2976-.2976.449-.2976.7185c-.0011.4727-.0591.9435-.1728 1.4023-2.183-1.9358-4.9286-3.1217-7.8345-3.3838-6.0969-.5284-7.4077 2.9164-13.8298.7012-1.9405-.6593-4.0031-.8798-6.0391-.6455s-3.9946.9176-5.7346 2.0005c-1.74 1.0828-3.218 2.5384-4.3274 4.2616s-1.8225 3.6711-2.0879 5.7033c-.0337.2695.041.5413.2078.7557.1667.2144.4118.3538.6813.3874.2695.0337.5413-.041.7557-.2078.2144-.1667.3538-.4118.3875-.6813.2259-1.7327.8336-3.3936 1.7792-4.863s2.2056-2.7107 3.689-3.6341c1.4834-.9235 3.1532-1.5063 4.8891-1.7062 1.7359-.2 3.4946-.0121 5.1491.5499 3.0606 1.0616 6.3896 1.0616 9.4502 0 2.0482-.7027 4.2512-.8241 6.3642-.3505 2.1131.4735 4.0536 1.5235 5.606 3.0331-.5208.7085-1.2022 1.2833-1.9882 1.6772-.7861.3939-1.6544.5957-2.5337.5888-.2695 0-.5279.1071-.7185.2977-.1905.1905-.2976.449-.2976.7185s.1071.528.2976.7185c.1906.1906.449.2976.7185.2976 1.4815.0027 2.9014.5924 3.949 1.6399 1.0475 1.0476 1.6372 2.4675 1.6399 3.949 0 .2695.107.5279.2976.7185s.449.2976.7185.2976.528-.107.7185-.2976c.1906-.1906.2977-.449.2977-.7185.0029-.7474.1549-1.4867.4471-2.1746.2449 2.9943-.6967 5.9649-2.6217 8.2715-1.938 2.4192-3.2534 5.2767-3.8309 8.3222-2.3168 11.3606-2.1136 11.3911-3.2821 12.3361-.4255.3467-.9317.5801-1.4717.6785-.5399.0983-1.096.0584-1.6163-.1161-.5204-.1744-.9881-.4778-1.3597-.8817-.3715-.404-.6347-.8954-.7652-1.4285l-.4877-2.0323c-.073-.2524-.2408-.4667-.4683-.598s-.497-.1694-.752-.1063-.4757.2225-.6157.4447c-.14.2223-.1885.4901-.1354.7473l.4878 2.0323c.2142.864.6427 1.6601 1.2461 2.3146.6033.6545 1.3619 1.1463 2.2057 1.4299s1.7454.3499 2.6216.1927 1.6985-.5327 2.3911-1.0919c1.9205-1.5547 1.7478-2.5302 3.9935-13.5148.5096-2.7173 1.6785-5.268 3.4041-7.4281 1.3468-1.6203 2.3007-3.5302 2.7872-5.5802.4865-2.0501.4924-4.1849.0174-6.2376zm-3.2111.6199c-.6721-1.1651-1.6394-2.1325-2.8046-2.8046.5723-.3466 1.107-.7519 1.5954-1.2092 2.0323-2.0323.3252-2.1136 2.4286 0s2.0323.3455 0 2.4286c-.4774.4698-.8877 1.0032-1.2194 1.5852z"/><path d="m44.7832 34.6047c3.4801-.0649 6.8891-.9975 9.9176-2.7132.1841-.1544.3074-.3691.3481-.606.0408-.2368-.0037-.4803-.1255-.6875-.1219-.2071-.3132-.3643-.5399-.4437-.2268-.0795-.4744-.076-.6988.0098-2.7291 1.51-5.7834 2.3363-8.9015 2.4083-3.1043-.0785-6.1439-.9046-8.8608-2.4083-.2245-.0858-.4721-.0893-.6988-.0098-.2268.0794-.4181.2366-.5399.4437-.1218.2072-.1663.4507-.1256.6875.0408.2369.1641.4516.3481.606 3.0165 1.7092 6.4107 2.6415 9.877 2.7132z"/><path d="m18.3634 39.9698h-3.0484c-.2695 0-.528.107-.7185.2976-.1906.1906-.2977.449-.2977.7185s.1071.528.2977.7186c.1905.1905.449.2976.7185.2976h3.0484c.2695 0 .528-.1071.7186-.2976.1905-.1906.2976-.4491.2976-.7186s-.1071-.5279-.2976-.7185c-.1906-.1906-.4491-.2976-.7186-.2976z"/><path d="m74.2516 39.9698h-3.0484c-.2695 0-.528.107-.7186.2976-.1905.1906-.2976.449-.2976.7185s.1071.528.2976.7186c.1906.1905.4491.2976.7186.2976h3.0484c.2695 0 .528-.1071.7185-.2976.1906-.1906.2977-.4491.2977-.7186s-.1071-.5279-.2977-.7185c-.1905-.1906-.449-.2976-.7185-.2976z"/><path d="m45.7994 14.5661v-3.0485c0-.2695-.107-.5279-.2976-.7185-.1905-.1906-.449-.2976-.7185-.2976s-.528.107-.7185.2976c-.1906.1906-.2976.449-.2976.7185v3.0485c0 .2695.107.5279.2976.7185.1905.1906.449.2976.7185.2976s.528-.107.7185-.2976c.1906-.1906.2976-.449.2976-.7185z"/><path d="m21.412 53.3119-2.6319 1.5243c-.2344.1347-.4058.3571-.4763.6181-.0705.2611-.0344.5395.1004.774.1347.2344.3571.4058.6182.4763.261.0705.5394.0344.7739-.1003l2.6318-1.5243c.2345-.1347.4058-.3571.4763-.6182.0705-.261.0344-.5394-.1003-.7739-.1348-.2345-.3571-.4058-.6182-.4763s-.5395-.0344-.7739.1003z"/><path d="m67.6669 28.7923c.3658 0 .2439 0 3.1399-1.6564.2345-.1347.4058-.3571.4763-.6182.0705-.261.0344-.5394-.1003-.7739-.0667-.1161-.1557-.2179-.2618-.2996-.106-.0817-.2272-.1418-.3564-.1767-.2611-.0705-.5395-.0344-.7739.1003l-2.6522 1.5243c-.1975.1117-.3518.2862-.4386.4958-.0867.2097-.1008.4423-.0401.6608.0608.2186.193.4105.3755.5453.1825.1347.4048.2045.6316.1983z"/><path d="m30.6894 18.6307c.1348.2345.3571.4058.6182.4764.2611.0705.5395.0344.774-.1004.2344-.1347.4057-.3571.4763-.6182.0705-.2611.0344-.5394-.1004-.7739l-1.5242-2.6318c-.0667-.1161-.1557-.2179-.2617-.2997-.1061-.0817-.2272-.1417-.3565-.1766-.2611-.0705-.5395-.0345-.7739.1003-.2345.1347-.4058.3571-.4763.6182s-.0344.5395.1003.7739z"/><path d="m58.8774 18.6307 1.5242-2.6318c.0667-.1161.1099-.2442.1272-.377.0172-.1328.0081-.2676-.0269-.3969-.0349-.1293-.0949-.2504-.1766-.3565s-.1836-.195-.2997-.2617-.2442-.1099-.3769-.1271c-.1328-.0173-.2677-.0082-.397.0268-.1293.0349-.2504.0949-.3565.1766-.106.0818-.195.1836-.2617.2997l-1.5242 2.6318c-.0667.1161-.1099.2442-.1271.377-.0173.1328-.0081.2677.0268.3969.0349.1293.0949.2504.1766.3565.0818.1061.1836.195.2997.2617s.2442.1099.377.1272c.1327.0172.2676.0081.3969-.0269.1293-.0349.2504-.0949.3565-.1766.106-.0817.195-.1836.2617-.2997z"/><path d="m18.7596 27.1359c2.896 1.6564 2.7842 1.6564 3.1399 1.6564.225.0015.4441-.0716.6231-.208.1789-.1364.3075-.3283.3656-.5457.0582-.2173.0425-.4479-.0445-.6554s-.2404-.3802-.4362-.4911l-2.6318-1.5243c-.2345-.1347-.5128-.1708-.7739-.1003s-.4835.2419-.6182.4763c-.1348.2345-.1709.5129-.1003.7739.0705.2611.2418.4835.4763.6182z"/><path d="m70.8069 54.8362-2.6522-1.5243c-.2344-.1347-.5128-.1708-.7739-.1003s-.4834.2418-.6182.4763c-.1347.2345-.1708.5129-.1003.7739.0705.2611.2418.4835.4763.6182l2.6318 1.5243c.2345.1374.5139.1761.7769.1075s.488-.2389.6254-.4734c.1374-.2344.1761-.5139.1075-.7769-.0686-.2629-.2388-.4879-.4733-.6253z"/></g></svg>