<svg width="89" height="90" viewBox="0 0 89 90" fill="none" xmlns="http://www.w3.org/2000/svg">
<path fill-rule="evenodd" clip-rule="evenodd" d="M88.3429 44.9409C88.3429 69.6408 68.5666 89.6645 44.1717 89.6645C19.7763 89.6645 0 69.6408 0 44.9409C0 20.2404 19.7763 0.217285 44.1717 0.217285C68.5666 0.217285 88.3429 20.2404 88.3429 44.9409Z" fill="white"/>
<path d="M55.114 28.3017C55.9628 27.5782 56.255 26.8686 57.3542 27.773C58.7038 28.8861 59.9144 30.528 61.264 31.6828C61.7093 31.7385 62.085 31.5019 62.5441 31.5298C64.5616 31.6272 65.633 34.1178 64.3251 35.6761L51.8303 48.1848L46.2508 51.3572L25.0737 72.5622C22.43 74.3432 19.6751 71.129 21.79 68.7636L42.9393 47.6144C44.5255 46.4873 46.8213 45.7221 48.3518 44.595C49.1449 44.0106 49.8685 42.9532 50.6476 42.3131L46.4317 38.0972C45.8891 37.2484 46.863 36.7058 46.7935 36.6501C44.1498 35.857 43.6628 33.0742 45.3881 31.0289C47.1135 28.9835 48.6719 28.0374 48.9084 27.3556C49.298 26.1729 47.7118 23.6823 49.7571 23.8492C52.4147 24.0719 54.9053 25.4215 55.1279 28.3156L55.114 28.3017ZM52.5817 26.5625C52.053 26.0477 51.2459 25.8111 50.5363 25.6859C50.6059 26.2007 50.6894 26.6599 50.6337 27.1886C50.4111 29.234 47.5726 30.7923 46.4178 32.3507C45.2629 33.9091 46.7795 35.704 48.491 34.9387C50.1746 32.8794 55.7541 29.5679 52.5817 26.5486V26.5625ZM56.5193 29.3453L55.3227 30.5419L58.8986 34.0204C59.0795 33.8256 60.0257 33.0186 59.9978 32.8377L56.5193 29.3314V29.3453ZM54.1401 31.7524L53.0408 32.9351L56.5193 36.4414C56.7141 36.1631 57.6881 35.4813 57.6046 35.1613L54.1401 31.7663V31.7524ZM62.2797 33.2134L49.2423 46.0142L43.9828 48.9779L22.8196 70.1133C22.3187 70.976 23.3345 71.8665 24.0719 71.1569L45.1099 50.1189L50.7311 46.8908L63.0172 34.6048C63.5598 34.076 62.9337 33.0881 62.2658 33.2134H62.2797ZM51.7468 34.1456L50.6476 35.2309L54.2235 38.7094L55.3227 37.6241L51.7468 34.1456ZM49.4371 36.4275L48.3518 37.6102L51.8303 41.1165L52.9156 39.9338L49.4371 36.4275Z" fill="#115556"/>
<path d="M32.1701 23.1118C33.1859 22.8892 33.3667 24.1136 33.7842 24.7954C34.2016 25.4772 34.8834 26.2703 35.6069 26.7295C36.3304 27.1886 37.1653 27.3138 37.3322 27.7174C37.8331 28.8583 36.3165 29.0253 35.6069 29.4844C34.8973 29.9436 34.2433 30.6532 33.8537 31.2654C33.4641 31.8776 33.1998 33.4082 32.1006 33.0603C31.0014 32.7125 31.0292 31.2933 30.6257 30.7784C30.2222 30.2636 29.6795 29.7627 29.1508 29.4427C28.6221 29.1227 27.1194 28.8861 27.4672 27.7869C27.8151 26.6877 28.9838 26.9243 29.4708 26.5625C29.9578 26.2007 30.6813 25.4076 31.0848 24.7398C31.4884 24.0719 31.6275 23.251 32.1841 23.1257L32.1701 23.1118ZM32.518 25.7972L32.3093 25.8668C31.8362 26.7295 31.1127 27.5226 30.2361 27.9956L30.3057 28.2043C31.1266 28.747 31.9197 29.4705 32.3232 30.3888L32.5319 30.3193C33.005 29.4705 33.7285 28.6357 34.6051 28.1904L34.5355 27.9817C33.7146 27.4391 32.9215 26.7155 32.518 25.7972Z" fill="#115556"/>
<path d="M36.3436 36.4413C37.3871 36.2187 37.6237 37.6936 38.1942 38.4032C38.7646 39.1128 38.7925 39.0294 39.0429 39.2241C39.6134 39.6416 40.7126 39.7807 40.7543 40.546C40.7961 41.3112 39.516 41.5895 38.8759 42.1043C38.2359 42.6192 38.2498 42.7026 38.055 42.9531C37.6376 43.5236 37.3871 44.7341 36.6358 44.7619C35.8844 44.7898 35.4809 43.4123 34.9661 42.7722C34.4513 42.1322 34.3678 42.1461 34.1174 41.9513C33.4356 41.4504 32.1137 41.3669 32.4616 40.2677C32.8094 39.1685 33.6582 39.5581 34.1174 39.2102C34.5765 38.8624 34.7713 38.6398 34.9661 38.3893C35.3696 37.8745 35.8149 36.5387 36.3436 36.4274V36.4413ZM36.5384 39.1407L35.1192 40.6434L36.6219 42.0487L38.0411 40.546L36.5384 39.1407Z" fill="#115556"/>
<path d="M39.6698 29.7765C40.7412 29.54 40.8525 30.9314 41.4647 31.5714C42.0769 32.2115 43.204 32.2532 43.2457 33.0324C43.2875 33.8116 42.1048 33.9646 41.5204 34.5351C40.936 35.1056 40.7273 36.3857 39.9481 36.4135C39.1689 36.4413 38.9045 35.1612 38.3341 34.5908C37.7636 34.0203 36.5948 33.909 36.5531 33.1298C36.5113 32.3506 37.694 32.1976 38.2784 31.6271C38.8628 31.0566 39.0993 29.8878 39.6559 29.7765H39.6698ZM39.8785 32.3784L39.1967 33.1437L39.962 33.8255L40.6438 33.0602L39.8785 32.3784Z" fill="#115556"/>
</svg>
