<svg fill="none" height="91" viewBox="0 0 89 91" width="89" xmlns="http://www.w3.org/2000/svg"><g fill="#fff"><path clip-rule="evenodd" d="m88.6603 45.5c0 24.6999-19.7763 44.7235-44.1712 44.7235-24.3954 0-44.171717-20.0236-44.171717-44.7235 0-24.7005 19.776317-44.723633 44.171717-44.723633 24.3949 0 44.1712 20.023133 44.1712 44.723633z" fill-rule="evenodd"/><g stroke="#115556" stroke-width=".858862"><path d="m30.3338 56.3446.0004.0002 18.9079 6.6631c.1043.0367.2187.0318.3194-.0137.1008-.0454.1801-.128.2215-.2305l.0001-.0003 15.7582-38.9545zm0 0c-.1044-.0366-.1906-.1122-.2406-.2108-.0501-.0986-.0601-.2128-.0281-.3187l.0001-.0002m.2686.5297-.2686-.5297m0 0 12.1463-40.2274c0-.0001 0-.0001 0-.0001.0168-.0556.0447-.1071.082-.1516.0373-.0444.0832-.0809.135-.1071s.1084-.0417.1664-.0454c.0579-.0038.116.0043.1707.0237l.0004.0001m-12.7008 40.5078 12.7008-40.5078m0 0 22.519 7.9357.0005.0001c.0547.0192.105.0494.1478.0886.0428.0393.0772.0868.1011.1397l.3913-.1769m-23.1597-7.9872 23.1597 7.9872m0 0-.3913.1769c.024.0529.0369.1101.0381.1681s-.0094.1156-.0311.1693l.3981.1611m-.0138-.6754.0761.3363c.0024.1161-.0188.2314-.0623.3391m0 0-15.7583 38.9548m15.7583-38.9548-15.7583 38.9548m0 0c-.0828.205-.2414.3702-.443.4611-.2015.091-.4303.1008-.6388.0273l-18.9079-6.6631c-.2087-.0733-.3811-.2244-.4813-.4217-.1001-.1973-.1202-.4256-.0561-.6374zm-19.0563-7.6464-.1186.3929.387.1363 17.3607 6.1179.387.1364.1538-.3804 15.1112-37.3615.1686-.4167-.4239-.1494-20.818-7.3362-.4238-.1493-.13.4302z"/><path d="m32.1603 64.672.0002.0001 10.437 3.678c.0686.0237.1421.0296.2136.0172.0718-.0125.1392-.043.1959-.0886 0 0 0-.0001.0001-.0001l6.6274-5.341.0001-.0001c.0594-.0479.105-.1107.1321-.1821l.4015.1524-.4015-.1524c.0271-.0713.0346-.1486.0219-.2239-.0127-.0752-.0452-.1457-.0943-.2042-.0488-.0583-.1123-.1026-.1838-.1283l-18.8752-6.6516-.0003-.0001c-.0721-.0255-.1497-.0312-.2248-.0166s-.145.049-.2023.0996c-.0574.0507-.1001.1157-.1239.1884s-.0278.1505-.0114.2252v.0003l1.8106 8.3144zm0 0c-.0691-.0243-.1308-.0658-.1793-.1207m.1793.1207-.1793-.1207m0 0c-.0484-.0548-.0821-.121-.0977-.1924zm.6393-.8437.051.2339.2258.0796 9.5358 3.3603.2257.0796.1864-.1502 5.0554-4.0739.5998-.4833-.7265-.256-15.9747-5.6295-.7265-.256.1642.7525z"/><path d="m37.9477 76.4426-.0004-.0002-7.2093-2.5405c-.0945-.0333-.1744-.0986-.2259-.1846-.0514-.086-.0712-.1872-.0558-.2862l1.4303-9.227c.0097-.0623.0329-.1218.0682-.1741.0352-.0524.0816-.0963.1357-.1287.0542-.0323.1148-.0524.1775-.0587.0628-.0063.1262.0013.1857.0223l10.4509 3.6828c.0594.0211.1134.0549.1583.0991l.3015-.3057-.3015.3057c.0449.0443.0795.0979.1013.1571.0219.0591.0304.1224.025.1852-.0053.0628-.0245.1237-.056.1783l-4.6704 8.0851c-.0502.0868-.1292.1534-.2232.1881-.0941.0347-.1973.0354-.2919.002zm-.1431.4048-7.2093-2.5405zm-6.3937-3.9904-.0545.3522.3361.1184 5.8679 2.0679.3362.1184.1784-.3086 3.7974-6.5715.2588-.448-.4879-.1719-8.5054-2.9973-.488-.172-.0791.5114z"/><path d="m35.4707 75.5698-.0015-.0005-.0404-.0142c-.0474-.0221-.0904-.0527-.1268-.0902l-.3082.2991.3082-.2991c-.0393-.0405-.0702-.0883-.091-.1408-.0208-.0524-.0311-.1085-.0302-.1649.0008-.0564.0128-.112.0352-.1638v-.0001l3.6538-8.4433.0001-.0001c.0454-.105.1307-.1877.2371-.2299.1064-.0421.2252-.0403.3302.0052.105.0454.1877.1307.2299.2371.0421.1063.0403.2251-.0051.3301v.0001l-3.6534 8.4423c-.0001.0002-.0001.0003-.0002.0004-.0435.0996-.1231.179-.2228.2222-.0999.0432-.2124.047-.3149.0104z"/><path d="m33.2131 74.774-.001-.0003c-.1028-.036-.1881-.1097-.2386-.2062-.0506-.0965-.0625-.2086-.0335-.3136v-.0002l2.4494-8.8678v-.0001c.015-.0543.0406-.1052.0753-.1497s.0778-.0817.1269-.1096c.0491-.0278.1032-.0457.1591-.0526.0553-.0068.1114-.0028.1652.0118.1093.0321.202.1054.2583.2046s.0717.2165.0431.3268l-2.4462 8.8661-.0003.0012c-.0149.0545-.0404.1056-.0751.1503-.0347.0446-.0778.082-.127.1099-.0491.028-.1033.046-.1594.0529-.0521.0065-.1049.0033-.1557-.0092z"/><path d="m63.4654 27.8431-22.1658-7.8112c-.1074-.0379-.1954-.1168-.2446-.2196-.0492-.1027-.0556-.2207-.0177-.3282.0378-.1074.1168-.1954.2195-.2446.1028-.0491.2208-.0555.3282-.0177l22.1659 7.8112c.1074.0379.1954.1169.2446.2196s.0555.2208.0177.3282c-.0379.1074-.1169.1954-.2196.2446s-.2208.0555-.3282.0177z"/><path d="m45.4601 43.5805-.0003-.0001c-.074-.0262-.1537-.0316-.2305-.0156l-.0873-.4205.0873.4205c-.0763.0158-.1469.0521-.2042.105l-2.0084 1.9006c-.127.1253-.2909.2063-.4677.2311-.1742.0244-.3515-.0072-.5064-.0901-.156-.0767-.2835-.2012-.3639-.3556-.0811-.1558-.1099-.3334-.0821-.5066l.4573-3.5127.0002-.0019c.062-.4596.0242-.9272-.1108-1.3709l-.0007-.0021-.1783-.5974-.0001-.0002c-.1879-.6308-.1773-1.3041.0304-1.9286.2076-.6244.6021-1.1697 1.13-1.5624.5962-.4459 1.3245-.6795 2.0688-.6634.7446.0161 1.4623.2811 2.0387.7527l.0036.0029c.2169.1814.3889.4105.5026.6694l.0041.0094.0036.0095c.0238.0619.0606.1181.1079.1646.0463.0456.1017.0809.1626.1037.0595.0198.1226.0264.1849.0192.0637-.0074.1249-.0289.1791-.063l.0124-.0077.0128-.0069c.2462-.1322.5209-.2022.8004-.2039.7444-.0063 1.4695.237 2.0594.6912.5897.4541 1.0103 1.0928 1.1945 1.814.166.6371.1321 1.31-.0973 1.9272-.2295.6177-.6435 1.1497-1.1859 1.5239l-.0002.0002-.5063.3488-.0025.0016c-.3859.2621-.7106.6046-.9518 1.0039l-.0007.0012-1.8419 3.0275c-.089.1518-.2244.2713-.3863.3408zm0 0c.0745.0263.1404.0727.1903.134m-.1903-.134.1903.134m0 0c.0498.0614.0818.1353.0923.2136m-.0923-.2136.0923.2136m0 0v.0001m0-.0001v.0001m0 0 .3679 2.7434c.0219.1768.1.342.2229.4712.1204.1266.2774.212.4489.2443zm.6378 4.2384-.0046-.0016c-.2943-.1028-.5542-.2854-.7507-.5273-.1966-.2419-.322-.5337-.3623-.8428l-.0003-.0017-.146-1.0868-.1117-.8307-.609.5759-.7962.7529-.0001.0001c-.2551.2414-.5786.398-.9262.4483s-.7022-.0081-1.0152-.1672c-.3131-.1592-.5693-.4113-.7335-.7217-.1641-.3104-.2282-.6638-.1836-1.0121 0-.0001 0-.0002 0-.0003l.4578-3.5162c0-.0006.0001-.0011.0002-.0017.0466-.34.0192-.686-.0803-1.0144-.0001-.0003-.0002-.0007-.0004-.0011l-.1778-.5967v-.0001c-.238-.8012-.2237-1.6563.041-2.4492.2646-.7927.7667-1.4848 1.4381-1.9824.5545-.4086 1.1992-.6778 1.8797-.7848.6797-.107 1.3751-.049 2.0276.1689.4828.1696.9264.435 1.3042.7803l.0011.001c.1285.1166.2474.2432.3556.3787l.1671.2091.2613-.0578c.1691-.0374.341-.0614.514-.0717l.0015-.0001c.511-.0322 1.0232.0392 1.5059.21.6434.2391 1.2201.6289 1.6817 1.1368.4623.5085.7957 1.1205.9723 1.7846.2114.8091.1687 1.6638-.1223 2.4478-.2911.7843-.8166 1.46-1.5051 1.9353-.0001 0-.0001.0001-.0002.0001l-.5082.3499c-.0004.0002-.0008.0005-.0012.0008-.2868.1949-.5277.4499-.7061.7473-.0003.0005-.0006.0009-.0008.0014l-1.8425 3.0284-.0011.0019c-.1808.3006-.4512.5371-.7732.676-.3221.1389-.6796.1734-1.0223.0986l-.0006-.0002c-.0773-.0167-.1533-.0386-.2276-.0655z"/></g></g></svg>