<svg xmlns="http://www.w3.org/2000/svg" viewBox="-604 120 60 60">
    <circle cx="-574" cy="150" r="30" fill="#e1f3f3" class="cls-1" data-name="Ellipse 48" />
    <path fill="#015f5f" d="M-559.76 139.62l-7.85-7.05a.84.84 0 0 0-.56-.2h-16.5a3 3 0 0 0-3.13 2.82v28.17a3 3 0 0 0 3.14 2.81h22a3 3 0 0 0 3.14-2.82v-23.24a.7.7 0 0 0-.24-.5zm-6.05-.2a1.5 1.5 0 0 1-1.57-1.41v-3.24l5.17 4.63h-3.6z" data-name="Path 137" />
    <path fill="#e1f3f3" d="M-580.05 137.8a1.8 1.8 0 0 1-.58 1.45 2.63 2.63 0 0 1-1.74.5h-.59v2.19h-1.3v-6.04h1.96a2.3 2.3 0 0 1 1.67.51 1.75 1.75 0 0 1 .58 1.38zm-2.9.94h.43a1.55 1.55 0 0 0 .87-.22.7.7 0 0 0 .3-.65.89.89 0 0 0-.22-.66 1.17 1.17 0 0 0-.8-.21h-.58v1.74z" class="cls-1" data-name="Path 119" />
    <path fill="#e1f3f3" d="M-576.92 145.5h-1.45l-1.39-2.25-1.38 2.25h-1.38l2.04-3.13-1.9-2.9h1.39l1.3 2.18 1.32-2.18h1.3l-1.89 2.98z" class="cls-1" data-name="Path 120" />
    <path fill="#e1f3f3" d="M-577.34 149.41l-.19-.16a.76.76 0 0 0-1.06 0l-3.35 3.4-.91-.87a.73.73 0 0 0-1.06.02l-.17.17a.7.7 0 0 0-.24.55.7.7 0 0 0 .22.53l1.68 1.69a.76.76 0 0 0 1.1 0l4-4.24a.8.8 0 0 0 .22-.56.77.77 0 0 0-.24-.53zm0 7.75l-.19-.16a.76.76 0 0 0-1.06 0l-3.35 3.4-.91-.87a.73.73 0 0 0-1.06.02l-.17.17a.7.7 0 0 0-.24.55.7.7 0 0 0 .22.53l1.68 1.69a.76.76 0 0 0 1.1 0l4-4.24a.8.8 0 0 0 .22-.56.77.77 0 0 0-.24-.53zm0 0" class="cls-1" data-name="Path 75" />
    <rect width="12.23" height="1.72" x="-575.2" y="151.08" fill="#e1f3f3" class="cls-1" data-name="Rectangle 133" rx=".86" />
    <rect width="12.23" height="1.72" x="-575.2" y="158.83" fill="#e1f3f3" class="cls-1" data-name="Rectangle 134" rx=".86" />
</svg>
