<svg xmlns="http://www.w3.org/2000/svg" viewBox="-439 120 60 60">
    <circle cx="-409" cy="150" r="30" fill="#e1f3f3" class="cls-1" data-name="Ellipse 48" />
    <path fill="#015f5f" d="M-393.72 163.68l-7.65-7.65a15.27 15.27 0 0 0 2.78-8.92 15.42 15.42 0 0 0-1.24-6.1 15.75 15.75 0 0 0-14.5-9.64 15.42 15.42 0 0 0-6.11 1.23 15.45 15.45 0 0 0-8.4 8.4 15.71 15.71 0 0 0 0 12.21 15.75 15.75 0 0 0 14.5 9.64 15.27 15.27 0 0 0 8.93-2.78l7.64 7.65a2.86 2.86 0 1 0 4.05-4.05z" data-name="Path 198" />
    <path fill="#e1f3f3" d="M-411.3 141.72a3.9 3.9 0 0 1 3.94 3.85c0 3.51-7.14 8.18-7.14 8.18s-7.14-4.5-7.14-8.18a3.6 3.6 0 0 1 3.95-3.85 3.98 3.98 0 0 1 3.19 1.6 3.98 3.98 0 0 1 3.2-1.6zm0 0" class="cls-1" data-name="Path 199" />
</svg>
