<svg fill="none" height="90" viewBox="0 0 89 90" width="89" xmlns="http://www.w3.org/2000/svg"><path clip-rule="evenodd" d="m88.6603 44.7236c0 24.7-19.7763 44.7236-44.1712 44.7236-24.3954 0-44.171717-20.0236-44.171717-44.7236 0-24.7005 19.776317-44.7236 44.171717-44.7236 24.3949 0 44.1712 20.0231 44.1712 44.7236z" fill="#fff" fill-rule="evenodd"/><g fill="#115556"><path d="m51.5912 52.7788v-9.078c0-.2408-.0956-.4717-.2659-.6419-.1702-.1703-.4011-.2659-.6419-.2659h-16.3404c-.2408 0-.4717.0956-.6419.2659-.1703.1702-.2659.4011-.2659.6419v9.078c0 .2407.0956.4716.2659.6419.1702.1702.4011.2659.6419.2659h16.3404c.2408 0 .4717-.0957.6419-.2659.1703-.1703.2659-.4012.2659-.6419zm-1.8156-.9078h-14.5248v-7.2624h14.5248z"/><path d="m67.7042 44.9171c-.0851-.0969-.1898-.1745-.3072-.2277s-.2447-.0808-.3736-.081h-11.8015v-5.4468c.4816 0 .9434-.1913 1.2839-.5318s.5317-.8023.5317-1.2838v-4.539c0-1.2038-.4782-2.3583-1.3294-3.2096-.8512-.8512-2.0057-1.3294-3.2096-1.3294h-5.4468v-1.8156h.9078c.2408 0 .4717-.0956.6419-.2659.1703-.1702.2659-.4011.2659-.6419v-6.3546c0-.4815-.1912-.9433-.5317-1.2838s-.8023-.5318-1.2839-.5318h-9.078c-.4815 0-.9433.1913-1.2838.5318s-.5318.8023-.5318 1.2838v6.3546c0 .2408.0957.4717.2659.6419.1703.1703.4012.2659.6419.2659h.9078v1.8156h-5.4468c-1.2038 0-2.3583.4782-3.2095 1.3294-.8513.8513-1.3295 2.0058-1.3295 3.2096v4.539c0 .4815.1913.9433.5318 1.2838s.8023.5318 1.2838.5318v18.156c-.4815 0-.9433.1913-1.2838.5318s-.5318.8023-.5318 1.2838v4.539c0 1.2039.4782 2.3584 1.3295 3.2096.8512.8512 2.0057 1.3294 3.2095 1.3294h31.8366c.223.0017.4388-.0789.6063-.2262.1674-.1474.2747-.3512.3015-.5726l2.6599-21.7872c.0143-.1274.0014-.2563-.0377-.3784-.0391-.122-.1036-.2344-.1893-.3297zm-1.7067 1.5069-.7897 6.3546c-1.4572-.0151-2.8985-.3046-4.2486-.8533-1.8157-.7564-3.7859-1.0676-5.7463-.9078v-4.5935zm-28.0238-27.234h9.078v5.4468h-1.8156v-2.7234c0-.2408-.0956-.4717-.2659-.6419-.1702-.1703-.4011-.2659-.6419-.2659-.2407 0-.4716.0956-.6419.2659-.1702.1702-.2659.4011-.2659.6419v2.7234h-1.8156v-2.7234c0-.2408-.0956-.4717-.2659-.6419-.1702-.1703-.4011-.2659-.6419-.2659-.2407 0-.4716.0956-.6419.2659-.1702.1702-.2659.4011-.2659.6419v2.7234h-1.8156zm1.8156 7.2624h5.4468v1.8156h-5.4468zm-9.9858 37.2198v-4.539h16.3404c.2408 0 .4717-.0956.6419-.2659.1703-.1702.2659-.4011.2659-.6419 0-.2407-.0956-.4716-.2659-.6419-.1702-.1702-.4011-.2659-.6419-.2659h-14.5248v-18.156h14.5248c.2408 0 .4717-.0956.6419-.2659.1703-.1702.2659-.4011.2659-.6419s-.0956-.4717-.2659-.6419c-.1702-.1702-.4011-.2659-.6419-.2659h-16.3404v-4.539c0-.7223.2869-1.415.7977-1.9257.5107-.5108 1.2034-.7977 1.9257-.7977h19.9716c.7223 0 1.415.2869 1.9258.7977.5107.5107.7976 1.2034.7976 1.9257v4.539h-5.4468c-.2407 0-.4716.0957-.6419.2659-.1702.1702-.2659.4011-.2659.6419s.0957.4717.2659.6419c.1703.1703.4012.2659.6419.2659h3.6312v18.156h-3.6312c-.2407 0-.4716.0957-.6419.2659-.1702.1703-.2659.4012-.2659.6419 0 .2408.0957.4717.2659.6419.1703.1703.4012.2659.6419.2659h5.4468v4.539c0 .7223-.2869 1.415-.7976 1.9258-.5108.5107-1.2035.7976-1.9258.7976h-19.9716c-.7223 0-1.415-.2869-1.9257-.7976-.5108-.5108-.7977-1.2035-.7977-1.9258zm33.7521 2.7234h-7.4259c.5941-.7831.9132-1.7404.9078-2.7234v-4.539c0-.4815-.1912-.9433-.5317-1.2838s-.8023-.5318-1.2839-.5318v-4.4663c1.7575-.1623 3.528.1089 5.1564.7897 1.473.5783 3.0383.8858 4.6207.9078z"/></g></svg>