<svg fill="none" height="90" viewBox="0 0 89 90" width="89" xmlns="http://www.w3.org/2000/svg"><path clip-rule="evenodd" d="m88.3429 44.9409c0 24.6999-19.7763 44.7236-44.1712 44.7236-24.3954 0-44.1717-20.0237-44.1717-44.7236 0-24.7005 19.7763-44.723615 44.1717-44.723615 24.3949 0 44.1712 20.023115 44.1712 44.723615z" fill="#115556" fill-rule="evenodd"/><g fill="#fff" stroke="#115556" stroke-width=".220857"><path d="m46.6073 36.7066c-.0734.0725-.1758.1769-.2639.3081-.0903.1345-.1686.3016-.1845.4972-.0161.1974.0322.4142.1796.6448l.0065.0101.0085.0085 4.131 4.131c-.3363.2912-.6619.6519-.9821 1.0066-.0265.0294-.053.0587-.0795.088-.3786.4187-.7505.8207-1.1367 1.1052-.7559.5566-1.703 1.0254-2.6686 1.4995l-.0587.0288c-.9424.4626-1.8982.9318-2.6837 1.4899l-.0076.0054-.0065.0066-21.1493 21.1493-.0001-.0002-.0041.0046c-1.0961 1.2259-.9334 2.6832-.144 3.5999.7897.9171 2.2014 1.287 3.5717.3639l.0089-.006.0075-.0076 21.1666-21.1944 5.5665-3.165.013-.0074.0105-.0105 12.4948-12.5087.0003.0003.0062-.0074c1.3651-1.6265.2508-4.2252-1.8596-4.3276h.0007zm0 0c-1.2646-.4291-2.0262-1.323-2.2627-2.3732-.2452-1.0891.0775-2.3307.959-3.3757.8678-1.0288 1.6935-1.7808 2.3285-2.3585l.0069-.0063c.3155-.2869.5806-.5281.7821-.7396.2045-.2146.3315-.3868.3826-.5331.088-.2681.0666-.6217.0048-1.0179-.0259-.1662-.0582-.3359-.0907-.5066-.0058-.0309-.0117-.0618-.0176-.0928-.0379-.2007-.0745-.4018-.0981-.5931-.0461-.3754-.0469-.7441.121-1.0086.1769-.2788.5133-.4053 1.0429-.362h.0002c1.3429.1125 2.6514.5101 3.655 1.2527.9512.7036 1.625 1.715 1.7926 3.0736.0814-.0749.1578-.1484.2316-.2194.0497-.0478.0982-.0946.1464-.1399.1642-.1544.3251-.2931.4998-.3785.1797-.0879.3725-.1187.5951-.0624.2178.055.4569.1915.7375.4224l.0001.0001c.6816.5621 1.3267 1.2565 1.9659 1.9496l.0589.0639c.613.6648 1.2218 1.325 1.8608 1.8754zm5.8972-10.065.1875.1825v-.0066c.6215.6716.8056 1.3464.7161 2.0115-.0992.7365-.5361 1.4784-1.136 2.2043-.5988.7245-1.3493 1.421-2.0601 2.0687-.0571.052-.114.1038-.1706.1552-.6342.577-1.2261 1.1155-1.6191 1.591-.8018.3475-1.5447.1019-1.9575-.4021-.4158-.5077-.5065-1.2901.0416-2.0297.2821-.3806.6694-.7643 1.1006-1.1608.1663-.1529.34-.3084.516-.4661.2765-.2476.559-.5006.8284-.7573.8812-.8394 1.6759-1.7651 1.792-2.8316v-.0004c.0501-.4759-.0094-.8984-.071-1.3363-.0019-.0138-.0039-.0276-.0058-.0414.664.1305 1.3697.3632 1.8379.8191zm2.9754 3.8992 1.0459-1.046 3.3486 3.3754c-.0011.0019-.0023.0039-.0035.006-.0191.0321-.05.0739-.0922.1241-.084.0998-.2021.2206-.3293.3444-.1201.1168-.2462.2342-.356.3364l-.0182.0169c-.067.0624-.1286.1199-.1778.1673zm-2.2861 2.3918.9431-1.0147 3.3617 3.2942c-.0012.0112-.0046.0261-.0119.0453-.0142.0372-.0401.0823-.0784.1347-.0765.1049-.1905.2232-.3182.345-.0834.0793-.1692.1571-.2521.2322-.0445.0403-.0881.0799-.1301.1185-.0717.066-.1402.1308-.1955.1899zm9.1396.3827c.2575-.0238.5178.1472.6664.4039.1561.2696.1636.5888-.0598.8065l-.001.001-12.2757 12.2757-5.6085 3.2207-.0128.0073-.0103.0104-21.0365 21.0365c-.0002.0002-.0005.0004-.0007.0007-.3255.3126-.6991.2694-.9416.0627-.2426-.2069-.3576-.5813-.1449-.9597l21.1421-21.1143 5.2463-2.9562.0127-.0072.0105-.0103zm-7.1685 4.3094-.9421.9301-3.4175-3.3245.942-.9301zm-3.3378 3.3319-3.3228-3.3494.9358-1.0198 3.3228 3.3494z"/><path d="m32.1463 23.0039-.1972.0433.0348.0348c-.2285.1186-.3795.3493-.5055.5972-.0591.1162-.1158.2428-.173.3704-.0191.0427-.0383.0856-.0576.1282-.0781.1719-.1603.3436-.2577.5049-.3968.6567-1.1109 1.4387-1.5854 1.7911-.1026.0763-.2478.1252-.4305.1709-.0554.0139-.1148.0275-.1764.0417-.1328.0305-.2762.0634-.414.1063-.4157.1295-.8332.3639-1.0221.9609-.0951.3005-.0658.5531.0505.7641.1138.2064.3046.3614.5115.4842.2073.1232.4412.2199.6506.3041.0177.0071.0351.0141.0523.021.1919.077.3544.1422.4668.2102.5156.3121 1.0486.8034 1.4451 1.3094.088.1121.157.2807.2284.492.0216.0638.0434.1315.0659.2016.0498.1546.1033.3208.1663.482.1848.4725.4697.9541 1.0679 1.1434.3013.0954.5559.0638.7703-.0566.2094-.1176.3698-.314.5001-.5288.1307-.2154.2374-.4602.3338-.6834l.0085-.0196c.0947-.2195.1781-.4128.267-.5525.3821-.6005 1.0253-1.2981 1.7199-1.7476.1676-.1084.3858-.2012.6221-.3002l.0236-.0099c.2252-.0942.464-.1942.6675-.3156.2103-.1254.3978-.2822.4943-.4957.0988-.2184.0934-.476-.0405-.7817-.0537-.1288-.157-.2271-.2785-.3084-.1219-.0816-.2724-.1528-.433-.2226-.063-.0274-.1279-.0547-.194-.0826-.2773-.1169-.5779-.2437-.8623-.4242-.7052-.4475-1.3762-1.2263-1.7877-1.8984-.098-.1601-.1833-.3531-.2739-.5584l-.0047-.0106c-.091-.206-.1874-.423-.3043-.6123-.1169-.1895-.2597-.3604-.4489-.4675-.1926-.109-.4226-.1459-.7-.0851zm-1.7767 5.0439c.8489-.4819 1.5484-1.2533 2.0152-2.0899l.0737-.0245c.4212.8903 1.1932 1.5916 1.984 2.1193l.0279.0836c-.8509.4606-1.5492 1.2705-2.0141 2.0917l-.0741.0247c-.4212-.8904-1.1932-1.5916-1.984-2.1193z"/><path d="m36.454 36.3127v-.0214l-.1332.0281c-.1701.0358-.3175.165-.4441.319-.129.157-.2508.3577-.3655.5652-.0693.1254-.1383.2576-.2052.3859-.0431.0824-.0853.1633-.1261.2396-.1068.1994-.2064.3717-.3007.4921l-.0003.0003c-.1894.2436-.3775.4592-.8282.8007-.0942.0714-.2129.1084-.3583.1371-.0459.0091-.0965.0176-.1495.0265-.1042.0174-.2176.0364-.3236.0647-.1672.0446-.3383.1163-.4912.2555s-.2803.3391-.3718.6284c-.0936.2957-.0787.5378.0227.7393.0995.1976.2743.3402.468.4551.166.0985.3564.1826.5403.2638.0302.0133.0602.0265.0899.0398.2143.0954.4141.1901.5736.307.0535.0416.1002.0744.1428.1043.0088.0062.0174.0122.0259.0182.0499.0353.0966.0694.1508.1164.1091.0944.2538.245.5098.5631.1222.152.24.3508.362.5694.0312.0561.0628.1135.0947.1715.0908.1652.1843.3354.2814.4931.1313.2132.275.4137.4386.5598.1649.1472.3577.2454.5831.2371.4418-.0164.7189-.3809.9274-.7579.0822-.1487.1584-.3084.2315-.4615.0214-.0448.0425-.0891.0634-.1323.0937-.1937.1836-.3676.281-.501.0416-.0535.0744-.1002.1042-.1427.0062-.0089.0123-.0175.0183-.026.0352-.0499.0693-.0965.1163-.1508.0944-.1091.245-.2538.5632-.5097.1511-.1216.343-.2314.5517-.3414.062-.0328.1257-.0656.1901-.0988.1484-.0765.2998-.1545.4393-.2357.2005-.1165.3891-.2464.5252-.4018.1384-.1581.2255-.3462.2131-.5727-.0244-.4465-.3609-.6984-.7168-.8834-.1304-.0678-.2711-.1303-.4073-.1909-.0507-.0226-.1009-.0449-.1496-.067-.1828-.0832-.349-.166-.4815-.2627-.0612-.0476-.1103-.0797-.1539-.1082-.0034-.0023-.0067-.0045-.0101-.0067-.0457-.03-.0861-.0571-.1358-.0989-.1009-.0848-.2449-.2343-.5294-.5882-.1346-.1674-.2519-.3832-.3706-.6179-.024-.0475-.0482-.0958-.0725-.1446-.0938-.188-.1905-.3817-.2964-.5561-.1335-.2198-.2889-.4218-.4869-.5532-.1706-.1133-.3684-.171-.5998-.1495zm1.4306 4.2381-1.2676 1.3422-1.3414-1.2545 1.2676-1.3421z"/><path d="m39.6557 29.6661h-.011l-.0107.0021c-.1753.0351-.3149.1513-.4317.2944-.117.1432-.2214.3261-.3223.515-.0289.0539-.0575.1083-.0861.1628-.1769.3367-.3548.6753-.5929.9077-.1354.1322-.3086.243-.4984.3483-.0878.0487-.1776.0954-.268.1425-.007.0036-.0141.0073-.0211.0109-.097.0505-.1945.1015-.2874.1544-.3632.2068-.7082.4703-.6835.9315.0244.4558.3826.7042.7505.9003.0891.0475.1817.0934.2735.1388l.015.0074c.0972.0482.1934.096.2867.1464.1871.101.3561.2089.4874.3403.1323.1322.25.3091.3662.5071.0512.0873.1012.1771.1517.268.0066.0117.0131.0235.0197.0353.057.1023.115.2055.1748.3044.2324.3838.5236.7566.9837.7402.4574-.0164.7314-.4017.9514-.7919.0549-.0972.1081-.1983.1608-.2982l.005-.0095c.0545-.1036.1086-.2058.1645-.3044.1125-.1981.229-.3742.3638-.5058.1354-.1322.3086-.243.4984-.3483.0878-.0487.1776-.0954.268-.1425l.0211-.0109c.097-.0505.1945-.1015.2874-.1544.3632-.2068.7082-.4703.6835-.9315-.0244-.4567-.3734-.6874-.7361-.8749-.0768-.0396-.1529-.0768-.229-.1139-.1134-.0553-.2267-.1106-.3421-.1742-.1878-.1036-.3621-.2199-.5042-.3684-.1417-.1481-.2575-.3433-.37-.5585-.0348-.0665-.0695-.1356-.1046-.2054-.0756-.1505-.153-.3043-.2357-.4426-.1223-.2043-.2666-.3939-.4594-.5149-.1947-.1223-.4289-.1685-.7168-.1076zm-.3033 3.4686.5349-.6003.6003.5348-.5348.6004z"/></g></svg>