<svg width="89" height="91" viewBox="0 0 89 91" fill="none" xmlns="http://www.w3.org/2000/svg">
<path fill-rule="evenodd" clip-rule="evenodd" d="M88.6603 45.5C88.6603 70.1999 68.884 90.2235 44.4891 90.2235C20.0937 90.2235 0.317383 70.1999 0.317383 45.5C0.317383 20.7995 20.0937 0.776367 44.4891 0.776367C68.884 0.776367 88.6603 20.7995 88.6603 45.5Z" fill="#115556"/>
<mask id="path-2-inside-1_3724_4106" fill="white">
<path d="M49.0994 63.413L30.1915 56.7499C29.9828 56.6765 29.8104 56.5255 29.7103 56.3282C29.6101 56.1309 29.59 55.9026 29.6541 55.6908L41.8004 15.4632C41.8341 15.352 41.8899 15.2489 41.9645 15.1599C42.0391 15.071 42.131 14.998 42.2346 14.9456C42.3382 14.8932 42.4514 14.8623 42.5672 14.8548C42.6831 14.8473 42.7993 14.8634 42.9088 14.9021L65.4278 22.8378C65.5373 22.8763 65.6379 22.9366 65.7235 23.015C65.8091 23.0935 65.8779 23.1885 65.9258 23.2943C65.9736 23.4001 65.9995 23.5145 66.0018 23.6306C66.0042 23.7467 65.983 23.8621 65.9395 23.9697L50.1812 62.9245C50.0984 63.1295 49.9398 63.2947 49.7383 63.3857C49.5367 63.4767 49.3079 63.4864 49.0994 63.413ZM31.536 55.4024L48.8967 61.5203L64.008 24.1587L43.19 16.8225L31.536 55.4024Z"/>
<path d="M42.4558 68.7556L32.0177 65.0772C31.8796 65.0286 31.7562 64.9455 31.6592 64.8358C31.5622 64.7261 31.4949 64.5934 31.4637 64.4503L29.653 56.1356C29.6203 55.9861 29.6282 55.8307 29.6758 55.6852C29.7234 55.5398 29.8089 55.4097 29.9236 55.3085C30.0383 55.2072 30.178 55.1384 30.3282 55.1092C30.4784 55.08 30.6337 55.0915 30.7779 55.1424L49.6542 61.7944C49.798 61.8458 49.9254 61.9345 50.0234 62.0515C50.1215 62.1685 50.1866 62.3095 50.212 62.46C50.2374 62.6106 50.2223 62.7651 50.1681 62.9078C50.114 63.0505 50.0228 63.1763 49.9039 63.272L43.2764 68.6131C43.163 68.7045 43.0281 68.7655 42.8845 68.7905C42.741 68.8154 42.5935 68.8034 42.4558 68.7556ZM33.0398 63.6161L42.5755 66.9765L47.6309 62.9026L31.6562 57.2732L33.0398 63.6161Z"/>
<path d="M37.8046 76.8475L30.5953 74.307C30.4063 74.2404 30.2465 74.1098 30.1437 73.9379C30.0408 73.7659 30.0013 73.5634 30.032 73.3654L31.4623 64.1384C31.4816 64.0137 31.5282 63.8948 31.5986 63.7902C31.6691 63.6855 31.7618 63.5977 31.8701 63.5329C31.9784 63.4681 32.0996 63.428 32.2252 63.4154C32.3507 63.4028 32.4775 63.418 32.5965 63.4599L43.0476 67.1429C43.1665 67.1849 43.2747 67.2526 43.3645 67.3412C43.4543 67.4297 43.5235 67.5369 43.5671 67.6553C43.6108 67.7736 43.6279 67.9 43.6172 68.0257C43.6064 68.1513 43.5682 68.2731 43.5051 68.3823L38.8346 76.4674C38.7343 76.6411 38.5764 76.7741 38.3883 76.8435C38.2002 76.913 37.9937 76.9144 37.8046 76.8475ZM31.8353 72.9227L37.7032 74.9905L41.5006 68.419L32.9952 65.4217L31.8353 72.9227Z"/>
<path d="M35.3265 75.9744L35.2698 75.9544C35.1662 75.9097 35.0724 75.845 34.9938 75.764C34.9152 75.6831 34.8534 75.5874 34.8118 75.4825C34.7702 75.3776 34.7496 75.2655 34.7514 75.1527C34.7531 75.0399 34.777 74.9285 34.8218 74.8249L38.4757 66.3815C38.5663 66.172 38.7365 66.007 38.9488 65.9229C39.1611 65.8388 39.3981 65.8425 39.6076 65.9331C39.8172 66.0237 39.9822 66.1939 40.0663 66.4062C40.1504 66.6185 40.1467 66.8555 40.0561 67.065L36.4022 75.5084C36.3153 75.7079 36.1559 75.867 35.9562 75.9535C35.7565 76.04 35.5315 76.0475 35.3265 75.9744Z"/>
<path d="M33.0704 75.1791C32.8647 75.1071 32.694 74.9597 32.593 74.7667C32.4919 74.5737 32.468 74.3495 32.5261 74.1395L34.9754 65.2716C35.0054 65.1628 35.0566 65.061 35.126 64.972C35.1954 64.8831 35.2816 64.8086 35.3798 64.753C35.478 64.6973 35.5862 64.6616 35.6981 64.6478C35.8101 64.634 35.9238 64.6424 36.0325 64.6725C36.2507 64.7352 36.4356 64.881 36.5476 65.0784C36.6597 65.2758 36.6899 65.5093 36.6319 65.7288L34.185 74.5975C34.1552 74.7066 34.1042 74.8087 34.0349 74.898C33.9656 74.9874 33.8793 75.0621 33.781 75.118C33.6827 75.1739 33.5743 75.2098 33.4621 75.2237C33.3499 75.2376 33.236 75.2292 33.1271 75.199L33.0704 75.1791Z"/>
<path d="M63.3227 28.2481L41.1568 20.4369C40.942 20.3612 40.766 20.2033 40.6676 19.9978C40.5693 19.7924 40.5565 19.5563 40.6322 19.3414C40.7079 19.1266 40.8659 18.9506 41.0713 18.8523C41.2768 18.7539 41.5129 18.7411 41.7277 18.8169L63.8936 26.6281C64.1084 26.7038 64.2844 26.8617 64.3827 27.0672C64.4811 27.2726 64.4939 27.5087 64.4182 27.7235C64.3424 27.9384 64.1845 28.1143 63.9791 28.2127C63.7736 28.3111 63.5375 28.3238 63.3227 28.2481Z"/>
<path d="M46.2343 48.5704C45.8649 48.4414 45.5386 48.2123 45.2919 47.9085C45.0451 47.6048 44.8877 47.2385 44.837 46.8505L44.691 45.7636L43.8947 46.5166C43.5753 46.8189 43.1702 47.015 42.7349 47.078C42.2997 47.141 41.8556 47.0678 41.4636 46.8685C41.0715 46.6692 40.7507 46.3536 40.5451 45.9648C40.3395 45.576 40.2592 45.1332 40.3152 44.697L40.7735 41.1768C40.812 40.8974 40.7895 40.613 40.7076 40.3431L40.529 39.7438C40.2659 38.8581 40.2817 37.9128 40.5743 37.0363C40.8668 36.1599 41.422 35.3946 42.1644 34.8445C42.7746 34.3949 43.4839 34.0986 44.2327 33.9808C44.9814 33.863 45.7475 33.9271 46.4662 34.1677C47.0048 34.3564 47.4997 34.6522 47.9209 35.0373C48.0663 35.1692 48.201 35.3126 48.3235 35.466C48.5148 35.4237 48.7092 35.3965 48.9048 35.3849C49.4747 35.349 50.046 35.4289 50.5841 35.6197C51.2931 35.8826 51.9286 36.3119 52.4372 36.8714C52.9458 37.431 53.3127 38.1044 53.5069 38.8352C53.741 39.73 53.6938 40.6751 53.372 41.5421C53.0502 42.4092 52.4692 43.1561 51.7081 43.6815L51.1971 44.0332C50.961 44.1935 50.7628 44.4033 50.6162 44.6481L48.7722 47.679C48.5452 48.0566 48.2056 48.3536 47.8011 48.5281C47.3965 48.7026 46.9475 48.7459 46.5171 48.6519C46.4211 48.6311 46.3267 48.6039 46.2343 48.5704ZM45.603 43.1756C45.7521 43.2282 45.8839 43.321 45.9836 43.4437C46.0834 43.5665 46.1473 43.7144 46.1684 43.8711L46.5366 46.6171C46.5469 46.7034 46.5848 46.784 46.6447 46.8469C46.7045 46.9099 46.7832 46.9518 46.8688 46.9664C46.9519 46.9864 47.0392 46.979 47.1177 46.9453C47.1962 46.9116 47.2617 46.8533 47.3044 46.7793L49.1484 43.7484C49.4216 43.296 49.7894 42.9081 50.2266 42.6112L50.7329 42.2624C51.2027 41.9383 51.5614 41.4774 51.7602 40.9424C51.959 40.4074 51.9883 39.8242 51.8441 39.2719C51.6839 38.6434 51.3174 38.0867 50.8035 37.691C50.2895 37.2953 49.6577 37.0833 49.0091 37.089C48.7996 37.0902 48.5935 37.1426 48.4089 37.2418C48.3004 37.3099 48.178 37.3529 48.0507 37.3676C47.9234 37.3823 47.7944 37.3683 47.6732 37.3267C47.5532 37.283 47.4439 37.214 47.3528 37.1244C47.2617 37.0347 47.1908 36.9266 47.1451 36.8073C47.058 36.6091 46.9263 36.4336 46.7602 36.2947C46.2581 35.8838 45.6328 35.653 44.9841 35.639C44.3355 35.6249 43.7008 35.8286 43.1814 36.2173C42.7239 36.5574 42.382 37.03 42.2021 37.5709C42.0222 38.1119 42.013 38.6951 42.1758 39.2414L42.3541 39.8388C42.5071 40.3415 42.5499 40.8712 42.4797 41.392L42.0215 44.9122C42.0069 44.9959 42.0203 45.0821 42.0595 45.1575C42.0988 45.2329 42.1618 45.2932 42.2387 45.3293C42.3149 45.3719 42.403 45.3884 42.4895 45.3763C42.5759 45.3642 42.6561 45.3241 42.7177 45.2622L44.7315 43.3566C44.8464 43.2497 44.9883 43.1763 45.142 43.1444C45.2956 43.1125 45.4551 43.1233 45.603 43.1756Z"/>
</mask>
<path d="M49.0994 63.413L30.1915 56.7499C29.9828 56.6765 29.8104 56.5255 29.7103 56.3282C29.6101 56.1309 29.59 55.9026 29.6541 55.6908L41.8004 15.4632C41.8341 15.352 41.8899 15.2489 41.9645 15.1599C42.0391 15.071 42.131 14.998 42.2346 14.9456C42.3382 14.8932 42.4514 14.8623 42.5672 14.8548C42.6831 14.8473 42.7993 14.8634 42.9088 14.9021L65.4278 22.8378C65.5373 22.8763 65.6379 22.9366 65.7235 23.015C65.8091 23.0935 65.8779 23.1885 65.9258 23.2943C65.9736 23.4001 65.9995 23.5145 66.0018 23.6306C66.0042 23.7467 65.983 23.8621 65.9395 23.9697L50.1812 62.9245C50.0984 63.1295 49.9398 63.2947 49.7383 63.3857C49.5367 63.4767 49.3079 63.4864 49.0994 63.413ZM31.536 55.4024L48.8967 61.5203L64.008 24.1587L43.19 16.8225L31.536 55.4024Z" fill="white"/>
<path d="M42.4558 68.7556L32.0177 65.0772C31.8796 65.0286 31.7562 64.9455 31.6592 64.8358C31.5622 64.7261 31.4949 64.5934 31.4637 64.4503L29.653 56.1356C29.6203 55.9861 29.6282 55.8307 29.6758 55.6852C29.7234 55.5398 29.8089 55.4097 29.9236 55.3085C30.0383 55.2072 30.178 55.1384 30.3282 55.1092C30.4784 55.08 30.6337 55.0915 30.7779 55.1424L49.6542 61.7944C49.798 61.8458 49.9254 61.9345 50.0234 62.0515C50.1215 62.1685 50.1866 62.3095 50.212 62.46C50.2374 62.6106 50.2223 62.7651 50.1681 62.9078C50.114 63.0505 50.0228 63.1763 49.9039 63.272L43.2764 68.6131C43.163 68.7045 43.0281 68.7655 42.8845 68.7905C42.741 68.8154 42.5935 68.8034 42.4558 68.7556ZM33.0398 63.6161L42.5755 66.9765L47.6309 62.9026L31.6562 57.2732L33.0398 63.6161Z" fill="white"/>
<path d="M37.8046 76.8475L30.5953 74.307C30.4063 74.2404 30.2465 74.1098 30.1437 73.9379C30.0408 73.7659 30.0013 73.5634 30.032 73.3654L31.4623 64.1384C31.4816 64.0137 31.5282 63.8948 31.5986 63.7902C31.6691 63.6855 31.7618 63.5977 31.8701 63.5329C31.9784 63.4681 32.0996 63.428 32.2252 63.4154C32.3507 63.4028 32.4775 63.418 32.5965 63.4599L43.0476 67.1429C43.1665 67.1849 43.2747 67.2526 43.3645 67.3412C43.4543 67.4297 43.5235 67.5369 43.5671 67.6553C43.6108 67.7736 43.6279 67.9 43.6172 68.0257C43.6064 68.1513 43.5682 68.2731 43.5051 68.3823L38.8346 76.4674C38.7343 76.6411 38.5764 76.7741 38.3883 76.8435C38.2002 76.913 37.9937 76.9144 37.8046 76.8475ZM31.8353 72.9227L37.7032 74.9905L41.5006 68.419L32.9952 65.4217L31.8353 72.9227Z" fill="white"/>
<path d="M35.3265 75.9744L35.2698 75.9544C35.1662 75.9097 35.0724 75.845 34.9938 75.764C34.9152 75.6831 34.8534 75.5874 34.8118 75.4825C34.7702 75.3776 34.7496 75.2655 34.7514 75.1527C34.7531 75.0399 34.777 74.9285 34.8218 74.8249L38.4757 66.3815C38.5663 66.172 38.7365 66.007 38.9488 65.9229C39.1611 65.8388 39.3981 65.8425 39.6076 65.9331C39.8172 66.0237 39.9822 66.1939 40.0663 66.4062C40.1504 66.6185 40.1467 66.8555 40.0561 67.065L36.4022 75.5084C36.3153 75.7079 36.1559 75.867 35.9562 75.9535C35.7565 76.04 35.5315 76.0475 35.3265 75.9744Z" fill="white"/>
<path d="M33.0704 75.1791C32.8647 75.1071 32.694 74.9597 32.593 74.7667C32.4919 74.5737 32.468 74.3495 32.5261 74.1395L34.9754 65.2716C35.0054 65.1628 35.0566 65.061 35.126 64.972C35.1954 64.8831 35.2816 64.8086 35.3798 64.753C35.478 64.6973 35.5862 64.6616 35.6981 64.6478C35.8101 64.634 35.9238 64.6424 36.0325 64.6725C36.2507 64.7352 36.4356 64.881 36.5476 65.0784C36.6597 65.2758 36.6899 65.5093 36.6319 65.7288L34.185 74.5975C34.1552 74.7066 34.1042 74.8087 34.0349 74.898C33.9656 74.9874 33.8793 75.0621 33.781 75.118C33.6827 75.1739 33.5743 75.2098 33.4621 75.2237C33.3499 75.2376 33.236 75.2292 33.1271 75.199L33.0704 75.1791Z" fill="white"/>
<path d="M63.3227 28.2481L41.1568 20.4369C40.942 20.3612 40.766 20.2033 40.6676 19.9978C40.5693 19.7924 40.5565 19.5563 40.6322 19.3414C40.7079 19.1266 40.8659 18.9506 41.0713 18.8523C41.2768 18.7539 41.5129 18.7411 41.7277 18.8169L63.8936 26.6281C64.1084 26.7038 64.2844 26.8617 64.3827 27.0672C64.4811 27.2726 64.4939 27.5087 64.4182 27.7235C64.3424 27.9384 64.1845 28.1143 63.9791 28.2127C63.7736 28.3111 63.5375 28.3238 63.3227 28.2481Z" fill="white"/>
<path d="M46.2343 48.5704C45.8649 48.4414 45.5386 48.2123 45.2919 47.9085C45.0451 47.6048 44.8877 47.2385 44.837 46.8505L44.691 45.7636L43.8947 46.5166C43.5753 46.8189 43.1702 47.015 42.7349 47.078C42.2997 47.141 41.8556 47.0678 41.4636 46.8685C41.0715 46.6692 40.7507 46.3536 40.5451 45.9648C40.3395 45.576 40.2592 45.1332 40.3152 44.697L40.7735 41.1768C40.812 40.8974 40.7895 40.613 40.7076 40.3431L40.529 39.7438C40.2659 38.8581 40.2817 37.9128 40.5743 37.0363C40.8668 36.1599 41.422 35.3946 42.1644 34.8445C42.7746 34.3949 43.4839 34.0986 44.2327 33.9808C44.9814 33.863 45.7475 33.9271 46.4662 34.1677C47.0048 34.3564 47.4997 34.6522 47.9209 35.0373C48.0663 35.1692 48.201 35.3126 48.3235 35.466C48.5148 35.4237 48.7092 35.3965 48.9048 35.3849C49.4747 35.349 50.046 35.4289 50.5841 35.6197C51.2931 35.8826 51.9286 36.3119 52.4372 36.8714C52.9458 37.431 53.3127 38.1044 53.5069 38.8352C53.741 39.73 53.6938 40.6751 53.372 41.5421C53.0502 42.4092 52.4692 43.1561 51.7081 43.6815L51.1971 44.0332C50.961 44.1935 50.7628 44.4033 50.6162 44.6481L48.7722 47.679C48.5452 48.0566 48.2056 48.3536 47.8011 48.5281C47.3965 48.7026 46.9475 48.7459 46.5171 48.6519C46.4211 48.6311 46.3267 48.6039 46.2343 48.5704ZM45.603 43.1756C45.7521 43.2282 45.8839 43.321 45.9836 43.4437C46.0834 43.5665 46.1473 43.7144 46.1684 43.8711L46.5366 46.6171C46.5469 46.7034 46.5848 46.784 46.6447 46.8469C46.7045 46.9099 46.7832 46.9518 46.8688 46.9664C46.9519 46.9864 47.0392 46.979 47.1177 46.9453C47.1962 46.9116 47.2617 46.8533 47.3044 46.7793L49.1484 43.7484C49.4216 43.296 49.7894 42.9081 50.2266 42.6112L50.7329 42.2624C51.2027 41.9383 51.5614 41.4774 51.7602 40.9424C51.959 40.4074 51.9883 39.8242 51.8441 39.2719C51.6839 38.6434 51.3174 38.0867 50.8035 37.691C50.2895 37.2953 49.6577 37.0833 49.0091 37.089C48.7996 37.0902 48.5935 37.1426 48.4089 37.2418C48.3004 37.3099 48.178 37.3529 48.0507 37.3676C47.9234 37.3823 47.7944 37.3683 47.6732 37.3267C47.5532 37.283 47.4439 37.214 47.3528 37.1244C47.2617 37.0347 47.1908 36.9266 47.1451 36.8073C47.058 36.6091 46.9263 36.4336 46.7602 36.2947C46.2581 35.8838 45.6328 35.653 44.9841 35.639C44.3355 35.6249 43.7008 35.8286 43.1814 36.2173C42.7239 36.5574 42.382 37.03 42.2021 37.5709C42.0222 38.1119 42.013 38.6951 42.1758 39.2414L42.3541 39.8388C42.5071 40.3415 42.5499 40.8712 42.4797 41.392L42.0215 44.9122C42.0069 44.9959 42.0203 45.0821 42.0595 45.1575C42.0988 45.2329 42.1618 45.2932 42.2387 45.3293C42.3149 45.3719 42.403 45.3884 42.4895 45.3763C42.5759 45.3642 42.6561 45.3241 42.7177 45.2622L44.7315 43.3566C44.8464 43.2497 44.9883 43.1763 45.142 43.1444C45.2956 43.1125 45.4551 43.1233 45.603 43.1756Z" fill="white"/>
<path d="M49.0994 63.413L30.1915 56.7499C29.9828 56.6765 29.8104 56.5255 29.7103 56.3282C29.6101 56.1309 29.59 55.9026 29.6541 55.6908L41.8004 15.4632C41.8341 15.352 41.8899 15.2489 41.9645 15.1599C42.0391 15.071 42.131 14.998 42.2346 14.9456C42.3382 14.8932 42.4514 14.8623 42.5672 14.8548C42.6831 14.8473 42.7993 14.8634 42.9088 14.9021L65.4278 22.8378C65.5373 22.8763 65.6379 22.9366 65.7235 23.015C65.8091 23.0935 65.8779 23.1885 65.9258 23.2943C65.9736 23.4001 65.9995 23.5145 66.0018 23.6306C66.0042 23.7467 65.983 23.8621 65.9395 23.9697L50.1812 62.9245C50.0984 63.1295 49.9398 63.2947 49.7383 63.3857C49.5367 63.4767 49.3079 63.4864 49.0994 63.413ZM31.536 55.4024L48.8967 61.5203L64.008 24.1587L43.19 16.8225L31.536 55.4024Z" stroke="white" stroke-width="1.71772" mask="url(#path-2-inside-1_3724_4106)"/>
<path d="M42.4558 68.7556L32.0177 65.0772C31.8796 65.0286 31.7562 64.9455 31.6592 64.8358C31.5622 64.7261 31.4949 64.5934 31.4637 64.4503L29.653 56.1356C29.6203 55.9861 29.6282 55.8307 29.6758 55.6852C29.7234 55.5398 29.8089 55.4097 29.9236 55.3085C30.0383 55.2072 30.178 55.1384 30.3282 55.1092C30.4784 55.08 30.6337 55.0915 30.7779 55.1424L49.6542 61.7944C49.798 61.8458 49.9254 61.9345 50.0234 62.0515C50.1215 62.1685 50.1866 62.3095 50.212 62.46C50.2374 62.6106 50.2223 62.7651 50.1681 62.9078C50.114 63.0505 50.0228 63.1763 49.9039 63.272L43.2764 68.6131C43.163 68.7045 43.0281 68.7655 42.8845 68.7905C42.741 68.8154 42.5935 68.8034 42.4558 68.7556ZM33.0398 63.6161L42.5755 66.9765L47.6309 62.9026L31.6562 57.2732L33.0398 63.6161Z" stroke="white" stroke-width="1.71772" mask="url(#path-2-inside-1_3724_4106)"/>
<path d="M37.8046 76.8475L30.5953 74.307C30.4063 74.2404 30.2465 74.1098 30.1437 73.9379C30.0408 73.7659 30.0013 73.5634 30.032 73.3654L31.4623 64.1384C31.4816 64.0137 31.5282 63.8948 31.5986 63.7902C31.6691 63.6855 31.7618 63.5977 31.8701 63.5329C31.9784 63.4681 32.0996 63.428 32.2252 63.4154C32.3507 63.4028 32.4775 63.418 32.5965 63.4599L43.0476 67.1429C43.1665 67.1849 43.2747 67.2526 43.3645 67.3412C43.4543 67.4297 43.5235 67.5369 43.5671 67.6553C43.6108 67.7736 43.6279 67.9 43.6172 68.0257C43.6064 68.1513 43.5682 68.2731 43.5051 68.3823L38.8346 76.4674C38.7343 76.6411 38.5764 76.7741 38.3883 76.8435C38.2002 76.913 37.9937 76.9144 37.8046 76.8475ZM31.8353 72.9227L37.7032 74.9905L41.5006 68.419L32.9952 65.4217L31.8353 72.9227Z" stroke="white" stroke-width="1.71772" mask="url(#path-2-inside-1_3724_4106)"/>
<path d="M35.3265 75.9744L35.2698 75.9544C35.1662 75.9097 35.0724 75.845 34.9938 75.764C34.9152 75.6831 34.8534 75.5874 34.8118 75.4825C34.7702 75.3776 34.7496 75.2655 34.7514 75.1527C34.7531 75.0399 34.777 74.9285 34.8218 74.8249L38.4757 66.3815C38.5663 66.172 38.7365 66.007 38.9488 65.9229C39.1611 65.8388 39.3981 65.8425 39.6076 65.9331C39.8172 66.0237 39.9822 66.1939 40.0663 66.4062C40.1504 66.6185 40.1467 66.8555 40.0561 67.065L36.4022 75.5084C36.3153 75.7079 36.1559 75.867 35.9562 75.9535C35.7565 76.04 35.5315 76.0475 35.3265 75.9744Z" stroke="white" stroke-width="1.71772" mask="url(#path-2-inside-1_3724_4106)"/>
<path d="M33.0704 75.1791C32.8647 75.1071 32.694 74.9597 32.593 74.7667C32.4919 74.5737 32.468 74.3495 32.5261 74.1395L34.9754 65.2716C35.0054 65.1628 35.0566 65.061 35.126 64.972C35.1954 64.8831 35.2816 64.8086 35.3798 64.753C35.478 64.6973 35.5862 64.6616 35.6981 64.6478C35.8101 64.634 35.9238 64.6424 36.0325 64.6725C36.2507 64.7352 36.4356 64.881 36.5476 65.0784C36.6597 65.2758 36.6899 65.5093 36.6319 65.7288L34.185 74.5975C34.1552 74.7066 34.1042 74.8087 34.0349 74.898C33.9656 74.9874 33.8793 75.0621 33.781 75.118C33.6827 75.1739 33.5743 75.2098 33.4621 75.2237C33.3499 75.2376 33.236 75.2292 33.1271 75.199L33.0704 75.1791Z" stroke="white" stroke-width="1.71772" mask="url(#path-2-inside-1_3724_4106)"/>
<path d="M63.3227 28.2481L41.1568 20.4369C40.942 20.3612 40.766 20.2033 40.6676 19.9978C40.5693 19.7924 40.5565 19.5563 40.6322 19.3414C40.7079 19.1266 40.8659 18.9506 41.0713 18.8523C41.2768 18.7539 41.5129 18.7411 41.7277 18.8169L63.8936 26.6281C64.1084 26.7038 64.2844 26.8617 64.3827 27.0672C64.4811 27.2726 64.4939 27.5087 64.4182 27.7235C64.3424 27.9384 64.1845 28.1143 63.9791 28.2127C63.7736 28.3111 63.5375 28.3238 63.3227 28.2481Z" stroke="white" stroke-width="1.71772" mask="url(#path-2-inside-1_3724_4106)"/>
<path d="M46.2343 48.5704C45.8649 48.4414 45.5386 48.2123 45.2919 47.9085C45.0451 47.6048 44.8877 47.2385 44.837 46.8505L44.691 45.7636L43.8947 46.5166C43.5753 46.8189 43.1702 47.015 42.7349 47.078C42.2997 47.141 41.8556 47.0678 41.4636 46.8685C41.0715 46.6692 40.7507 46.3536 40.5451 45.9648C40.3395 45.576 40.2592 45.1332 40.3152 44.697L40.7735 41.1768C40.812 40.8974 40.7895 40.613 40.7076 40.3431L40.529 39.7438C40.2659 38.8581 40.2817 37.9128 40.5743 37.0363C40.8668 36.1599 41.422 35.3946 42.1644 34.8445C42.7746 34.3949 43.4839 34.0986 44.2327 33.9808C44.9814 33.863 45.7475 33.9271 46.4662 34.1677C47.0048 34.3564 47.4997 34.6522 47.9209 35.0373C48.0663 35.1692 48.201 35.3126 48.3235 35.466C48.5148 35.4237 48.7092 35.3965 48.9048 35.3849C49.4747 35.349 50.046 35.4289 50.5841 35.6197C51.2931 35.8826 51.9286 36.3119 52.4372 36.8714C52.9458 37.431 53.3127 38.1044 53.5069 38.8352C53.741 39.73 53.6938 40.6751 53.372 41.5421C53.0502 42.4092 52.4692 43.1561 51.7081 43.6815L51.1971 44.0332C50.961 44.1935 50.7628 44.4033 50.6162 44.6481L48.7722 47.679C48.5452 48.0566 48.2056 48.3536 47.8011 48.5281C47.3965 48.7026 46.9475 48.7459 46.5171 48.6519C46.4211 48.6311 46.3267 48.6039 46.2343 48.5704ZM45.603 43.1756C45.7521 43.2282 45.8839 43.321 45.9836 43.4437C46.0834 43.5665 46.1473 43.7144 46.1684 43.8711L46.5366 46.6171C46.5469 46.7034 46.5848 46.784 46.6447 46.8469C46.7045 46.9099 46.7832 46.9518 46.8688 46.9664C46.9519 46.9864 47.0392 46.979 47.1177 46.9453C47.1962 46.9116 47.2617 46.8533 47.3044 46.7793L49.1484 43.7484C49.4216 43.296 49.7894 42.9081 50.2266 42.6112L50.7329 42.2624C51.2027 41.9383 51.5614 41.4774 51.7602 40.9424C51.959 40.4074 51.9883 39.8242 51.8441 39.2719C51.6839 38.6434 51.3174 38.0867 50.8035 37.691C50.2895 37.2953 49.6577 37.0833 49.0091 37.089C48.7996 37.0902 48.5935 37.1426 48.4089 37.2418C48.3004 37.3099 48.178 37.3529 48.0507 37.3676C47.9234 37.3823 47.7944 37.3683 47.6732 37.3267C47.5532 37.283 47.4439 37.214 47.3528 37.1244C47.2617 37.0347 47.1908 36.9266 47.1451 36.8073C47.058 36.6091 46.9263 36.4336 46.7602 36.2947C46.2581 35.8838 45.6328 35.653 44.9841 35.639C44.3355 35.6249 43.7008 35.8286 43.1814 36.2173C42.7239 36.5574 42.382 37.03 42.2021 37.5709C42.0222 38.1119 42.013 38.6951 42.1758 39.2414L42.3541 39.8388C42.5071 40.3415 42.5499 40.8712 42.4797 41.392L42.0215 44.9122C42.0069 44.9959 42.0203 45.0821 42.0595 45.1575C42.0988 45.2329 42.1618 45.2932 42.2387 45.3293C42.3149 45.3719 42.403 45.3884 42.4895 45.3763C42.5759 45.3642 42.6561 45.3241 42.7177 45.2622L44.7315 43.3566C44.8464 43.2497 44.9883 43.1763 45.142 43.1444C45.2956 43.1125 45.4551 43.1233 45.603 43.1756Z" stroke="white" stroke-width="1.71772" mask="url(#path-2-inside-1_3724_4106)"/>
</svg>
