<svg fill="none" height="90" viewBox="0 0 89 90" width="89" xmlns="http://www.w3.org/2000/svg"><path clip-rule="evenodd" d="m88.3429 44.7236c0 24.7-19.7763 44.7236-44.1712 44.7236-24.3954 0-44.1717-20.0236-44.1717-44.7236 0-24.7005 19.7763-44.7236 44.1717-44.7236 24.3949 0 44.1712 20.0231 44.1712 44.7236z" fill="#115556" fill-rule="evenodd"/><g fill="#fff"><path d="m24.7043 42.0019c-.0254-.1334-.0768-.2606-.1512-.3742-.0745-.1135-.1707-.2113-.283-.2878-.2267-.1543-.5055-.2123-.775-.1611s-.5076.2074-.662.4342c-.1544.2267-.2123.5055-.1611.775s.2074.5077.4341.662c.2268.1544.5056.2123.7751.1611s.5076-.2073.662-.4341c.1543-.2268.2123-.5056.1611-.7751z"/><path d="m48.6647 60.0589-.4065-1.6462c-.1896-.7786-.6353-1.471-1.2655-1.9661-.6301-.4951-1.4083-.7642-2.2097-.7642s-1.5796.2691-2.2097.7642c-.6302.4951-1.0759 1.1875-1.2655 1.9661l-1.8393 7.5297c-.1759.7159-.5899 1.3507-1.1741 1.8004-.5841.4498-1.3038.6876-2.0409.6746-.737-.013-1.4478-.2761-2.0158-.7461-.5679-.47-.9593-1.119-1.1099-1.8407-.5996-2.8858-1.4633-7.113-2.1543-10.4866-1.26-5.9953-3.7699-7.8549-4.9385-9.9075-.1347-.2345-.3571-.4058-.6181-.4763-.2611-.0705-.5395-.0344-.774.1003-.2344.1348-.4058.3572-.4763.6182-.0705.2611-.0344.5395.1003.774 1.2906 2.2456 3.5566 3.78 4.715 9.3079.691 3.3838 1.575 7.5805 2.1542 10.4765.2483 1.1717.8873 2.2244 1.8123 2.9853.925.761 2.0811 1.185 3.2788 1.2028 1.1976.0177 2.3657-.372 3.3128-1.1053.9472-.7332 1.617-1.7665 1.8999-2.9304l1.8392-7.5297c.0798-.3346.2735-.6311.5478-.8387.2744-.2076.6123-.3135.9561-.2994 1.4836 0 1.5547 1.382 1.9104 2.8249.0729.2524.2407.4667.4682.598.2275.1314.497.1695.752.1064s.4757-.2225.6157-.4448c.14-.2222.1886-.4901.1354-.7473z"/><path d="m66.7934 36.5657c.9724-.7514 2.1651-1.1621 3.394-1.1686.2695 0 .5279-.107.7185-.2976.1906-.1905.2976-.449.2976-.7185s-.107-.528-.2976-.7185c-.1906-.1906-.449-.2977-.7185-.2977-.7343.0014-1.4617-.1423-2.1404-.4227-.6786-.2803-1.2953-.692-1.8145-1.2112s-.9309-1.1359-1.2113-1.8145c-.2803-.6787-.424-1.4061-.4226-2.1404 0-.2695-.1071-.5279-.2977-.7185-.1905-.1906-.449-.2976-.7185-.2976s-.528.107-.7185.2976c-.1906.1906-.2976.449-.2976.7185-.0011.4727-.0591.9435-.1728 1.4023-2.183-1.9358-4.9286-3.1217-7.8345-3.3838-6.0969-.5284-7.4077 2.9164-13.8298.7012-1.9405-.6593-4.0031-.8798-6.0391-.6455s-3.9946.9176-5.7346 2.0005c-1.74 1.0828-3.218 2.5384-4.3274 4.2616s-1.8225 3.6711-2.088 5.7033c-.0336.2695.0411.5413.2078.7557.1668.2144.4119.3538.6814.3874.2695.0337.5413-.041.7557-.2078.2144-.1667.3537-.4118.3874-.6813.226-1.7327.8337-3.3936 1.7793-4.863s2.2055-2.7107 3.6889-3.6341c1.4835-.9235 3.1533-1.5063 4.8892-1.7062 1.7359-.2 3.4946-.0121 5.1491.5499 3.0606 1.0616 6.3895 1.0616 9.4502 0 2.0482-.7027 4.2512-.8241 6.3642-.3505 2.1131.4735 4.0535 1.5235 5.606 3.0331-.5208.7085-1.2022 1.2833-1.9883 1.6772-.786.3939-1.6543.5957-2.5336.5888-.2695 0-.5279.1071-.7185.2977-.1906.1905-.2976.449-.2976.7185s.107.528.2976.7185c.1906.1906.449.2976.7185.2976 1.4815.0027 2.9014.5924 3.949 1.6399 1.0475 1.0476 1.6372 2.4675 1.6399 3.949 0 .2695.107.5279.2976.7185.1905.1906.449.2976.7185.2976s.528-.107.7185-.2976c.1906-.1906.2977-.449.2977-.7185.0029-.7474.1549-1.4867.4471-2.1746.2449 2.9943-.6967 5.9649-2.6217 8.2715-1.938 2.4192-3.2534 5.2767-3.8309 8.3222-2.3168 11.3606-2.1136 11.3911-3.2822 12.3361-.4254.3467-.9316.5801-1.4716.6785-.5399.0983-1.096.0584-1.6164-.1161-.5203-.1744-.9881-.4778-1.3596-.8817-.3715-.404-.6348-.8954-.7652-1.4285l-.4877-2.0323c-.073-.2524-.2408-.4667-.4683-.598s-.497-.1694-.752-.1063-.4757.2225-.6157.4447c-.14.2223-.1885.4901-.1354.7473l.4878 2.0323c.2142.864.6427 1.6601 1.2461 2.3146.6033.6545 1.3619 1.1463 2.2057 1.4299s1.7454.3499 2.6216.1927c.8761-.1572 1.6985-.5327 2.3911-1.0919 1.9205-1.5547 1.7478-2.5302 3.9935-13.5148.5096-2.7173 1.6785-5.268 3.4041-7.4281 1.3468-1.6203 2.3007-3.5302 2.7872-5.5802.4865-2.0501.4924-4.1849.0173-6.2376zm-3.211.6199c-.6721-1.1651-1.6395-2.1325-2.8046-2.8046.5723-.3466 1.107-.7519 1.5954-1.2092 2.0323-2.0323.3252-2.1136 2.4286 0s2.0323.3455 0 2.4286c-.4774.4698-.8877 1.0032-1.2194 1.5852z"/><path d="m44.7833 34.6047c3.4801-.0649 6.889-.9975 9.9176-2.7132.184-.1544.3074-.3691.3481-.606.0407-.2368-.0038-.4803-.1256-.6875-.1218-.2071-.3131-.3643-.5399-.4437-.2267-.0795-.4743-.076-.6988.0098-2.729 1.51-5.7833 2.3363-8.9014 2.4083-3.1043-.0785-6.1439-.9046-8.8609-2.4083-.2244-.0858-.472-.0893-.6988-.0098-.2267.0794-.418.2366-.5398.4437-.1219.2072-.1664.4507-.1256.6875.0407.2369.1641.4516.3481.606 3.0165 1.7092 6.4106 2.6415 9.877 2.7132z"/><path d="m18.3634 39.9698h-3.0484c-.2695 0-.528.107-.7185.2976-.1906.1906-.2977.449-.2977.7185s.1071.528.2977.7186c.1905.1905.449.2976.7185.2976h3.0484c.2695 0 .528-.1071.7186-.2976.1905-.1906.2976-.4491.2976-.7186s-.1071-.5279-.2976-.7185c-.1906-.1906-.4491-.2976-.7186-.2976z"/><path d="m74.2516 39.9698h-3.0484c-.2695 0-.528.107-.7186.2976-.1905.1906-.2976.449-.2976.7185s.1071.528.2976.7186c.1906.1905.4491.2976.7186.2976h3.0484c.2695 0 .528-.1071.7185-.2976.1906-.1906.2977-.4491.2977-.7186s-.1071-.5279-.2977-.7185c-.1905-.1906-.449-.2976-.7185-.2976z"/><path d="m45.7994 14.5661v-3.0485c0-.2695-.1071-.5279-.2976-.7185-.1906-.1906-.4491-.2976-.7186-.2976s-.5279.107-.7185.2976-.2976.449-.2976.7185v3.0485c0 .2695.107.5279.2976.7185s.449.2976.7185.2976.528-.107.7186-.2976c.1905-.1906.2976-.449.2976-.7185z"/><path d="m21.412 53.3119-2.6319 1.5243c-.2344.1347-.4058.3571-.4763.6181-.0705.2611-.0344.5395.1004.774.1347.2344.3571.4058.6182.4763.261.0705.5394.0344.7739-.1003l2.6318-1.5243c.2345-.1347.4058-.3571.4763-.6182.0705-.261.0344-.5394-.1003-.7739-.1348-.2345-.3571-.4058-.6182-.4763s-.5395-.0344-.7739.1003z"/><path d="m67.6668 28.7923c.3658 0 .2439 0 3.1399-1.6564.2344-.1347.4058-.3571.4763-.6182.0705-.261.0344-.5394-.1003-.7739-.0668-.1161-.1557-.2179-.2618-.2996-.106-.0817-.2272-.1418-.3564-.1767-.2611-.0705-.5395-.0344-.774.1003l-2.6521 1.5243c-.1975.1117-.3519.2862-.4386.4958-.0868.2097-.1009.4423-.0401.6608.0608.2186.1929.4105.3755.5453.1825.1347.4048.2045.6316.1983z"/><path d="m30.6896 18.6307c.1348.2345.3571.4058.6182.4764.2611.0705.5395.0344.7739-.1004.2345-.1347.4058-.3571.4763-.6182.0706-.2611.0345-.5394-.1003-.7739l-1.5242-2.6318c-.0667-.1161-.1557-.2179-.2617-.2997-.1061-.0817-.2272-.1417-.3565-.1766-.2611-.0705-.5395-.0345-.7739.1003-.2345.1347-.4058.3571-.4763.6182-.0706.2611-.0345.5395.1003.7739z"/><path d="m58.8773 18.6307 1.5243-2.6318c.0667-.1161.1099-.2442.1271-.377s.0081-.2676-.0268-.3969-.095-.2504-.1767-.3565-.1835-.195-.2996-.2617-.2442-.1099-.377-.1271c-.1328-.0173-.2677-.0082-.397.0268-.1292.0349-.2503.0949-.3564.1766-.1061.0818-.195.1836-.2617.2997l-1.5243 2.6318c-.0667.1161-.1099.2442-.1271.377s-.0081.2677.0268.3969c.0349.1293.0949.2504.1767.3565.0817.1061.1835.195.2996.2617s.2442.1099.377.1272c.1328.0172.2677.0081.3969-.0269.1293-.0349.2504-.0949.3565-.1766s.195-.1836.2617-.2997z"/><path d="m18.7596 27.1359c2.896 1.6564 2.7843 1.6564 3.1399 1.6564.225.0015.4442-.0716.6231-.208.179-.1364.3076-.3283.3657-.5457.0581-.2173.0424-.4479-.0445-.6554-.087-.2075-.2404-.3802-.4362-.4911l-2.6318-1.5243c-.2345-.1347-.5129-.1708-.774-.1003-.261.0705-.4834.2419-.6182.4763-.1347.2345-.1708.5129-.1003.7739.0705.2611.2419.4835.4763.6182z"/><path d="m70.8068 54.8362-2.6521-1.5243c-.2345-.1347-.5129-.1708-.774-.1003-.261.0705-.4834.2418-.6181.4763-.1348.2345-.1709.5129-.1004.7739.0705.2611.2419.4835.4763.6182l2.6319 1.5243c.2344.1374.5139.1761.7769.1075.2629-.0686.4879-.2389.6253-.4734.1375-.2344.1762-.5139.1076-.7769-.0686-.2629-.2389-.4879-.4734-.6253z"/></g></svg>