<svg xmlns="http://www.w3.org/2000/svg" viewBox="-14920 -9908 60 60">
    <circle data-name="Ellipse 48" cx="-14890" cy="-9878" r="30" fill="#e1f3f3" />
    <path d="M-14884.03-9888.8a2 2 0 0 0-2-2h-7.53a2 2 0 0 0-2.01 2v1.7h11.64v-1.7z" data-name="Path 531" fill="none" />
    <path d="M-14878.92-9887.1h-3v-1.7a4.23 4.23 0 0 0-4.22-4.2h-7.52a4.25 4.25 0 0 0-4.32 4.2v1.7h-2.8a4.03 4.03 0 0 0-4.22 3.8v16.1a4.23 4.23 0 0 0 4.21 4.2h21.57a4.23 4.23 0 0 0 4.22-4.2v-15.8a3.9 3.9 0 0 0-3.92-4.1zm-16.75-1.7a2 2 0 0 1 2-2h7.53a2 2 0 0 1 2 2v1.7h-11.53z" data-name="Path 532" fill="#015f5f" />
    <path d="M-14894.97-9872.9h2.8v2.8a.93.93 0 0 0 1 .9h2.82a.93.93 0 0 0 .9-1v-2.8h2.5a.93.93 0 0 0 .9-1v-2.8a.93.93 0 0 0-1-.9h-2.6v-2.6a.93.93 0 0 0-1-.9h-2.8a.93.93 0 0 0-.9 1v2.6h-2.62a.93.93 0 0 0-.9 1v2.8c-.1.5.3.9.9.9z" data-name="Path 533" fill="#fcb61a" />
</svg>
