<svg xmlns="http://www.w3.org/2000/svg" viewBox="-15400 -9768 60 60">
    <circle r="30" cy="-9738" cx="-15370" fill="#e1f3f3" />
    <path data-name="Rectangle 574" fill="#fcb61a" d="M-15364.6-9748.8h5.1v5.8h-5.1z" />
    <path d="M-15362.6-9743.4l-2.1-2.1 2.7-2.7 2.1 2.1zm8.2-1.4l-8.7-8.7a1.54 1.54 0 0 0-2.1 0 1.52 1.52 0 0 0 0 2l1.3 1.3-3.1 3.1-1-1a1.54 1.54 0 0 0-2.1 0 1.52 1.52 0 0 0 0 2l1 1-13.4 13.4a1.45 1.45 0 0 0 0 2.1l1 1-4.1 4.1a1.45 1.45 0 0 0 0 2.1 1.45 1.45 0 0 0 2.1 0l4.1-4.1 1 1a1.28 1.28 0 0 0 1 .4 1.53 1.53 0 0 0 1-.4l13.4-13.4 1 1a1.45 1.45 0 0 0 2.1 0 1.33 1.33 0 0 0 0-2l-1-1 3.1-3.1 1.3 1.3a1.45 1.45 0 0 0 2.1 0 1.54 1.54 0 0 0 0-2.1z" fill="#015f5f" />
</svg>
