<svg width="80" height="81" fill="none" xmlns="http://www.w3.org/2000/svg"><path d="M0 40.5C0 18.409 17.909.5 40 .5s40 17.909 40 40-17.909 40-40 40-40-17.909-40-40Z" fill="#fff"/><g clip-path="url(#a)"><path d="M46.84 40.5c0 .43-.164.86-.492 1.188l-10.32 10.32a1.68 1.68 0 1 1-2.376-2.377l9.131-9.13-9.13-9.132a1.68 1.68 0 0 1 2.376-2.376l10.32 10.319c.328.328.491.758.491 1.188Z" fill="#0E4445"/></g><defs><clipPath id="a"><path fill="#fff" transform="rotate(-90 40.25 12.25)" d="M0 0h24v24H0z"/></clipPath></defs></svg>