<svg width="20" height="19" xmlns="http://www.w3.org/2000/svg"><defs><filter color-interpolation-filters="auto" id="a"><feColorMatrix in="SourceGraphic" values="0 0 0 0 0.250980 0 0 0 0 0.423529 0 0 0 0 0.580392 0 0 0 1.000000 0"/></filter></defs><g transform="translate(-1 -7)" filter="url(#a)" fill="none" fill-rule="evenodd"><path d="M18.27 20.13c-.67 0-1.28.24-1.76.63l-2.22-1.5a3.5 3.5 0 00-2.5-4.67v-2.24a2.74 2.74 0 10-1.56 0l-.01 2.23a3.49 3.49 0 00-2.51 4.67l-2.22 1.51a2.74 2.74 0 10.86 1.3l2.22-1.5a3.5 3.5 0 004.86 0l2.22 1.5a2.73 2.73 0 002.62 3.53 2.74 2.74 0 000-5.46zm-14.54 3.9a1.17 1.17 0 110-2.35 1.17 1.17 0 010 2.35zm6.1-14.3a1.17 1.17 0 112.34 0 1.17 1.17 0 01-2.34 0zM11 19.97a1.96 1.96 0 110-3.91 1.96 1.96 0 010 3.9zm7.27 4.06a1.17 1.17 0 110-2.35 1.17 1.17 0 010 2.35z" fill="#000" fill-rule="nonzero"/></g></svg>